<svg width="413" height="466" viewBox="0 0 413 466" fill="none" xmlns="http://www.w3.org/2000/svg">
<path d="M75.9228 343.823C75.4214 345.067 75.0399 346.356 74.7836 347.673C74.1586 351.28 73.9849 354.951 74.2665 358.601C74.5438 363.855 74.2665 399.062 74.2665 399.062C74.2665 399.062 68.3382 408.451 65.0256 411.761C61.713 415.071 71.7708 421.015 71.7708 421.015C73.2697 429.579 64.1862 439.246 64.1862 439.246C54.9528 428.063 43.7858 442 43.7858 442C43.7858 442 37.7151 431.493 36.2012 427.74C34.6873 423.987 42.1294 421.398 44.7451 419.867C47.3607 418.336 44.6102 409.359 44.6102 409.359C44.6102 409.359 42.4067 401.486 39.7836 394.304C37.1605 387.121 42.6766 351.373 42.6766 351.373C42.6766 351.373 42.9614 345.016 43.6434 342.802C43.9837 341.204 44.0521 339.56 43.8457 337.939C43.8008 337.391 43.7483 336.941 43.7108 336.625C43.6734 336.31 43.6434 336.175 43.6434 336.175L43.7483 335.995L47.4956 329C47.4956 329 77.7215 339.417 75.9228 343.823Z" fill="#0275D8"/>
<path opacity="0.1" d="M96 466C137.421 466 171 460.627 171 454C171 447.373 137.421 442 96 442C54.5786 442 21 447.373 21 454C21 460.627 54.5786 466 96 466Z" fill="#0275D8"/>
<path opacity="0.1" d="M338 465C379.421 465 413 459.627 413 453C413 446.373 379.421 441 338 441C296.579 441 263 446.373 263 453C263 459.627 296.579 465 338 465Z" fill="#0275D8"/>
<path d="M163.949 166.301C163.949 166.301 160.918 165.886 160.918 161.555C160.918 157.225 158.748 149.116 158.748 149.116C158.748 149.116 156.871 135.007 154.279 132.77C151.686 130.533 148.355 117.399 148.355 117.399C148.355 117.399 147.786 110.272 146.624 108.738C145.462 107.204 143.893 103.448 141.577 98.0899C139.262 92.7318 129.63 89.059 129.63 89.059C129.63 89.059 112.174 79.1137 107.227 75.8716C106.775 75.6029 106.352 75.2889 105.966 74.9345C105.104 73.8312 101.35 73.8085 101.35 73.8085C100.957 71.3675 100.58 68.5714 100.457 66.0397C100.457 65.7676 100.457 65.4956 100.457 65.2235C105.973 62.0206 110.128 56.9707 112.159 51.0008C112.251 50.7136 112.328 50.4189 112.413 50.1242C112.75 50.0218 113.062 49.8504 113.327 49.6211C113.592 49.3919 113.805 49.11 113.951 48.7941C114.39 47.8192 114.405 46.6856 114.959 45.7712C115.605 44.6981 116.836 44.1237 117.805 43.3227C120.252 41.2747 120.883 37.8361 120.767 34.715C120.69 32.1758 120.275 29.6214 120.436 27.1049C120.436 26.8933 120.436 26.6817 120.483 26.4701C120.529 26.0998 120.583 25.7144 120.652 25.3516C121.029 23.4774 121.852 21.709 122.314 19.8499C122.775 17.9909 122.821 15.8975 121.744 14.2954C120.167 11.9451 116.882 11.4765 113.997 11.2725C110.728 11.0004 107.843 11.3481 105.712 8.68037C104.734 7.28706 103.632 5.98205 102.419 4.78084C101.988 4.38787 97.8032 1.87131 97.8032 1.71261C93.7084 -0.157608 89.063 -0.509272 84.7248 0.722593C82.5477 1.34229 80.509 2.35497 78.301 2.8613C73.5621 3.96466 68.0999 2.77062 64.0687 5.43832C61.8223 6.94976 60.4759 9.36051 59.2143 11.6957C58.1885 13.6203 57.1474 15.5474 56.0908 17.477C54.383 20.6434 52.6597 23.8628 51.9443 27.3694C51.7946 28.1353 51.6995 28.9105 51.6596 29.6894V29.6894C51.6596 29.9691 51.6596 30.2487 51.6596 30.5283C51.6596 30.6492 51.6596 30.7701 51.6596 30.891C51.6596 31.148 51.6596 31.4049 51.7058 31.6468C51.7519 31.8886 51.7058 31.9566 51.7596 32.1153C51.8135 32.274 51.8288 32.6292 51.875 32.871C51.9212 33.1129 52.0135 33.5436 52.1058 33.8686C52.1058 34.0122 52.1981 34.1482 52.2443 34.2918C52.2904 34.4354 52.4135 34.7981 52.5135 35.0475C52.6136 35.2969 52.6212 35.312 52.6828 35.4405C52.7982 35.705 52.9367 35.9619 53.0751 36.1962C53.1367 36.2944 53.1829 36.3927 53.2444 36.4909C53.4554 36.8447 53.6919 37.1831 53.9522 37.5036C55.5908 39.5214 58.0218 40.8061 59.8144 42.6954C59.8144 42.771 59.8144 42.8466 59.8144 42.9221C59.8144 43.1262 59.8144 43.3302 59.8144 43.5418C59.9241 47.7558 61.0804 51.8796 63.1828 55.5543C65.2852 59.2291 68.2699 62.3435 71.8772 64.6265C71.8772 64.9137 71.9157 65.2084 71.9311 65.5031C72.0811 67.7438 72.0528 69.9927 71.8465 72.2291C71.5325 71.8675 71.1402 71.5794 70.6983 71.3858C70.2564 71.1923 69.776 71.0983 69.2923 71.1106C68.9618 71.0945 68.6305 71.1224 68.3076 71.1937L68.2384 71.1408V71.2088C66.5459 71.6169 64.461 73.3475 62.4685 78.2673C62.4685 78.2673 56.4063 84.9781 51.7904 84.6985C47.1745 84.4189 35.4886 91.6889 35.4886 91.6889C35.4886 91.6889 24.0873 98.9514 21.6409 106.357C20.2733 110.558 18.6312 114.668 16.7249 118.661L2.59259 147.166L0 169.838C0 169.838 1.43862 179.897 1.15397 181.438C0.869328 182.98 7.07002 196.81 7.07002 196.81C7.07002 196.81 27.5569 232.163 35.9271 233.976L36.5271 233.568C36.8869 233.747 37.2664 233.883 37.658 233.976L39.3813 232.79C39.488 234.118 39.4415 235.454 39.2428 236.773C38.0966 240.272 39.6814 263.049 41.697 267.515C43.7126 271.982 42.9971 330.55 42.9971 330.55L42.7125 335.712C42.7125 335.712 42.7124 335.878 42.7817 336.165L42.7125 337.389L42.9201 337.495C43.1357 339.137 43.0655 340.803 42.7125 342.422C41.9893 344.69 41.697 351.091 41.697 351.091C41.697 351.091 35.9271 387.275 38.6659 394.545C41.4046 401.815 43.7203 409.78 43.7203 409.78C43.7203 409.78 46.6052 418.849 43.8587 420.36C41.1123 421.872 33.3345 424.554 34.9193 428.325C36.381 431.817 41.9278 441.173 42.7509 442.541L42.6817 443.296L41.5508 455.335C41.7339 456.924 42.1728 458.475 42.8509 459.93C44.0895 462.56 46.4898 465.273 51.0749 464.978C51.8442 464.925 52.7289 464.842 53.5983 464.729C61.9761 463.618 72.285 459.945 72.285 459.945C71.7505 459.612 71.2618 459.214 70.831 458.758V458.758C70.4192 458.367 70.0929 457.896 69.872 457.377C69.6511 456.857 69.5403 456.299 69.5462 455.735C69.6693 453.536 65.4919 443.1 64.4457 440.523L64.2072 439.948C64.2072 439.948 73.7313 430.162 72.1465 421.501C72.1465 421.501 61.6069 415.455 65.0765 412.13C68.5461 408.805 74.7468 399.283 74.7468 399.283C74.7468 399.283 75.0314 363.651 74.7468 358.338C74.45 354.643 74.6284 350.926 75.2776 347.274C75.393 346.73 75.5315 346.194 75.6777 345.657C80.4803 346.369 85.33 346.73 90.187 346.738C91.9615 346.738 93.7566 346.702 95.5722 346.632C95.5722 347.136 95.5953 347.68 95.6414 348.264C96.0415 357.091 96.7877 372.576 97.3954 378.327C98.2571 386.564 103.019 408.79 103.019 408.79C103.019 408.79 93.9335 414.511 104.604 428.635C104.604 428.635 104.604 433.744 103.896 434.492C103.14 436.916 102.531 439.381 102.073 441.876C101.627 444.528 101.442 447.226 102.165 448.617C103.896 451.957 114.282 451.685 114.282 451.685C114.365 451.666 114.45 451.653 114.536 451.647C116.496 451.443 118.478 451.626 120.366 452.184C122.253 452.742 124.009 453.664 125.529 454.897C129.476 458.01 144.447 456.65 152.563 455.652C155.74 455.252 157.864 454.897 157.864 454.897C157.966 454.543 158.002 454.175 157.971 453.808V453.808C157.887 451.851 156.325 447.559 145.739 443.727C145.739 443.727 135.784 437.152 135.923 431.424H135.7H134.553C135.277 431.401 135.784 431.401 135.784 431.401C135.784 431.401 131.884 417.428 133.476 416.287C135.069 415.146 130.299 399.661 130.299 399.661C130.299 399.661 127.568 373.664 127.414 371.85C127.424 370.287 127.668 368.734 128.137 367.24L127.414 352.98C127.414 352.98 127.276 348.242 127.414 346.7C127.399 345.362 127.291 344.026 127.091 342.702C127.022 342.173 126.953 341.621 126.876 341.077C130.607 340.148 133.03 339.294 133.03 339.294L132.599 289.681C135.769 283.635 136.354 270.364 136.338 260.963C136.338 254.917 136.061 250.443 136.061 250.443L140.393 243.498C140.393 243.498 141.393 235.185 139.808 233.364C139.108 232.54 139.423 231.686 140 230.984C140.304 230.739 140.625 230.517 140.962 230.319C140.924 230.266 140.891 230.21 140.862 230.152C141.164 229.904 141.486 229.679 141.823 229.48C141.823 229.48 140.285 227.137 141.662 226.147C142.954 227.009 144.108 227.696 144.985 228.187C144.924 228.739 144.862 229.057 144.862 229.057L145.232 228.301C146.078 228.769 146.593 229.057 146.593 229.057C146.593 229.057 153.379 215.779 153.232 213.829C153.086 211.879 157.848 203.626 157.848 203.626C157.848 203.626 158.425 199.289 161.026 197.475C163.626 195.661 163.041 182.519 163.041 182.519C163.041 182.519 163.764 175.672 165.495 172.884C167.226 170.095 163.949 166.301 163.949 166.301ZM34.1192 160.475L34.25 163.641C33.4807 162.425 32.9267 161.555 32.9267 161.555L34.1192 160.475Z" fill="url(#paint0_linear)"/>
<path d="M147 223.007L145.329 230C145.329 230 131.945 223.273 129.538 214.759C127.132 206.246 133.569 203 133.569 203L146.048 208.184L147 223.007Z" fill="white"/>
<path opacity="0.1" d="M147 223.007L145.329 230C145.329 230 131.945 223.273 129.538 214.759C127.132 206.246 133.569 203 133.569 203L146.048 208.184L147 223.007Z" fill="black"/>
<path d="M72 459.055C72 459.055 60.1481 463.428 52 463.978C47.6741 464.268 45.4 461.606 44.2296 459.04C43.5937 457.625 43.1789 456.12 43 454.578L44.0741 442.791L44.637 436.522L61.9481 432L64.4 439.533L64.6297 440.099C65.6074 442.62 69.563 452.838 69.4445 454.972C69.4349 455.524 69.537 456.073 69.7445 456.584C69.9521 457.095 70.2607 457.559 70.6518 457.947C71.0527 458.372 71.5057 458.745 72 459.055V459.055Z" fill="#E4E4E4"/>
<path d="M156.989 453.025C157.021 453.388 156.984 453.753 156.88 454.103C156.88 454.103 130.19 458.371 124.73 454.103C123.195 452.857 121.406 451.931 119.478 451.386C117.549 450.841 115.523 450.688 113.53 450.937C113.53 450.937 103.203 451.206 101.48 447.942C100.762 446.572 100.949 443.914 101.394 441.301C101.848 438.844 102.452 436.414 103.203 434.025L103.617 433.71L106.073 431.816L134.838 431H135.056C134.916 436.645 144.814 443.121 144.814 443.121C155.351 446.864 156.903 451.094 156.989 453.025Z" fill="#E4E4E4"/>
<path opacity="0.1" d="M156.991 453.168C157.019 453.514 156.98 453.861 156.875 454.194C156.875 454.194 130.189 458.257 124.738 454.194C123.203 453.007 121.413 452.125 119.483 451.606C117.554 451.087 115.527 450.942 113.532 451.18C113.532 451.18 103.2 451.436 101.476 448.329C100.767 447.025 100.946 444.494 101.391 442C105.368 442.363 111.645 443.269 114.109 445.435C117.837 448.714 124.153 451.992 128.021 452.256C131.078 452.427 149.256 452.954 156.991 453.168Z" fill="black"/>
<path opacity="0.1" d="M72 459.122C72 459.122 59.6234 463.436 51.1144 463.979C46.597 464.265 44.2222 461.638 43 459.108C46.156 460.113 50.5266 461.162 52.824 460.201C55.5468 459.049 65.2006 458.315 70.6154 458C71.0237 458.429 71.4891 458.807 72 459.122V459.122Z" fill="black"/>
<path d="M90.8706 101.114C81.011 97.2575 68.3281 84.5149 71.4951 78.5608C72.195 77.0571 72.6128 75.4361 72.7275 73.7795C72.9313 71.5299 72.9613 69.2678 72.8171 67.0136C72.5948 63.3192 72.1533 59.6414 71.4951 56C71.4951 56 102.276 56.6992 100.484 61.2624C99.9609 62.6081 99.8712 64.9311 100.021 67.5248C100.17 70.1184 100.536 73.0729 100.924 75.5613C101.455 78.9668 102 81.5755 102 81.5755C102 81.5755 100.11 84.2292 99.0123 84.3721C97.9143 84.5149 105.018 106.64 90.8706 101.114Z" fill="#E1B79F"/>
<path opacity="0.1" d="M65 440.034L64.7542 440.285C54.987 429.292 43.1744 443 43.1744 443L43 442.705L43.6025 436.486L62.1301 432L64.7542 439.474L65 440.034Z" fill="black"/>
<path opacity="0.1" d="M134 431.902C134 431.902 127.167 431.753 123.523 435.26C119.879 438.767 102.265 436.013 103.024 435.26C103.245 434.878 103.381 434.444 103.419 433.994L105.81 431.902L133.81 431C133.916 431.579 134 431.902 134 431.902Z" fill="black"/>
<path d="M75.9228 343.823C75.4214 345.067 75.0399 346.356 74.7836 347.673C74.1586 351.28 73.9849 354.951 74.2665 358.601C74.5438 363.855 74.2665 399.062 74.2665 399.062C74.2665 399.062 68.3382 408.451 65.0256 411.761C61.713 415.071 71.7708 421.015 71.7708 421.015C73.2697 429.579 64.1862 439.246 64.1862 439.246C54.9528 428.063 43.7858 442 43.7858 442C43.7858 442 37.7151 431.493 36.2012 427.74C34.6873 423.987 42.1294 421.398 44.7451 419.867C47.3607 418.336 44.6102 409.359 44.6102 409.359C44.6102 409.359 42.4067 401.486 39.7836 394.304C37.1605 387.121 42.6766 351.373 42.6766 351.373C42.6766 351.373 42.9614 345.016 43.6434 342.802C43.9837 341.204 44.0521 339.56 43.8457 337.939C43.8008 337.391 43.7483 336.941 43.7108 336.625C43.6734 336.31 43.6434 336.175 43.6434 336.175L43.7483 335.995L47.4956 329C47.4956 329 77.7215 339.417 75.9228 343.823Z" fill="#0275D8"/>
<path d="M134 431.388C134 431.388 127.203 431.244 123.578 434.42C119.953 437.596 102.431 435.118 103.187 434.42C103.942 433.723 103.874 428.568 103.874 428.568C93.5953 414.475 102.363 408.76 102.363 408.76C102.363 408.76 97.7793 386.586 96.9485 378.361C96.367 372.622 95.6495 357.135 95.2644 348.364C95.0982 344.574 95 341.958 95 341.958L103.323 340.298L104.403 340.086L124.658 336C124.658 336 125.217 339.79 125.594 342.891C125.785 344.214 125.889 345.549 125.904 346.886C125.776 348.402 125.904 353.155 125.904 353.155L126.599 367.376C126.15 368.869 125.917 370.419 125.904 371.978C126.047 373.797 128.683 399.731 128.683 399.731C128.683 399.731 133.267 415.211 131.704 416.325C130.141 417.439 134 431.388 134 431.388Z" fill="#0275D8"/>
<path opacity="0.1" d="M99.9248 61.188C99.4031 62.5146 99.3136 64.8047 99.4627 67.3616C95.3487 69.8252 90.6194 71.0847 85.818 70.9956C81.0165 70.9064 76.3377 69.4722 72.3191 66.8577C72.0973 63.2156 71.6568 59.5899 71 56C71 56 101.713 56.6893 99.9248 61.188Z" fill="black"/>
<path d="M112.984 44.848C113.069 51.7013 110.358 58.3066 105.45 63.2107C100.541 68.1148 93.8359 70.916 86.8098 70.9981C79.7836 71.0803 73.0117 68.4366 67.9839 63.6486C62.9561 58.8607 60.0842 52.3207 60 45.4674C60 45.2559 60 45.0595 60 44.848C60 37.9927 62.7919 31.4181 67.7616 26.5707C72.7314 21.7233 79.4717 19 86.5 19C93.5282 19 100.269 21.7233 105.238 26.5707C110.208 31.4181 113 37.9927 113 44.848H112.984Z" fill="#F7C4A7"/>
<path opacity="0.1" d="M90.8706 101.12C81.011 97.2939 68.3281 84.6512 71.4951 78.7438C72.195 77.2518 72.6128 75.6436 72.7275 74L86.2247 85.0838L94.5754 91.9236L100.924 75.7901C101.455 79.169 102 81.7572 102 81.7572C102 81.7572 100.11 84.3902 99.0123 84.5319C97.9143 84.6736 105.018 106.603 90.8706 101.12Z" fill="black"/>
<path d="M127 151.327L115.384 343.024L100.235 344L61 232.846L67.4353 100.881L68.7978 73L86.2407 87.0729L94.8467 94.0073L101.582 77.1667L114.106 87.8896L127 151.327Z" fill="#0275D8"/>
<path opacity="0.1" d="M75.9214 343.277C75.4103 344.48 75.0214 345.727 74.7601 347C63.8089 345.398 53.1726 342.244 43.2063 337.644L43 337.543L43.0688 336.374V335.764L46.8889 329C46.8889 329 77.7551 339.016 75.9214 343.277Z" fill="black"/>
<path opacity="0.1" d="M103 347.05C100.433 347.518 97.8447 347.835 95.2454 348C95.0912 344.258 95 341.676 95 341.676L102.769 340L103 347.05Z" fill="black"/>
<path opacity="0.1" d="M127 342.747C121.172 344.12 112.164 345.664 104.115 344.699L104 340.001L125.984 336C125.984 336 126.566 339.681 127 342.747Z" fill="black"/>
<path opacity="0.1" d="M104 345.881C72.7023 351.167 44.0382 336.012 44.0382 336.012L44.313 330.877C44.313 330.877 45.0229 272.668 43.0535 268.206C41.084 263.743 39.5496 241.144 40.6641 237.693C41.7786 234.242 36.5954 182.142 36.5954 182.142L35.7558 160.999L5 148.639L18.7405 120.301C20.5959 116.328 22.1921 112.243 23.5191 108.068C25.9084 100.706 37 93.4802 37 93.4802C37 93.4802 48.3741 86.2616 52.8702 86.5334C57.3664 86.8053 63.2595 80.1455 63.2595 80.1455C67.6107 69.1741 71.5496 74.1048 71.5496 74.1048C71.5496 74.6334 71.5496 74.1048 71.3359 75.7282C69.8092 87.7718 96.0229 125.828 96.3969 126.507L98.9237 186.657L101.45 262.777L104 345.881Z" fill="black"/>
<path d="M103 345.881C71.7095 351.167 43.0444 336.012 43.0444 336.012L43.3268 330.877C43.3268 330.877 44.0289 272.668 42.0599 268.206C40.0909 263.743 38.5569 241.121 39.6788 237.64C40.8006 234.159 35.5881 182.112 35.5881 182.112L34.741 160.969L4 148.609L17.7373 120.27C19.588 116.299 21.1837 112.216 22.5148 108.046C24.9036 100.706 36.0308 93.4726 36.0308 93.4726C36.0308 93.4726 47.4022 86.254 51.8897 86.5259C56.3772 86.7977 62.2995 80.1455 62.2995 80.1455C66.6573 69.1741 71.4577 74.1048 71.4577 74.1048C71.4577 74.6334 70.9997 74.8599 71.244 75.7282C74.602 87.4093 95.0858 125.828 95.4598 126.507L97.9859 186.657L100.459 262.815L103 345.881Z" fill="white"/>
<path opacity="0.1" d="M96 128C92.4972 126.597 73.9428 106.264 73.9428 106.264V101.637C73.2677 100.112 69.2486 101.042 66 102.109L67.3979 74L68.9865 75.2655C72.4575 87.0521 95.6187 127.321 96 128Z" fill="black"/>
<path d="M96 126C92.6072 124.615 74.676 104.658 74.676 104.658V100.106C74.0236 98.6092 70.1472 99.5225 67 100.57L68.328 73L69.8632 74.2352C73.2483 85.7934 95.6239 125.326 96 126Z" fill="white"/>
<path opacity="0.1" d="M44.6887 227.19C45.1015 227.19 66.087 225 66.087 225C66.087 225 78.7939 249.802 77.9608 255.828C77.1276 261.853 75.619 267.201 70.5078 266.255C65.3965 265.309 43 267 43 267L44.6887 227.19Z" fill="black"/>
<path d="M43.6884 225.191C44.1086 225.191 65.09 223 65.09 223C65.09 223 77.7869 247.857 76.9614 253.82C76.136 259.783 74.6127 265.201 69.5099 264.255C64.4071 263.308 42 265 42 265L43.6884 225.191Z" fill="white"/>
<path d="M58.7853 213C58.7853 213 78.5636 223.63 78.9875 226.865C79.4114 230.1 68.9211 225.448 66.655 224.878C65.1625 224.524 63.6445 224.287 62.115 224.169L47 224.578L58.7853 213Z" fill="#F7C4A7"/>
<path opacity="0.1" d="M90 129C91.1046 129 92 128.105 92 127C92 125.895 91.1046 125 90 125C88.8954 125 88 125.895 88 127C88 128.105 88.8954 129 90 129Z" fill="black"/>
<path d="M90 128C91.1046 128 92 127.105 92 126C92 124.895 91.1046 124 90 124C88.8954 124 88 124.895 88 126C88 127.105 88.8954 128 90 128Z" fill="#3F3D56"/>
<path opacity="0.1" d="M94 218C95.1046 218 96 216.881 96 215.5C96 214.119 95.1046 213 94 213C92.8954 213 92 214.119 92 215.5C92 216.881 92.8954 218 94 218Z" fill="black"/>
<path d="M94 217C95.1046 217 96 216.105 96 215C96 213.895 95.1046 213 94 213C92.8954 213 92 213.895 92 215C92 216.105 92.8954 217 94 217Z" fill="#3F3D56"/>
<path opacity="0.1" d="M92 173C93.1046 173 94 172.105 94 171C94 169.895 93.1046 169 92 169C90.8954 169 90 169.895 90 171C90 172.105 90.8954 173 92 173Z" fill="black"/>
<path d="M92 173C93.1046 173 94 171.881 94 170.5C94 169.119 93.1046 168 92 168C90.8954 168 90 169.119 90 170.5C90 171.881 90.8954 173 92 173Z" fill="#3F3D56"/>
<path d="M139.861 224.275C139.861 224.275 141.316 226.362 139.861 227.299C138.406 228.236 140.004 230.64 140.004 230.64C140.004 230.64 136.373 232.666 137.971 234.503C139.569 236.34 138.556 244.587 138.556 244.587L134.191 251.534C134.191 251.534 134.451 255.987 134.467 262.004C134.467 271.393 133.89 284.591 130.695 290.608L131.122 339.978C131.122 339.978 115.834 345.323 103.037 343.69L101.139 264.468C101.139 264.468 103.907 219.543 104.927 210.926C105.524 206.452 105.768 201.941 105.655 197.432C105.655 197.432 105.22 183.946 103.757 177.695C103.757 177.695 102.175 150.572 102.017 143.066C101.946 139.475 102.143 128.998 102.365 119.035C102.61 108.142 102.887 97.8685 102.887 97.8685L100 76.0297C100 76.0297 102.887 75.7576 103.757 76.8612C104.146 77.2092 104.57 77.5205 105.022 77.791C110.013 81.0113 127.618 90.914 127.618 90.914C127.618 90.914 137.362 94.618 139.695 99.9247C142.028 105.231 143.65 108.996 144.781 110.508C145.912 112.02 146.529 119.125 146.529 119.125C146.529 119.125 149.882 132.203 152.5 134.418C155.118 136.633 157 150.693 157 150.693L133.866 168.079C133.866 168.079 131.834 197.001 131.399 198.12C130.964 199.239 139.861 224.275 139.861 224.275Z" fill="white"/>
<path d="M140.095 223.947C140.095 223.947 141.519 226.039 140.095 226.979C138.672 227.919 140.228 230.33 140.228 230.33C140.228 230.33 136.657 232.361 138.228 234.203C139.8 236.045 138.804 244.315 138.804 244.315L134.525 251.281C134.525 251.281 134.782 255.746 134.805 261.779C134.805 271.194 134.237 284.428 131.094 290.462L131.522 339.967C131.522 339.967 116.485 345.326 103.898 343.689L102.038 264.25C102.038 264.25 104.753 219.202 105.765 210.561C106.353 206.075 106.589 201.552 106.473 197.031C106.473 197.031 106.045 183.508 104.613 177.239C104.613 177.239 103.057 150.042 102.894 142.515C102.824 138.915 103.018 128.409 103.236 118.418C103.477 107.496 103.75 97.1943 103.75 97.1943L100 75C100 75 103.75 75 104.613 76.1294C104.993 76.4824 105.41 76.795 105.858 77.0618V77.0618C110.759 80.2909 128.076 90.2207 128.076 90.2207C128.076 90.2207 137.637 93.9349 139.971 99.2561C142.305 104.577 143.861 108.352 144.973 109.868C146.085 111.384 146.692 118.509 146.692 118.509C146.692 118.509 149.991 131.623 152.566 133.844C155.141 136.065 157 150.163 157 150.163L134.245 167.598C134.245 167.598 132.246 196.599 131.81 197.721C131.375 198.842 140.095 223.947 140.095 223.947Z" fill="white"/>
<path opacity="0.1" d="M113.75 103.707L115.942 109.488L104.44 120C104.696 109.181 104.986 98.9768 104.986 98.9768L101 77C101 77 104.986 77 105.903 78.1187C106.307 78.4684 106.75 78.778 107.226 79.0422V79.0422L117 104.638L113.75 103.707Z" fill="black"/>
<path d="M112.704 102.339L114.888 108.246L103.436 119C103.683 107.931 103.979 97.4916 103.979 97.4916L100 75C100 75 103.979 75 104.886 76.1445C105.29 76.5001 105.731 76.8167 106.204 77.0894V77.0894L116 103.299L112.704 102.339Z" fill="white"/>
<path opacity="0.1" d="M112.984 44.7514C112.988 47.4629 112.548 50.1578 111.684 52.7358C111.538 52.7594 111.389 52.7543 111.245 52.7207C111.101 52.6871 110.966 52.6257 110.847 52.5401C110.638 45.7674 107.215 39.401 102.995 33.9903C101.808 32.3584 100.371 30.9119 98.7355 29.7009C97.0794 28.4931 95.0202 27.9272 92.9585 28.1131C90.6353 28.4216 88.5831 29.9568 86.2367 30.1524C83.1391 30.4008 80.3667 28.3163 77.2923 28.2184C76.0423 28.2285 74.8089 28.4983 73.6749 29.0097C72.5409 29.5211 71.5326 30.2622 70.7177 31.1834C69.1011 33.0363 67.9009 35.1971 67.1942 37.5272C65.9766 41.0629 65.3135 44.7565 65.2272 48.484C65.1885 50.591 64.9794 53.2324 62.9659 54C63.1183 52.4515 62.9375 50.8891 62.4348 49.4122C61.9322 47.9353 61.1189 46.5761 60.0465 45.4212L60 45.3685C60 45.1578 60 44.9622 60 44.7514C60 37.9217 62.7919 31.3717 67.7616 26.5424C72.7314 21.7131 79.4717 19 86.5 19C93.5282 19 100.269 21.7131 105.238 26.5424C110.208 31.3717 113 37.9217 113 44.7514H112.984Z" fill="black"/>
<path d="M97.5233 3.68662C93.5024 1.84687 88.929 1.49891 84.6629 2.70816C82.5195 3.32533 80.4999 4.32636 78.3255 4.83063C73.6828 5.92197 68.2662 4.74032 64.2812 7.38211C62.0681 8.8874 60.7372 11.2658 59.4992 13.5839L56.404 19.3115C54.7171 22.4501 53.0148 25.6413 52.3106 29.0959C51.6065 32.5506 52.0321 36.4192 54.2838 39.204C55.9165 41.2211 58.3462 42.4931 60.1259 44.3973C61.1951 45.5582 62.0057 46.9218 62.5064 48.4024C63.0071 49.883 63.1872 51.4484 63.0354 53C65.0473 52.2474 65.2484 49.5905 65.2949 47.4831C65.3818 43.7551 66.0444 40.061 67.2603 36.5246C67.9665 34.1941 69.1657 32.0329 70.7811 30.1798C71.595 29.2574 72.6022 28.515 73.7352 28.0023C74.8683 27.4895 76.1009 27.2183 77.3505 27.2068C80.4457 27.3122 83.2236 29.397 86.2878 29.1411C88.6092 28.9529 90.6675 27.4176 93.0043 27.109C95.0648 26.9193 97.1237 27.4858 98.7768 28.697C100.413 29.9044 101.846 31.3517 103.025 32.9871C107.25 38.4062 110.678 44.7435 110.879 51.5399C111.753 52.157 113.015 51.3442 113.448 50.3808C113.881 49.4174 113.897 48.2884 114.446 47.3702C115.081 46.309 116.295 45.737 117.247 44.9392C119.661 42.9145 120.265 39.505 120.172 36.4117C120.079 33.3183 119.46 30.1798 120.064 27.1391C120.428 25.28 121.248 23.5264 121.697 21.6824C122.145 19.8384 122.2 17.7686 121.139 16.1805C119.592 13.8548 116.334 13.3882 113.494 13.1699C110.268 12.899 107.381 13.2452 105.323 10.6034C104.355 9.22661 103.267 7.9324 102.073 6.73482C101.648 6.33592 97.5233 3.8522 97.5233 3.68662Z" fill="black"/>
<path opacity="0.1" d="M13.5886 162.706L5.54895 148L3 170.694C3 170.694 4.41692 180.777 4.13199 182.323C3.84706 183.869 9.93835 197.73 9.93835 197.73C9.93835 197.73 30.0605 233.18 38.2772 235L66 215.382L58.6381 206.137C58.6381 206.137 56.0891 205.155 55.4499 206.137C55.4499 206.137 41.7733 182.879 40.3641 181.204C38.9549 179.528 39.2244 176.155 39.2244 176.155C39.2244 176.155 37.099 173.916 37.8074 171.814C38.5159 169.712 33.7415 162.431 33.7415 162.431L38.1309 158.372L13.5886 162.706Z" fill="black"/>
<path d="M5.74509 147L3.58752 148.67L1 171.19C1 171.19 2.43836 181.195 2.14912 182.729C1.85988 184.263 8.05119 198.017 8.05119 198.017C8.05119 198.017 28.4699 233.194 36.8109 235L65 215.533L57.5189 206.359C57.5189 206.359 54.9313 205.385 54.2825 206.359C54.2825 206.359 40.4069 183.281 38.9685 181.618C37.5301 179.956 37.8193 176.608 37.8193 176.608C37.8193 176.608 35.6618 174.386 36.381 172.3C37.1002 170.215 32.2065 162.99 32.2065 162.99L36.6624 158.963L5.74509 147Z" fill="white"/>
<path opacity="0.1" d="M138.027 234.671C139.562 236.537 138.595 244.924 138.595 244.924L134.356 251.936C134.356 251.936 134.61 256.467 134.625 262.581L127.5 264.808C126.855 265.009 126.171 265.053 125.506 264.936C124.84 264.819 124.212 264.545 123.674 264.136C123.136 263.727 122.704 263.196 122.413 262.586C122.122 261.976 121.981 261.305 122.002 260.63L123.238 221L139.862 227.352C138.449 228.335 140 230.746 140 230.746C140 230.746 136.476 232.804 138.027 234.671Z" fill="black"/>
<path d="M139.025 234.357C140.562 236.172 139.594 244.361 139.594 244.361L135.367 251.216C135.367 251.216 135.621 255.633 135.644 261.602L128.381 263.815C127.751 264.008 127.082 264.051 126.431 263.94C125.78 263.829 125.165 263.568 124.639 263.178C124.112 262.788 123.689 262.281 123.404 261.699C123.119 261.117 122.982 260.477 123.002 259.833L124.239 221L140.869 227.217C139.448 228.177 141 230.532 141 230.532C141 230.532 137.473 232.534 139.025 234.357Z" fill="white"/>
<path d="M144 215.159C144 215.159 142.812 222.341 139.838 222.762C136.864 223.182 135.531 234.38 132.565 233.99C129.599 233.6 131.563 223.572 131.668 221.63C131.773 219.687 128.435 211.641 130.924 209.812C133.413 207.984 141.333 209.812 141.333 209.812L144 215.159Z" fill="#F7C4A7"/>
<path opacity="0.1" d="M149.798 160.643L155.015 150C155.015 150 157.1 158.112 157.1 162.445C157.1 166.778 160.006 167.204 160.006 167.204C160.006 167.204 163.19 171.005 161.511 173.78C159.832 176.555 159.162 183.428 159.162 183.428C159.162 183.428 159.712 196.572 157.22 198.389C154.729 200.206 154.171 204.547 154.171 204.547C154.171 204.547 149.602 212.796 149.745 214.757C149.888 216.719 143.376 230 143.376 230C143.376 230 146.561 213.495 128.004 206.364C128.004 206.364 127.861 200.769 129.246 199.233C130.631 197.697 132.792 196.952 131.437 189.228C130.082 181.504 131.045 172.191 131.045 170.329C131.045 168.466 135.201 156.857 135.201 156.857L149.798 160.643Z" fill="black"/>
<path d="M152.102 149L156.803 150.511C156.803 150.511 158.951 158.571 158.951 162.876C158.951 167.182 161.945 167.605 161.945 167.605C161.945 167.605 165.226 171.382 163.496 174.139C161.767 176.896 161.069 183.725 161.069 183.725C161.069 183.725 161.643 196.786 159.075 198.591C156.508 200.396 155.973 204.71 155.973 204.71C155.973 204.71 151.265 212.906 151.412 214.855C151.559 216.803 144.842 230 144.842 230C144.842 230 148.123 213.601 129.004 206.515C129.004 206.515 128.864 200.955 130.291 199.43C131.718 197.904 133.945 197.163 132.548 189.489C131.152 181.814 132.145 172.56 132.145 170.71C132.145 168.859 136.427 157.324 136.427 157.324L152.102 149Z" fill="white"/>
<path opacity="0.1" d="M49 423.176C49 423.176 56.8936 417.273 62.0743 421.562C67.255 425.851 49 423.176 49 423.176Z" fill="black"/>
<path opacity="0.1" d="M107 409.042C107 409.042 113.991 408.184 119.861 414.217C125.731 420.249 107 409.042 107 409.042Z" fill="black"/>
<g opacity="0.1">
<path opacity="0.1" d="M116.905 43.3695C115.959 44.178 114.743 44.7447 114.113 45.8101C113.574 46.7244 113.559 47.8577 113.128 48.8325C112.697 49.8072 111.444 50.6156 110.567 49.996C110.367 43.1958 106.96 36.811 102.768 31.3708C101.595 29.7313 100.171 28.2809 98.5449 27.0715C96.8997 25.853 94.8508 25.2817 92.7993 25.4697C90.4918 25.7795 88.4612 27.3209 86.1306 27.5173C83.054 27.7667 80.2927 25.6737 77.2391 25.5755C75.9985 25.5847 74.7742 25.8552 73.6491 26.3688C72.5239 26.8823 71.5239 27.627 70.7166 28.5525C69.1109 30.4129 67.9189 32.5825 67.217 34.9221C66.0083 38.4723 65.3497 42.1809 65.2633 45.9234C65.2171 48.0315 65.0172 50.661 63.0327 51.4468C63.0789 52.0075 63.0789 52.571 63.0327 53.1317C65.0402 52.3762 65.2402 49.7089 65.2864 47.5933C65.3728 43.8507 66.0313 40.1422 67.24 36.5919C67.9419 34.2523 69.134 32.0827 70.7397 30.2223C71.5476 29.297 72.5475 28.5519 73.6724 28.0372C74.7974 27.5225 76.0213 27.2499 77.2622 27.2377C80.3389 27.3435 83.1078 29.4365 86.1537 29.1796C88.4612 28.9907 90.5072 27.4493 92.8223 27.1395C94.8728 26.9494 96.9218 27.518 98.568 28.7338C100.194 29.9459 101.619 31.3989 102.791 33.0407C106.983 38.4809 110.39 44.8429 110.59 51.6659C111.467 52.2855 112.721 51.4694 113.151 50.5023C113.582 49.5351 113.597 48.4018 114.136 47.4799C114.767 46.4146 115.982 45.8403 116.928 45.0394C119.328 43.0069 119.928 39.5841 119.835 36.4786C119.835 36.3804 119.835 36.2897 119.835 36.1915C119.681 38.8965 118.951 41.6393 116.905 43.3695Z" fill="black"/>
<path opacity="0.1" d="M60.1175 42.8408C58.3561 40.9292 55.9409 39.6447 54.318 37.6197C52.9472 35.8322 52.1662 33.6753 52.0798 31.439C51.8384 34.2353 52.6332 37.0232 54.318 39.2895C55.9409 41.3145 58.3561 42.5914 60.1175 44.5031C61.8188 46.3719 62.8413 48.7423 63.0249 51.2429C63.1406 49.7223 62.9427 48.1944 62.4431 46.7507C61.9435 45.307 61.1525 43.9771 60.1175 42.8408Z" fill="black"/>
<path opacity="0.1" d="M121.327 20.022C120.873 21.8732 120.066 23.6337 119.697 25.5C119.475 26.762 119.395 28.0441 119.458 29.3233C119.484 28.6007 119.563 27.8809 119.697 27.1699C120.066 25.3035 120.873 23.543 121.327 21.6918C121.588 20.6702 121.674 19.613 121.581 18.5637C121.532 19.0551 121.447 19.5424 121.327 20.022V20.022Z" fill="black"/>
</g>
<path d="M310.355 204.869H224.609V304.177H310.355V204.869Z" fill="#CCCCCC"/>
<path d="M268.613 425.471L267.14 446.33C267.073 447.274 267.202 448.222 267.518 449.111C267.834 449.999 268.33 450.807 268.972 451.48C269.614 452.154 270.388 452.678 271.242 453.016C272.095 453.354 273.009 453.5 273.921 453.443L284.265 452.794C284.745 452.763 285.211 452.624 285.633 452.386C286.055 452.148 286.42 451.817 286.704 451.415C286.988 451.014 287.183 450.553 287.276 450.065C287.368 449.577 287.356 449.074 287.239 448.592L281.497 424.804L268.613 425.471Z" fill="#E4E4E4"/>
<path d="M355.134 437.806C367.308 440.756 376.005 444.948 381.718 450.622C383.752 452.628 386.414 453.81 389.219 453.953C392.802 454.148 395.732 453.732 397.934 452.714H397.934C398.498 452.456 398.985 452.047 399.345 451.529C399.705 451.011 399.924 450.402 399.98 449.766C400.047 449.12 399.945 448.468 399.687 447.876C399.428 447.285 399.021 446.776 398.508 446.402L369.635 425.124L357.371 430.205L354.51 433.169C354.201 433.49 353.967 433.88 353.828 434.311C353.689 434.741 353.648 435.199 353.708 435.648C353.768 436.097 353.929 436.526 354.176 436.901C354.424 437.275 354.752 437.585 355.134 437.806H355.134Z" fill="#E4E4E4"/>
<path d="M317.669 97.2408L235.141 96.4494C235.348 83.999 238.145 71.7731 244.258 60.8328C248.273 53.6475 248.187 45.8278 247.219 39.2399C245.726 29.0733 249.198 18.6715 256.914 12.1997C262.81 7.24536 270.252 4.69504 277.838 5.02911L279.44 5.09826C284.66 5.32295 289.742 6.90229 294.219 9.69126C298.696 12.4802 302.425 16.3895 305.063 21.06C307.744 26.0461 308.826 31.7861 308.151 37.4505C307.628 42.7802 308.879 48.1642 311.807 53.5996C316.858 65.5347 317.952 80.8073 317.669 97.2408Z" fill="#2F2E41"/>
<path d="M372.885 426.234L356.688 430.61L277.815 252.635L282.745 426.234H266.547C249.24 344.56 217.992 250.3 232.04 220.541L315.843 215.435L372.885 426.234Z" fill="#0275D8"/>
<path d="M277.111 67.3651C289.168 67.3651 298.942 57.2416 298.942 44.7535C298.942 32.2654 289.168 22.1418 277.111 22.1418C265.054 22.1418 255.28 32.2654 255.28 44.7535C255.28 57.2416 265.054 67.3651 277.111 67.3651Z" fill="#F7C4A7"/>
<path d="M296.125 86.3297L260.209 84.1415C263.729 75.774 265.135 67.7164 263.731 60.071H290.491C290.43 65.9412 293.251 76.0955 296.125 86.3297Z" fill="#F1C1A6"/>
<path d="M318.66 221.999L239.787 227.835L247.886 83.0476L261.618 79.0357L277.111 82.6827L292.603 74.6589L302.463 78.3067L318.66 221.999Z" fill="#0275D8"/>
<path d="M253.167 326.305L199.294 313.54C215.313 258.519 244.173 132.646 234.857 87.7885L263.026 74.6592L253.167 326.305Z" fill="white"/>
<path d="M227.111 167.294L206.688 154.165L224.105 101.33C226.048 95.8782 229.768 91.3007 234.624 88.3891L240.491 84.8708L236.97 138.118L227.111 167.294Z" fill="#FFFEFE"/>
<path d="M365.491 314.27C348.487 324.459 305.984 330.139 287.322 323.023C285.949 273.31 283.256 132.692 291.899 73.2004L322.885 86.3298L320.068 125.718C305.255 159.412 348.271 276.77 365.491 314.27Z" fill="white"/>
<path d="M363.026 160.729L344.012 154.165L318.66 124.258L322.886 86.3293L365.139 147.6L363.026 160.729Z" fill="#FFFEFE"/>
<path d="M303.436 189.12C303.747 190.534 304.587 191.763 305.772 192.537C306.956 193.31 308.388 193.566 309.754 193.248L325.895 189.462L323.562 178.791L307.421 182.576C306.055 182.897 304.868 183.766 304.12 184.994C303.373 186.221 303.127 187.705 303.436 189.12V189.12Z" fill="#F7C4A7"/>
<path d="M296.125 38.918C283.999 33.7536 272.023 33.3799 260.209 38.1886L255.28 19.9534H300.35L296.125 38.918Z" fill="#2F2E41"/>
<path d="M317.956 176.776L327.11 194.282C342.509 189.834 355.854 175.81 368.66 159.27L365.139 147.6L343.308 153.435L317.956 176.776Z" fill="white"/>
<path d="M311.266 140.671H308.449C308.449 99.4051 300.246 70.6476 292.252 70.6476L291.547 67.73C298.716 67.73 303.287 79.6986 305.859 89.7394C309.346 103.351 311.266 121.439 311.266 140.671Z" fill="#3F3D56"/>
<path d="M246.477 130.459H243.66C243.66 92.6659 251.92 69.1885 264.083 69.1885L263.378 72.1061C254.966 72.1061 246.477 90.1493 246.477 130.459Z" fill="#3F3D56"/>
<path d="M309.857 148.694C313.747 148.694 316.899 145.428 316.899 141.4C316.899 137.371 313.747 134.106 309.857 134.106C305.968 134.106 302.815 137.371 302.815 141.4C302.815 145.428 305.968 148.694 309.857 148.694Z" fill="#3F3D56"/>
<path d="M235.209 147.965H232.393C232.393 137.507 238.079 129 245.069 129V131.918C239.632 131.918 235.209 139.116 235.209 147.965Z" fill="#3F3D56"/>
<path d="M257.745 147.965H254.928C254.928 139.116 250.505 131.918 245.069 131.918V129C252.058 129 257.745 137.508 257.745 147.965Z" fill="#3F3D56"/>
<path d="M256.336 151.612C257.892 151.612 259.153 150.305 259.153 148.694C259.153 147.083 257.892 145.776 256.336 145.776C254.78 145.776 253.519 147.083 253.519 148.694C253.519 150.305 254.78 151.612 256.336 151.612Z" fill="#3F3D56"/>
<path d="M233.801 151.612C235.357 151.612 236.618 150.305 236.618 148.694C236.618 147.083 235.357 145.776 233.801 145.776C232.245 145.776 230.984 147.083 230.984 148.694C230.984 150.305 232.245 151.612 233.801 151.612Z" fill="#3F3D56"/>
<path d="M198.59 121.865L216.165 125.115L256.336 184.277L234.995 179.075L198.59 121.865Z" fill="#6C63FF"/>
<path d="M195.472 121.14C195.205 121.145 194.943 121.223 194.714 121.368C194.486 121.513 194.299 121.719 194.174 121.964C194.048 122.209 193.989 122.485 194.002 122.762C194.014 123.039 194.099 123.307 194.246 123.539L231.796 182.549C232.005 182.879 232.329 183.113 232.7 183.203L250.171 187.461C250.465 187.532 250.774 187.51 251.056 187.396C251.338 187.282 251.579 187.081 251.749 186.822C251.918 186.562 252.008 186.255 252.005 185.942C252.002 185.628 251.907 185.323 251.733 185.067L210.506 124.35C210.394 124.185 210.252 124.044 210.087 123.936C209.923 123.827 209.74 123.753 209.548 123.718L195.754 121.167C195.661 121.149 195.567 121.141 195.472 121.14V121.14Z" fill="#3F3D56"/>
<path d="M218.896 163.332L219.94 174.219L236.408 172.526C237.802 172.383 239.084 171.672 239.971 170.55C240.859 169.428 241.28 167.986 241.142 166.542C241.004 165.098 240.317 163.771 239.234 162.851C238.15 161.931 236.758 161.495 235.364 161.639L218.896 163.332Z" fill="#F7C4A7"/>
<path d="M204.576 162.07C204.6 165.783 206.039 169.335 208.581 171.953C211.122 174.571 214.56 176.042 218.144 176.047H220.852L222.824 159.031L206.501 152.944L204.576 162.07Z" fill="white"/>
<defs>
<linearGradient id="paint0_linear" x1="145804" y1="408926" x2="145804" y2="122793" gradientUnits="userSpaceOnUse">
<stop stop-color="#808080" stop-opacity="0.25"/>
<stop offset="0.54" stop-color="#808080" stop-opacity="0.12"/>
<stop offset="1" stop-color="#808080" stop-opacity="0.1"/>
</linearGradient>
</defs>
</svg>
