<svg width="151" height="321" viewBox="0 0 151 321" fill="none" xmlns="http://www.w3.org/2000/svg">
<path d="M85.2893 142.891H22.437V213.888H85.2893V142.891Z" fill="#CCCCCC"/>
<path d="M54.6919 300.604L53.6121 315.517C53.5633 316.192 53.6578 316.869 53.8895 317.504C54.1211 318.14 54.4845 318.717 54.9553 319.199C55.4261 319.68 55.9933 320.055 56.619 320.297C57.2447 320.539 57.9144 320.642 58.5831 320.602L66.1653 320.138C66.5167 320.116 66.859 320.017 67.168 319.846C67.4769 319.676 67.745 319.439 67.9531 319.152C68.1612 318.866 68.3042 318.536 68.372 318.187C68.4398 317.838 68.4307 317.479 68.3454 317.134L64.1366 300.127L54.6919 300.604Z" fill="#E4E4E4"/>
<path d="M118.113 309.422C127.036 311.531 133.411 314.529 137.599 318.585C139.09 320.019 141.041 320.864 143.098 320.966C145.724 321.106 147.871 320.809 149.485 320.08H149.486C149.899 319.896 150.256 319.604 150.52 319.233C150.783 318.863 150.944 318.428 150.985 317.973C151.034 317.511 150.96 317.045 150.77 316.622C150.58 316.199 150.282 315.835 149.906 315.568L128.742 300.356L119.753 303.989L117.656 306.107C117.429 306.337 117.257 306.616 117.155 306.924C117.053 307.231 117.023 307.558 117.067 307.88C117.112 308.201 117.229 308.508 117.411 308.775C117.592 309.043 117.832 309.264 118.113 309.422H118.113Z" fill="#E4E4E4"/>
<path d="M90.6508 65.945L30.1565 65.3792C30.3086 56.4782 32.3586 47.7376 36.8398 39.9161C39.7829 34.7792 39.7193 29.1887 39.01 24.4788C37.9155 17.2106 40.4607 9.77402 46.1164 5.14724C50.4385 1.60526 55.8935 -0.218021 61.4539 0.0208136L62.6285 0.0702505C66.4547 0.230885 70.1797 1.35999 73.4614 3.35389C76.7431 5.34779 79.4764 8.14259 81.4102 11.4817C83.3758 15.0463 84.1685 19.1499 83.6737 23.1995C83.2902 27.0099 84.2077 30.8591 86.3538 34.7449C90.0563 43.2776 90.8581 54.1963 90.6508 65.945Z" fill="#2F2E41"/>
<path d="M131.125 301.149L119.252 304.278L61.4372 177.04L65.0506 301.149H53.1779C40.4912 242.759 17.5861 175.37 27.884 154.095L89.3121 150.445L131.125 301.149Z" fill="#0275D8"/>
<path d="M60.921 44.5862C69.7588 44.5862 76.9233 37.3487 76.9233 28.4207C76.9233 19.4927 69.7588 12.2551 60.921 12.2551C52.0832 12.2551 44.9187 19.4927 44.9187 28.4207C44.9187 37.3487 52.0832 44.5862 60.921 44.5862Z" fill="#F7C4A7"/>
<path d="M74.8586 58.1445L48.5322 56.5801C51.1123 50.598 52.1429 44.8374 51.1132 39.3716H70.729C70.6845 43.5683 72.7518 50.8278 74.8586 58.1445Z" fill="#F1C1A6"/>
<path d="M91.3769 155.138L33.5625 159.31L39.4986 55.798L49.5647 52.9299L60.921 55.5371L72.2772 49.8008L79.5041 52.4086L91.3769 155.138Z" fill="#0275D8"/>
<path d="M43.3701 229.708L3.88062 220.582C15.6229 181.246 36.7772 91.2565 29.9489 59.1872L50.597 49.8008L43.3701 229.708Z" fill="white"/>
<path d="M24.2707 116.027L9.30078 106.641L22.0674 68.8684C23.4913 64.9707 26.2187 61.6982 29.7779 59.6166L34.0785 57.1013L31.4975 95.1686L24.2707 116.027Z" fill="#FFFEFE"/>
<path d="M125.704 221.104C113.241 228.388 82.0855 232.449 68.4059 227.361C67.3993 191.821 65.4252 91.2895 71.7613 48.7581L94.4742 58.1445L92.4094 86.3039C81.5507 110.393 113.082 194.294 125.704 221.104Z" fill="white"/>
<path d="M123.898 111.334L109.96 106.641L91.377 85.2604L94.4744 58.144L125.446 101.948L123.898 111.334Z" fill="#FFFEFE"/>
<path d="M80.2178 131.632C80.4459 132.643 81.0615 133.521 81.9296 134.074C82.7978 134.627 83.8477 134.81 84.849 134.583L96.6801 131.876L94.9702 124.247L83.1389 126.953C82.1375 127.182 81.2671 127.804 80.7194 128.681C80.1716 129.559 79.9912 130.62 80.2178 131.632V131.632Z" fill="#F7C4A7"/>
<path d="M74.8585 24.2486C65.9702 20.5565 57.1917 20.2893 48.5321 23.7272L44.9187 10.6904H77.9557L74.8585 24.2486Z" fill="#2F2E41"/>
<path d="M90.8606 122.807L97.5712 135.322C108.858 132.142 118.641 122.116 128.027 110.291L125.446 101.948L109.444 106.12L90.8606 122.807Z" fill="white"/>
<path d="M85.9569 96.9941H83.892C83.892 67.4924 77.8791 46.9331 72.0194 46.9331L71.5032 44.8472C76.7582 44.8472 80.1085 53.4038 81.9936 60.5822C84.5494 70.3136 85.9569 83.2449 85.9569 96.9941Z" fill="#3F3D56"/>
<path d="M38.4662 89.6931H36.4014C36.4014 62.6742 42.4559 45.8896 51.3713 45.8896L50.855 47.9755C44.6884 47.9755 38.4662 60.875 38.4662 89.6931Z" fill="#3F3D56"/>
<path d="M84.9245 102.73C87.7754 102.73 90.0865 100.395 90.0865 97.5152C90.0865 94.6352 87.7754 92.3005 84.9245 92.3005C82.0736 92.3005 79.7625 94.6352 79.7625 97.5152C79.7625 100.395 82.0736 102.73 84.9245 102.73Z" fill="#3F3D56"/>
<path d="M30.2069 102.209H28.1421C28.1421 94.7326 32.3103 88.6504 37.4337 88.6504V90.7363C33.4488 90.7363 30.2069 95.8827 30.2069 102.209Z" fill="#3F3D56"/>
<path d="M46.7255 102.209H44.6607C44.6607 95.8827 41.4188 90.7363 37.4338 90.7363V88.6504C42.5573 88.6504 46.7255 94.7326 46.7255 102.209Z" fill="#3F3D56"/>
<path d="M45.693 104.816C46.8334 104.816 47.7578 103.882 47.7578 102.73C47.7578 101.578 46.8334 100.644 45.693 100.644C44.5526 100.644 43.6282 101.578 43.6282 102.73C43.6282 103.882 44.5526 104.816 45.693 104.816Z" fill="#3F3D56"/>
<path d="M29.1744 104.816C30.3148 104.816 31.2392 103.882 31.2392 102.73C31.2392 101.578 30.3148 100.644 29.1744 100.644C28.0341 100.644 27.1096 101.578 27.1096 102.73C27.1096 103.882 28.0341 104.816 29.1744 104.816Z" fill="#3F3D56"/>
<path d="M3.36426 83.5491L16.2473 85.8729L45.693 128.169L30.0496 124.45L3.36426 83.5491Z" fill="#6C63FF"/>
<path d="M1.07925 83.0312C0.882936 83.0342 0.691018 83.0904 0.523575 83.194C0.356133 83.2976 0.219326 83.4447 0.127435 83.62C0.0355446 83.7952 -0.00805501 83.9922 0.00122441 84.1904C0.0105038 84.3885 0.0723205 84.5804 0.180183 84.7462L27.7045 126.934C27.8581 127.169 28.0954 127.337 28.3674 127.401L41.1737 130.445C41.3896 130.496 41.6159 130.48 41.8225 130.399C42.0291 130.317 42.2062 130.174 42.3305 129.988C42.4547 129.803 42.5202 129.583 42.5181 129.359C42.5161 129.135 42.4466 128.917 42.319 128.734L12.099 85.3262C12.017 85.2079 11.9128 85.1071 11.7923 85.0296C11.6717 84.952 11.5372 84.8992 11.3965 84.8742L1.28569 83.0501C1.21755 83.0377 1.14847 83.0314 1.07925 83.0312V83.0312Z" fill="#3F3D56"/>
<path d="M18.249 113.195L19.014 120.979L31.0853 119.768C32.1071 119.666 33.0467 119.158 33.6975 118.355C34.3483 117.553 34.6569 116.522 34.5555 115.49C34.4541 114.458 33.951 113.509 33.1568 112.851C32.3626 112.194 31.3423 111.882 30.3206 111.984L18.249 113.195Z" fill="#F7C4A7"/>
<path d="M7.7522 112.293C7.76973 114.947 8.82493 117.487 10.6879 119.358C12.5508 121.23 15.0705 122.282 17.6979 122.285H19.6828L21.1279 110.12L9.1632 105.769L7.7522 112.293Z" fill="white"/>
</svg>
