<svg width="500" height="300" viewBox="0 0 500 300" fill="none" xmlns="http://www.w3.org/2000/svg">
<path d="M237.75 228.254C365.864 228.254 469.72 222.146 469.72 214.611C469.72 207.076 365.864 200.967 237.75 200.967C109.637 200.967 5.78003 207.076 5.78003 214.611C5.78003 222.146 109.637 228.254 237.75 228.254Z" fill="#F2F2F2"/>
<path d="M228.859 65.2495C191.065 65.2495 163.929 86.7921 163.929 137.058C163.929 194.026 191.065 209.106 228.859 209.106C266.653 209.106 295.406 192.59 295.406 137.058C295.406 77.6963 266.653 65.2495 228.859 65.2495ZM229.107 190.196C202.93 190.196 189.254 176.552 189.254 137.095C189.254 102.279 203.49 83.9197 229.667 83.9197C255.845 83.9197 270.08 95.9795 270.08 137.095C270.08 175.557 255.285 190.196 229.107 190.196Z" fill="#2F2E41"/>
<path d="M141.298 169.372H125.671V128.49C125.671 126.319 124.701 124.236 122.972 122.701C121.244 121.165 118.9 120.303 116.456 120.303H112.795C111.584 120.303 110.386 120.514 109.268 120.926C108.15 121.337 107.134 121.94 106.278 122.701C105.422 123.461 104.744 124.363 104.281 125.357C103.817 126.35 103.579 127.415 103.579 128.49V169.372H59.5025C58.5958 169.372 57.7044 169.164 56.9149 168.767C56.1254 168.371 55.4646 167.8 54.9966 167.11C54.5286 166.42 54.2692 165.635 54.2437 164.829C54.2182 164.024 54.4274 163.227 54.851 162.514L101.501 84.0709C102.083 83.0929 102.435 82.0204 102.537 80.918C102.64 79.8156 102.489 78.7063 102.095 77.657C101.702 76.6077 101.073 75.6401 100.247 74.8127C99.4203 73.9853 98.4139 73.3152 97.2881 72.8429L94.5342 71.6875C92.3959 70.7904 89.9512 70.6579 87.706 71.3175C85.4608 71.9771 83.5869 73.3783 82.4721 75.2311L25.5761 169.791C24.6072 171.402 24.1003 173.199 24.1003 175.025C24.1003 176.483 24.4236 177.927 25.0515 179.274C25.6795 180.621 26.6 181.844 27.7603 182.875C28.9207 183.906 30.2982 184.724 31.8143 185.282C33.3304 185.84 34.9553 186.127 36.5963 186.127H103.579V211.978C103.579 213.267 103.865 214.543 104.42 215.734C104.975 216.924 105.789 218.006 106.814 218.917C107.84 219.829 109.058 220.552 110.398 221.045C111.738 221.538 113.175 221.792 114.625 221.792C116.076 221.792 117.512 221.538 118.852 221.045C120.193 220.552 121.41 219.829 122.436 218.917C123.462 218.006 124.276 216.924 124.831 215.734C125.386 214.543 125.671 213.267 125.671 211.978V186.127H141.298C143.799 186.127 146.197 185.244 147.966 183.673C149.734 182.102 150.727 179.971 150.727 177.749C150.727 175.527 149.734 173.397 147.966 171.825C146.197 170.254 143.799 169.372 141.298 169.372Z" fill="#0275D8"/>
<path d="M430.654 169.372H415.028V128.49C415.028 126.319 414.057 124.236 412.329 122.701C410.601 121.165 408.257 120.303 405.813 120.303H402.151C400.941 120.303 399.742 120.514 398.624 120.926C397.506 121.337 396.49 121.94 395.635 122.701C394.779 123.461 394.1 124.363 393.637 125.357C393.174 126.35 392.936 127.415 392.936 128.49V169.372H348.859C347.952 169.372 347.061 169.164 346.271 168.767C345.482 168.371 344.821 167.8 344.353 167.11C343.885 166.42 343.626 165.635 343.6 164.829C343.575 164.024 343.784 163.227 344.207 162.514L390.858 84.0709C391.439 83.093 391.792 82.0204 391.894 80.918C391.996 79.8157 391.846 78.7063 391.452 77.657C391.058 76.6077 390.429 75.6401 389.603 74.8127C388.777 73.9853 387.77 73.3152 386.645 72.8429L383.891 71.6875C381.752 70.7904 379.308 70.6579 377.062 71.3175C374.817 71.9771 372.943 73.3783 371.829 75.2311L314.933 169.791C313.964 171.402 313.457 173.199 313.457 175.025C313.457 177.97 314.773 180.793 317.117 182.875C319.46 184.957 322.639 186.127 325.953 186.127H392.936V211.978C392.936 214.581 394.099 217.077 396.171 218.917C398.242 220.758 401.052 221.792 403.982 221.792C406.911 221.792 409.721 220.758 411.793 218.917C413.864 217.077 415.028 214.581 415.028 211.978V186.127H430.654C433.155 186.127 435.554 185.244 437.322 183.673C439.09 182.102 440.084 179.971 440.084 177.749C440.084 175.527 439.09 173.397 437.322 171.825C435.554 170.254 433.155 169.372 430.654 169.372Z" fill="#0275D8"/>
<path d="M145.609 164.585H129.982V123.703C129.982 122.628 129.744 121.563 129.281 120.57C128.818 119.576 128.139 118.674 127.283 117.914C126.427 117.153 125.412 116.55 124.293 116.139C123.175 115.727 121.977 115.516 120.767 115.516H117.105C114.661 115.516 112.317 116.378 110.589 117.914C108.861 119.449 107.89 121.531 107.89 123.703V164.585H63.8133C62.9066 164.585 62.0152 164.376 61.2257 163.98C60.4362 163.584 59.7754 163.013 59.3074 162.323C58.8394 161.633 58.58 160.847 58.5545 160.042C58.529 159.237 58.7382 158.439 59.1618 157.727L105.812 79.2838C106.394 78.3059 106.746 77.2333 106.848 76.1309C106.95 75.0285 106.8 73.9192 106.406 72.8699C106.013 71.8205 105.384 70.853 104.557 70.0256C103.731 69.1982 102.725 68.5281 101.599 68.0558L98.845 66.9004C96.7067 66.0033 94.262 65.8708 92.0168 66.5304C89.7716 67.19 87.8977 68.5912 86.7829 70.444L29.8869 165.004C28.918 166.615 28.4111 168.412 28.4111 170.238C28.4111 173.182 29.7277 176.006 32.0711 178.088C34.4146 180.17 37.593 181.34 40.9071 181.34H107.89V207.191C107.89 208.48 108.176 209.756 108.731 210.947C109.286 212.137 110.1 213.219 111.125 214.13C112.151 215.042 113.369 215.765 114.709 216.258C116.049 216.751 117.485 217.005 118.936 217.005C121.866 217.005 124.675 215.971 126.747 214.13C128.818 212.29 129.982 209.794 129.982 207.191V181.34H145.609C146.847 181.34 148.073 181.123 149.217 180.702C150.361 180.281 151.401 179.664 152.276 178.886C153.152 178.108 153.847 177.185 154.32 176.168C154.794 175.152 155.038 174.062 155.038 172.962C155.038 171.862 154.794 170.773 154.32 169.756C153.847 168.74 153.152 167.816 152.276 167.038C151.401 166.26 150.361 165.643 149.217 165.222C148.073 164.801 146.847 164.585 145.609 164.585Z" stroke="#0275D8" stroke-miterlimit="10"/>
<path d="M438.737 164.585H423.111V123.703C423.111 121.531 422.14 119.449 420.412 117.914C418.683 116.378 416.339 115.516 413.895 115.516H410.234C409.024 115.516 407.825 115.727 406.707 116.139C405.589 116.55 404.573 117.153 403.717 117.914C402.862 118.674 402.183 119.576 401.72 120.57C401.257 121.563 401.018 122.628 401.018 123.703V164.585H356.942C356.035 164.585 355.144 164.376 354.354 163.98C353.565 163.584 352.904 163.013 352.436 162.323C351.968 161.633 351.708 160.847 351.683 160.042C351.657 159.237 351.867 158.439 352.29 157.727L398.94 79.2838C399.522 78.3059 399.874 77.2333 399.977 76.1309C400.079 75.0285 399.928 73.9192 399.535 72.8699C399.141 71.8205 398.512 70.853 397.686 70.0256C396.86 69.1982 395.853 68.5281 394.727 68.0558L391.973 66.9004C389.835 66.0033 387.39 65.8708 385.145 66.5304C382.9 67.19 381.026 68.5912 379.911 70.444L323.015 165.004C322.046 166.615 321.54 168.412 321.54 170.238C321.54 173.182 322.856 176.006 325.2 178.088C327.543 180.17 330.721 181.34 334.036 181.34H401.018V207.191C401.018 209.794 402.182 212.29 404.254 214.13C406.325 215.971 409.135 217.005 412.064 217.005V217.005C414.994 217.005 417.804 215.971 419.875 214.13C421.947 212.29 423.111 209.794 423.111 207.191V181.34H438.737C439.975 181.34 441.202 181.123 442.346 180.702C443.49 180.281 444.529 179.664 445.405 178.886C446.28 178.108 446.975 177.185 447.449 176.168C447.923 175.152 448.167 174.062 448.167 172.962V172.962C448.167 170.74 447.173 168.609 445.405 167.038C443.636 165.467 441.238 164.585 438.737 164.585V164.585Z" stroke="#3F3D56" stroke-miterlimit="10"/>
<path d="M237.481 60.9409C199.687 60.9409 172.551 82.4835 172.551 132.749C172.551 189.717 199.687 204.797 237.481 204.797C275.275 204.797 304.028 188.281 304.028 132.749C304.027 73.3877 275.275 60.9409 237.481 60.9409ZM237.729 185.888C211.552 185.888 197.876 172.244 197.876 132.786C197.876 97.9708 212.112 79.6111 238.289 79.6111C264.466 79.6111 278.702 91.6709 278.702 132.786C278.702 171.249 263.906 185.888 237.729 185.888V185.888Z" stroke="#3F3D56" stroke-miterlimit="10"/>
<path d="M211.498 133.271C215.627 133.271 218.974 129.423 218.974 124.676C218.974 119.929 215.627 116.081 211.498 116.081C207.369 116.081 204.022 119.929 204.022 124.676C204.022 129.423 207.369 133.271 211.498 133.271Z" fill="#2F2E41"/>
<path d="M252.175 133.466C256.304 133.466 259.651 129.618 259.651 124.871C259.651 120.124 256.304 116.276 252.175 116.276C248.046 116.276 244.699 120.124 244.699 124.871C244.699 129.618 248.046 133.466 252.175 133.466Z" fill="#2F2E41"/>
<path d="M246.459 150.266C246.459 154.15 240.355 157.299 232.826 157.299C225.298 157.299 219.194 154.15 219.194 150.266C219.194 146.903 223.772 144.09 229.889 143.402C230.863 143.288 231.844 143.232 232.826 143.234C234.472 143.229 236.114 143.387 237.721 143.703C242.831 144.715 246.459 147.274 246.459 150.266Z" fill="#2F2E41"/>
<path d="M213.257 131.317C217.386 131.317 220.733 127.469 220.733 122.722C220.733 117.975 217.386 114.127 213.257 114.127C209.128 114.127 205.781 117.975 205.781 122.722C205.781 127.469 209.128 131.317 213.257 131.317Z" stroke="#3F3D56" stroke-miterlimit="10"/>
<path d="M253.934 131.513C258.063 131.513 261.41 127.665 261.41 122.918C261.41 118.171 258.063 114.323 253.934 114.323C249.806 114.323 246.458 118.171 246.458 122.918C246.458 127.665 249.806 131.513 253.934 131.513Z" stroke="#3F3D56" stroke-miterlimit="10"/>
<path d="M234.585 155.345C242.114 155.345 248.217 152.197 248.217 148.313C248.217 144.429 242.114 141.281 234.585 141.281C227.056 141.281 220.952 144.429 220.952 148.313C220.952 152.197 227.056 155.345 234.585 155.345Z" stroke="#3F3D56" stroke-miterlimit="10"/>
<path d="M237.883 144.289C237.887 144.78 237.679 145.254 237.303 145.614C237.125 145.786 236.909 145.924 236.668 146.019C236.427 146.114 236.167 146.163 235.904 146.164H231.507C230.965 146.147 230.452 145.941 230.082 145.589C229.711 145.238 229.512 144.77 229.528 144.289C229.525 143.908 229.651 143.535 229.888 143.218C230.862 143.096 231.843 143.036 232.826 143.038C234.474 143.034 236.117 143.201 237.72 143.539C237.829 143.777 237.884 144.032 237.883 144.289V144.289Z" fill="white"/>
<path d="M213.257 122.332C214.471 122.332 215.456 121.457 215.456 120.378C215.456 119.299 214.471 118.425 213.257 118.425C212.043 118.425 211.058 119.299 211.058 120.378C211.058 121.457 212.043 122.332 213.257 122.332Z" fill="white"/>
<path d="M254.154 122.332C255.368 122.332 256.353 121.457 256.353 120.378C256.353 119.299 255.368 118.425 254.154 118.425C252.94 118.425 251.955 119.299 251.955 120.378C251.955 121.457 252.94 122.332 254.154 122.332Z" fill="white"/>
<path opacity="0.3" d="M256.353 140.695C257.567 140.695 258.551 139.82 258.551 138.741C258.551 137.662 257.567 136.788 256.353 136.788C255.138 136.788 254.154 137.662 254.154 138.741C254.154 139.82 255.138 140.695 256.353 140.695Z" fill="#6C63FF"/>
<path opacity="0.3" d="M202.703 140.695C203.917 140.695 204.901 139.82 204.901 138.741C204.901 137.662 203.917 136.788 202.703 136.788C201.488 136.788 200.504 137.662 200.504 138.741C200.504 139.82 201.488 140.695 202.703 140.695Z" fill="#6C63FF"/>
<path opacity="0.1" d="M452.727 300C478.835 300 500 297.681 500 294.82C500 291.959 478.835 289.64 452.727 289.64C426.618 289.64 405.453 291.959 405.453 294.82C405.453 297.681 426.618 300 452.727 300Z" fill="#6C63FF"/>
<path opacity="0.1" d="M458.865 157.297H447.808V166.71H458.865V157.297Z" fill="#6C63FF"/>
<path opacity="0.1" d="M458.865 180.516H447.808V189.929H458.865V180.516Z" fill="#6C63FF"/>
<path opacity="0.1" d="M458.865 203.731H447.808V213.145H458.865V203.731Z" fill="#6C63FF"/>
<path opacity="0.1" d="M458.865 226.95H447.808V236.364H458.865V226.95Z" fill="#6C63FF"/>
<path d="M482.065 287.022L481.603 291.712L483.154 291.447L482.921 286.36L482.065 287.022Z" fill="#1D2366"/>
<path d="M446.673 264.753C444.803 269.287 445.332 275.407 445.752 278.379C445.907 279.478 446.051 280.147 446.051 280.147C446.051 280.147 443.256 285.569 443.022 285.774C442.789 285.979 434.795 290.133 434.795 290.133L429.208 292.91C429.208 292.91 423.54 290.795 426.257 290.067C426.813 289.877 427.313 289.587 427.723 289.216C430.445 287.015 433.862 281.544 433.862 281.544C433.862 281.544 434.096 278.767 434.951 277.446C435.806 276.125 435.495 262.247 435.495 262.247L435.561 239.624V236.675L446.195 236.741C446.262 237.742 446.415 238.738 446.654 239.72C447.035 241.415 447.53 243.09 448.135 244.738C450.009 249.898 449.231 258.54 446.673 264.753Z" fill="#FFB0B1"/>
<path opacity="0.1" d="M446.051 280.147C446.051 280.147 443.256 285.569 443.022 285.774C442.789 285.979 434.795 290.133 434.795 290.133L429.208 292.91C429.208 292.91 423.54 290.795 426.257 290.067C426.813 289.877 427.313 289.587 427.723 289.216L427.964 290.663L429.827 290.596L445.767 278.386C445.907 279.478 446.051 280.147 446.051 280.147Z" fill="black"/>
<path d="M445.857 278.694L429.827 290.987L427.964 291.053L427.576 288.736C427.576 288.736 424.318 292.304 417.078 292.106C417.078 292.106 412.732 294.552 419.174 294.684C425.616 294.816 433.843 294.485 433.843 294.485C433.843 294.485 439.589 286.873 444.399 287.866V293.615H445.876V287.813C446.563 287.419 447.149 286.911 447.6 286.319C448.05 285.728 448.355 285.065 448.497 284.37C448.625 283.655 448.534 282.923 448.234 282.246C447.934 281.569 447.434 280.969 446.782 280.504C446.491 280.272 446.259 279.992 446.1 279.68C445.941 279.369 445.858 279.033 445.857 278.694V278.694Z" fill="#1D2366"/>
<path d="M483.542 271.823C482.508 274.967 483.072 276.738 483.779 277.688V277.708C484.687 278.88 485.318 280.192 485.638 281.57L485.7 281.868L478.406 290.921L474.448 292.245C474.448 292.245 468.084 290.394 469.246 289.865C469.538 289.736 469.993 289.047 470.514 288.097C472.069 285.234 474.215 279.952 474.215 279.952V279.909C474.441 277.727 474.798 275.553 475.195 273.388C475.906 269.492 474.6 259.93 474.6 259.93C474.6 259.93 474.133 248.302 473.123 245.658C472.666 244.313 472.363 242.934 472.217 241.54C472.007 239.885 471.96 238.522 471.96 238.522C471.96 238.522 476.151 233.557 483.834 238.919C484.448 239.347 484.989 239.846 485.44 240.402C490.747 246.83 486.474 260.989 486.474 260.989C486.474 260.989 485.405 266.139 483.542 271.823Z" fill="#FFB0B1"/>
<path opacity="0.1" d="M485.712 281.868L478.418 290.921L474.46 292.245C474.46 292.245 468.096 290.395 469.258 289.865C469.55 289.736 470.005 289.047 470.526 288.097C473.22 288.078 474.616 290.262 474.616 290.262L478.029 289.799C478.029 289.799 482.532 282.265 483.542 281.805C484.553 281.345 483.698 278.366 483.698 278.366V277.608C483.725 277.635 483.748 277.665 483.78 277.691V277.711C484.687 278.884 485.318 280.196 485.638 281.574L485.712 281.868Z" fill="black"/>
<path d="M474.849 290.457C474.849 290.457 472.905 287.419 469.18 288.541C469.18 288.541 467.085 292.182 464.989 292.771C462.893 293.36 463.593 295.346 468.329 294.621C473.064 293.896 480.203 293.297 480.203 293.297L480.514 289.593L485.327 284.374C485.327 284.374 488.196 282.159 483.927 277.8V278.558C483.927 278.558 484.783 281.537 483.772 281.997C482.761 282.457 478.274 289.994 478.274 289.994L474.849 290.457Z" fill="#1D2366"/>
<path opacity="0.1" d="M446.206 236.734C446.274 237.736 446.427 238.731 446.665 239.713C442.287 239.167 438.225 239.439 435.561 239.617V236.668L446.206 236.734Z" fill="black"/>
<path opacity="0.1" d="M485.871 241.226C485.871 241.226 479.651 241.484 472.232 241.537C472.022 239.882 471.976 238.519 471.976 238.519C471.976 238.519 476.167 233.554 483.85 238.916C484.464 239.343 485.005 239.843 485.455 240.399C485.576 240.681 485.715 240.957 485.871 241.226V241.226Z" fill="black"/>
<path d="M485.871 240.63C485.871 240.63 458.625 241.752 450.32 239.77C442.015 237.787 433.784 239.505 432.544 239.045C431.304 238.585 432.311 231.379 433.4 229.595C434.488 227.811 440.46 209.769 440.46 209.769L446.206 184.263L452.26 182.843L452.688 182.74L463.236 180.264L470.965 178.447C470.965 178.447 486.334 229.529 485.016 233.296C484.537 234.738 484.46 236.255 484.79 237.727C484.992 238.733 485.356 239.71 485.871 240.63V240.63Z" fill="#0275D8"/>
<path d="M426.176 166.82C426.176 166.82 420.733 171.785 424.854 174.552C428.975 177.319 431.685 174.817 431.685 174.817L426.176 166.82Z" fill="#C7DAF5"/>
<path opacity="0.1" d="M426.176 166.82C426.176 166.82 420.733 171.785 424.854 174.552C428.975 177.319 431.685 174.817 431.685 174.817L426.176 166.82Z" fill="black"/>
<path d="M470.152 134.178C470.152 134.178 469.515 134.694 468.555 135.455C467.186 136.544 465.16 138.136 463.364 139.47C460.876 141.314 458.823 142.667 459.558 141.512C460.293 140.357 460.153 138.345 459.787 136.461C459.76 136.336 459.737 136.21 459.709 136.087C459.407 134.704 459.006 133.338 458.508 131.996C458.508 131.996 462.528 127.574 464.752 125.83C465.58 125.168 466.16 124.897 466.195 125.357C466.233 125.976 466.778 127.343 467.454 128.792C467.474 128.839 467.493 128.882 467.516 128.928C467.967 129.921 468.477 130.94 468.924 131.821C469.608 133.171 470.152 134.178 470.152 134.178Z" fill="#FFB0B1"/>
<path opacity="0.1" d="M467.516 128.928C467.139 130.658 466.222 132.269 464.862 133.595C463.503 134.92 461.75 135.91 459.787 136.461C459.478 134.95 459.051 133.459 458.508 131.996C458.508 131.996 466.078 123.672 466.195 125.356C466.222 125.995 466.813 127.412 467.516 128.928Z" fill="black"/>
<path opacity="0.1" d="M459.033 138.685L460.013 137.51C460.013 137.51 460.662 140.88 463.049 139.394C465.436 137.907 465.553 150.578 465.553 150.578L462.991 183.19L444.476 182.247L445.001 166.488L447.097 158.545L452.279 146.996L455.363 143.18L459.033 138.685Z" fill="black"/>
<path d="M465.553 150.78L463.22 180.268L462.975 183.392L452.652 182.866L452.264 182.846L444.488 182.449L445.013 166.687L447.108 158.743L452.291 147.195L455.374 143.379L459.044 138.867L460.024 137.696C460.024 137.696 460.673 141.065 463.061 139.579L463.111 139.549C465.444 138.292 465.553 150.78 465.553 150.78Z" fill="#1D2366"/>
<path d="M447.369 155.983C447.369 155.983 446.44 157.638 444.574 157.37C442.708 157.102 442.711 163.328 442.711 163.328C442.711 163.328 441.471 164.321 440.616 163.46C439.761 162.6 437.506 165.509 437.506 165.509L423.377 166.039C423.377 166.039 429.664 168.485 428.431 175.886C428.431 175.886 449.776 174.76 450.476 173.042C451.176 171.325 447.369 155.983 447.369 155.983Z" fill="white"/>
<path opacity="0.03" d="M447.369 155.983C447.369 155.983 446.44 157.638 444.574 157.37C442.708 157.102 442.711 163.328 442.711 163.328C442.711 163.328 441.471 164.321 440.616 163.46C439.761 162.6 437.506 165.509 437.506 165.509L423.377 166.039C423.377 166.039 429.664 168.485 428.431 175.886C428.431 175.886 449.776 174.76 450.476 173.042C451.176 171.325 447.369 155.983 447.369 155.983Z" fill="black"/>
<path d="M406.308 169.927L410.033 172.635L440.693 178.119L436.891 174.816L406.308 169.927Z" fill="white"/>
<path d="M459.091 139.728C458.582 140.39 457.124 143.779 455.907 146.738C454.892 149.204 454.045 151.372 454.045 151.372C454.045 151.372 452.066 162.341 451.055 164.324C450.044 166.307 450.592 174.038 450.592 174.038L446.825 193.133C446.825 193.133 445.118 202.98 442.482 208.862C439.881 214.651 436.984 217.365 436.895 217.451C438.061 216.107 444.418 189.648 444.418 189.648L446.518 156.278C446.518 156.278 446.825 153.107 447.136 150.396C447.447 147.685 453.745 143.985 453.745 143.985L459.818 136.633C460.429 137.328 460.021 138.54 459.091 139.728Z" fill="white"/>
<path d="M443.256 182.614C443.256 182.614 434.313 182.283 429.982 177.855C425.651 173.426 439.994 176.087 439.994 176.087L443.722 176.815L443.256 182.614Z" fill="#FFB0B1"/>
<path opacity="0.1" d="M485.016 233.299C484.538 234.741 484.46 236.259 484.791 237.731C475.036 238.32 464.601 236.076 464.601 236.076C462.657 237.598 457.536 239.843 457.536 239.843L454.745 210.384C452.96 206.413 452.26 185.603 452.26 185.603C452.26 185.603 452.42 184.514 452.649 182.883C452.649 182.843 452.649 182.8 452.668 182.76C453.364 178.202 454.745 169.646 455.421 168.491C456.354 166.902 452.552 162.676 452.552 162.676L454.282 150.115L454.492 148.599C458.139 147.212 460.934 142.783 460.934 142.783L463.08 139.582C465.413 138.308 465.534 150.796 465.534 150.796L463.201 180.284L470.93 178.467C470.93 178.467 486.334 229.532 485.016 233.299Z" fill="black"/>
<path d="M495.028 235.334C484.394 239.829 465.067 235.665 465.067 235.665C463.123 237.188 458.003 239.432 458.003 239.432L455.207 209.974C453.427 206.002 452.727 185.193 452.727 185.193C452.727 185.193 454.974 169.666 455.907 168.081C456.179 167.617 456.047 166.929 455.724 166.187C454.138 162.658 453.554 158.86 454.021 155.103L454.768 149.704L454.974 148.191C458.625 146.801 461.42 142.373 461.42 142.373L463.364 139.473L466.941 134.131L468.636 131.602L468.924 131.824L471.121 133.519C471.121 133.519 472.054 134.181 473.453 135.174C476.498 137.358 481.758 141.204 484.472 143.558C486.859 145.63 487.613 153.689 487.831 159.756C487.975 163.751 487.889 166.882 487.889 166.882C485.483 170.255 491.777 197.334 491.777 197.334C493.243 202.566 495.028 235.334 495.028 235.334Z" fill="white"/>
<path opacity="0.03" d="M474.616 142.307C474.616 142.307 467.318 154.133 468.166 158.628C469.013 163.123 471.424 168.21 470.261 169.398C469.862 169.848 469.346 170.214 468.753 170.466C468.16 170.718 467.507 170.85 466.844 170.851C465.677 170.917 462.567 172.768 462.567 172.966C462.567 173.165 459.694 173.165 457.124 174.092C454.554 175.018 450.759 175.545 450.759 175.545C450.759 175.545 443.372 175.346 442.684 175.942C441.996 176.538 441.288 180.102 442.762 182.946C444.235 185.789 445.872 187.91 447.109 188.298C448.345 188.685 456.191 186.447 462.555 185.918C468.92 185.388 475.829 181.095 475.829 181.095C475.829 181.095 483.438 178.778 484.771 174.883C486.105 170.987 483.142 149.575 483.142 149.575C483.142 149.575 480.903 139.596 474.616 142.307Z" fill="black"/>
<path opacity="0.03" d="M473.683 141.314C473.683 141.314 466.385 153.143 467.24 157.635C468.096 162.126 470.499 167.217 469.332 168.408C468.934 168.859 468.419 169.225 467.826 169.477C467.234 169.729 466.581 169.861 465.919 169.861C464.752 169.928 461.642 171.778 461.642 171.976C461.642 172.175 458.769 172.175 456.199 173.099C453.629 174.022 449.834 174.552 449.834 174.552C449.834 174.552 442.447 174.353 441.763 174.949C441.078 175.545 440.363 179.113 441.84 181.952C443.318 184.792 444.951 186.917 446.187 187.305C447.424 187.692 455.269 185.454 461.634 184.928C467.999 184.402 474.907 180.102 474.907 180.102C474.907 180.102 482.512 177.785 483.83 173.893C485.148 170 482.201 148.582 482.201 148.582C482.201 148.582 479.97 138.606 473.683 141.314Z" fill="black"/>
<path d="M474.386 141.711C474.386 141.711 467.089 153.54 467.944 158.032C468.799 162.523 471.202 167.614 470.04 168.802C469.642 169.254 469.126 169.621 468.533 169.873C467.94 170.126 467.286 170.258 466.622 170.258C465.456 170.325 462.345 172.175 462.345 172.37C462.345 172.565 459.476 172.569 456.902 173.495C454.329 174.422 450.538 174.949 450.538 174.949C450.538 174.949 443.151 174.75 442.463 175.346C441.774 175.941 441.067 179.51 442.54 182.349C444.014 185.189 445.651 187.314 446.887 187.702C448.123 188.089 455.969 185.851 462.334 185.322C468.698 184.792 475.607 180.499 475.607 180.499C475.607 180.499 483.216 178.182 484.55 174.287C485.883 170.391 482.94 148.979 482.94 148.979C482.94 148.979 480.669 139.016 474.386 141.711Z" fill="white"/>
<path opacity="0.1" d="M474.227 173.439C474.227 173.439 468.395 172.447 470.425 174.101C472.454 175.756 472.442 177.206 474.927 177.14C477.411 177.074 474.227 173.439 474.227 173.439Z" fill="black"/>
<path opacity="0.1" d="M484.083 209.047C484.083 209.047 481.447 210.567 486.49 214.068C491.532 217.57 484.083 209.047 484.083 209.047Z" fill="black"/>
<path opacity="0.1" d="M479.052 221.536C479.052 221.734 478.119 228.817 481.61 230.588C485.102 232.359 479.052 221.536 479.052 221.536Z" fill="black"/>
<path d="M423.617 166.022C420.803 166.105 414.722 166.836 417.875 171.844C420.663 176.276 425.348 173.314 427.984 171.066C427.341 168.971 425.778 167.165 423.617 166.022V166.022Z" fill="#FFB0B1"/>
<path d="M428.019 171.027L428.135 170.924L428.019 171.027Z" fill="#FFB0B1"/>
<path opacity="0.1" d="M473.453 135.375C470.467 137.113 467.964 138.579 467.474 138.884C466.136 139.728 463.586 144.683 461.941 147.212C460.631 149.247 456.374 149.77 454.768 149.899L454.974 148.387C458.625 146.996 461.42 142.568 461.42 142.568L468.636 131.797L471.121 133.72C471.121 133.72 472.054 134.382 473.453 135.375Z" fill="black"/>
<path d="M473.453 135.177C470.467 136.915 467.964 138.381 467.474 138.689C466.136 139.53 463.586 144.485 461.941 147.013C460.631 149.049 456.374 149.572 454.768 149.701L454.974 148.188C458.625 146.798 461.42 142.37 461.42 142.37L468.636 131.599L471.121 133.516C471.121 133.516 472.054 134.171 473.453 135.177Z" fill="#DCE7FF"/>
<path d="M467.707 126.743C467.708 128.73 467.001 130.671 465.677 132.307C464.114 134.242 461.788 135.636 459.122 136.236C456.455 136.836 453.623 136.602 451.141 135.577C448.66 134.552 446.692 132.804 445.595 130.649C444.498 128.494 444.344 126.076 445.162 123.834C445.98 121.591 447.716 119.672 450.053 118.425C452.391 117.179 455.176 116.687 457.904 117.039C460.631 117.391 463.12 118.563 464.918 120.344C466.717 122.124 467.706 124.395 467.707 126.743V126.743Z" fill="#FFB0B1"/>
<path opacity="0.1" d="M487.831 159.759C486.252 158.933 484.966 157.757 484.11 156.357C483.461 155.265 483.03 154.004 481.921 153.229C480.922 152.534 479.589 152.365 478.345 152.054C474.254 151.025 470.825 147.847 470.697 144.219C470.635 142.512 471.261 140.807 470.977 139.116C470.816 138.158 470.368 137.252 469.678 136.484C469.336 136.117 468.96 135.773 468.555 135.455C468.01 135.018 467.439 134.594 466.941 134.131C466.628 133.844 466.354 133.528 466.125 133.188C465.94 132.909 465.79 132.615 465.678 132.31C464.9 130.285 465.608 127.882 464.752 125.833L464.706 125.72C464.383 124.992 463.726 124.264 462.812 124.208C461.899 124.152 461.117 124.797 460.246 125.085C458.423 125.687 456.455 124.661 454.935 123.615C453.415 122.569 451.7 121.375 449.768 121.606C448.489 121.762 447.478 122.503 446.3 122.887C446.034 122.975 445.76 123.042 445.48 123.089C446.477 120.972 448.308 119.217 450.66 118.126C453.012 117.034 455.737 116.673 458.367 117.106C460.997 117.539 463.368 118.738 465.072 120.497C466.777 122.256 467.708 124.466 467.707 126.747C467.708 127.435 467.624 128.122 467.454 128.795C467.474 128.842 467.493 128.885 467.517 128.931C467.968 129.924 468.477 130.943 468.924 131.824L471.121 133.519C471.121 133.519 472.054 134.181 473.453 135.174C476.498 137.358 481.758 141.204 484.472 143.558C486.859 145.636 487.606 153.692 487.831 159.759Z" fill="black"/>
<path d="M446.164 116.84C446.72 115.877 446.996 114.798 447.661 113.884C448.637 112.56 450.339 111.713 452.089 111.2C456.657 109.86 466.311 107.913 469.196 111.2C469.764 111.862 470.234 112.597 471.019 113.054C471.618 113.401 472.341 113.55 472.998 113.812C474.837 114.546 476.012 116.148 476.638 117.783C477.263 119.419 477.45 121.173 477.909 122.857C478.496 125.019 479.526 127.068 480.553 129.103C481.762 131.506 483.045 133.999 485.378 135.697C488.562 138.014 489.266 141.294 492.22 143.836C495.72 146.854 495.607 151.836 493.803 155.791C493.566 156.311 493.297 156.853 493.391 157.406C493.484 157.959 493.966 158.462 494.421 158.902L496.334 160.739C491.808 161.669 486.688 159.657 484.581 156.125C483.931 155.033 483.5 153.775 482.388 152.997C481.392 152.302 480.055 152.137 478.815 151.826C474.725 150.793 471.295 147.612 471.167 143.985C471.105 142.28 471.731 140.575 471.447 138.887C471.289 137.924 470.84 137.011 470.145 136.239C469.075 135.051 467.462 134.253 466.591 132.93C465.118 130.715 466.237 127.839 465.176 125.462C464.849 124.734 464.196 124.006 463.282 123.95C462.369 123.893 461.587 124.539 460.713 124.827C458.893 125.429 456.926 124.407 455.405 123.357C453.885 122.308 452.171 121.116 450.234 121.351C448.955 121.504 447.948 122.245 446.77 122.632C445.899 122.917 444.134 123.172 443.372 122.546C441.763 121.285 445.491 118.018 446.164 116.84Z" fill="#591D4B"/>
<path opacity="0.1" d="M485.661 155.033C485.008 153.941 484.58 152.683 483.468 151.909C482.473 151.214 481.136 151.045 479.892 150.734C475.805 149.704 472.376 146.523 472.244 142.896C472.182 141.191 472.808 139.483 472.528 137.795C472.365 136.838 471.917 135.932 471.225 135.164C470.152 133.976 468.539 133.178 467.672 131.854C466.198 129.643 467.318 126.767 466.253 124.387C465.93 123.662 465.273 122.934 464.363 122.874C463.453 122.815 462.664 123.467 461.793 123.755C459.974 124.357 458.002 123.331 456.486 122.285C454.97 121.239 453.247 120.044 451.315 120.276C450.036 120.431 449.025 121.173 447.851 121.557C446.98 121.842 445.211 122.1 444.449 121.474C442.847 120.15 446.576 116.89 447.244 115.718C447.8 114.752 448.077 113.676 448.745 112.762C448.78 112.713 448.819 112.663 448.858 112.614C448.358 112.966 447.926 113.384 447.579 113.851C446.914 114.765 446.638 115.837 446.082 116.807C445.409 117.979 441.681 121.249 443.287 122.563C444.064 123.192 445.814 122.934 446.685 122.649C447.851 122.262 448.87 121.52 450.149 121.368C452.093 121.133 453.803 122.328 455.32 123.374C456.836 124.42 458.819 125.446 460.631 124.844C461.502 124.556 462.264 123.907 463.197 123.966C464.13 124.026 464.752 124.751 465.09 125.479C466.152 127.856 465.032 130.732 466.505 132.946C467.376 134.247 468.99 135.061 470.059 136.256C470.755 137.028 471.203 137.94 471.361 138.904C471.645 140.592 471.019 142.297 471.081 144.001C471.21 147.642 474.639 150.81 478.729 151.842C479.962 152.154 481.307 152.319 482.302 153.014C483.418 153.792 483.857 155.05 484.495 156.142C486.602 159.674 491.723 161.686 496.248 160.756L495.346 159.889C491.423 159.938 487.454 158.039 485.661 155.033Z" fill="black"/>
<path opacity="0.1" d="M458.858 139.927C458.349 140.589 456.891 143.978 455.674 146.937C454.535 146.56 453.5 144.153 453.5 144.153L459.573 136.799C460.196 137.527 459.787 138.735 458.858 139.927Z" fill="black"/>
<path d="M459.091 139.728C458.582 140.39 457.124 143.779 455.907 146.738C454.768 146.364 453.734 143.955 453.734 143.955L459.807 136.604C460.429 137.328 460.021 138.54 459.091 139.728Z" fill="#DCE7FF"/>
<path d="M423.781 173.542L420.414 164.503C420.374 164.397 420.359 164.286 420.37 164.175C420.381 164.064 420.418 163.956 420.477 163.857C420.537 163.759 420.62 163.671 420.72 163.599C420.819 163.528 420.935 163.474 421.059 163.44V163.44C421.31 163.374 421.581 163.394 421.814 163.497C422.047 163.6 422.223 163.777 422.304 163.99L425.671 173.019L425.336 174.909L423.781 173.542Z" fill="#BE8B87"/>
<path opacity="0.1" d="M420.733 163.708C420.984 163.641 421.256 163.661 421.49 163.764C421.724 163.867 421.9 164.044 421.981 164.258L425.348 173.287L425.095 174.704L425.34 174.922L425.674 173.032L422.288 164.003C422.208 163.79 422.032 163.613 421.799 163.51C421.566 163.407 421.294 163.387 421.044 163.454V163.454C420.833 163.512 420.651 163.628 420.527 163.785C420.593 163.754 420.662 163.729 420.733 163.708V163.708Z" fill="white"/>
<path d="M423.781 173.542L425.671 173.032L425.395 174.581L425.336 174.922L424.784 174.433L423.781 173.542Z" fill="#EFC8C4"/>
<path d="M424.784 174.432C424.817 174.397 424.858 174.368 424.904 174.346C424.932 174.332 424.964 174.324 424.996 174.324C425.028 174.324 425.06 174.332 425.087 174.346C425.114 174.373 425.136 174.404 425.153 174.436C425.179 174.472 425.214 174.503 425.256 174.527C425.297 174.55 425.345 174.565 425.394 174.571L425.336 174.902L424.784 174.432Z" fill="#727A9C"/>
<path d="M420.395 167.713C420.395 167.713 427.148 167.68 425.558 170.126C423.968 172.572 421.483 172.867 421.483 172.867L420.395 167.713Z" fill="#FFB0B1"/>
</svg>
