<svg width="1137" height="768" viewBox="0 0 1137 768" fill="none" xmlns="http://www.w3.org/2000/svg">
<path d="M540.644 584.231C831.974 584.231 1068.14 568.596 1068.14 549.309C1068.14 530.023 831.974 514.388 540.644 514.388C249.313 514.388 13.1436 530.023 13.1436 549.309C13.1436 568.596 249.313 584.231 540.644 584.231Z" fill="#F2F2F2"/>
<path d="M520.426 167.01C434.482 167.01 372.775 222.149 372.775 350.808C372.775 496.621 434.482 535.218 520.426 535.218C606.37 535.218 671.753 492.945 671.753 350.808C671.753 198.868 606.37 167.01 520.426 167.01ZM520.991 486.818C461.464 486.818 430.365 451.895 430.365 350.902C430.365 261.79 462.737 214.797 522.264 214.797C581.791 214.797 614.163 245.665 614.163 350.902C614.163 449.349 580.517 486.818 520.991 486.818Z" fill="#2F2E41"/>
<path d="M321.311 433.517H285.777V328.877C285.777 323.319 283.569 317.989 279.639 314.059C275.709 310.129 270.379 307.921 264.821 307.921H256.495C253.743 307.921 251.018 308.463 248.475 309.517C245.933 310.57 243.623 312.113 241.677 314.059C239.731 316.005 238.187 318.315 237.134 320.858C236.081 323.4 235.539 326.125 235.539 328.877V433.517H135.309C133.247 433.517 131.22 432.984 129.425 431.97C127.629 430.955 126.127 429.494 125.062 427.728C123.998 425.962 123.408 423.951 123.35 421.89C123.292 419.829 123.768 417.788 124.731 415.965L230.813 215.184C232.136 212.681 232.938 209.936 233.17 207.114C233.402 204.293 233.06 201.453 232.165 198.767C231.27 196.082 229.839 193.605 227.961 191.487C226.082 189.369 223.793 187.654 221.233 186.445L214.971 183.488C210.108 181.192 204.549 180.853 199.443 182.541C194.338 184.23 190.077 187.816 187.542 192.558L58.16 434.591C55.9568 438.712 54.8042 443.314 54.8042 447.987C54.8042 451.719 55.5392 455.414 56.9672 458.861C58.3953 462.309 60.4884 465.441 63.127 468.08C65.7657 470.719 68.8982 472.812 72.3458 474.24C75.7933 475.668 79.4884 476.403 83.22 476.403H235.539V542.57C235.539 545.869 236.189 549.135 237.451 552.183C238.713 555.23 240.563 557.999 242.896 560.332C245.228 562.664 247.998 564.515 251.045 565.777C254.093 567.039 257.359 567.689 260.658 567.689C263.956 567.689 267.223 567.039 270.27 565.777C273.318 564.515 276.087 562.664 278.42 560.332C280.752 557.999 282.602 555.23 283.865 552.183C285.127 549.135 285.777 545.869 285.777 542.57V476.403H321.311C326.998 476.403 332.452 474.144 336.474 470.122C340.495 466.101 342.754 460.647 342.754 454.96C342.754 449.273 340.495 443.819 336.474 439.797C332.452 435.776 326.998 433.517 321.311 433.517Z" fill="#0275D8"/>
<path d="M979.308 433.517H943.773V328.877C943.773 323.319 941.566 317.989 937.636 314.059C933.706 310.129 928.375 307.921 922.818 307.921H914.491C911.739 307.921 909.014 308.463 906.472 309.517C903.929 310.57 901.619 312.113 899.673 314.059C897.727 316.005 896.184 318.315 895.131 320.858C894.077 323.4 893.535 326.125 893.535 328.877V433.517H793.305C791.243 433.517 789.216 432.984 787.421 431.97C785.626 430.955 784.123 429.494 783.059 427.728C781.995 425.962 781.405 423.951 781.347 421.89C781.289 419.829 781.764 417.788 782.728 415.965L888.81 215.184C890.133 212.681 890.934 209.936 891.167 207.114C891.399 204.293 891.057 201.453 890.162 198.767C889.266 196.082 887.836 193.605 885.957 191.487C884.078 189.369 881.79 187.654 879.23 186.445L872.967 183.488C868.105 181.192 862.546 180.853 857.44 182.541C852.334 184.23 848.073 187.816 845.538 192.558L716.157 434.591C713.953 438.712 712.801 443.314 712.801 447.987C712.801 455.523 715.795 462.751 721.124 468.08C726.453 473.409 733.68 476.403 741.217 476.403H893.535V542.57C893.535 549.232 896.182 555.621 900.893 560.332C905.603 565.043 911.992 567.689 918.654 567.689C925.316 567.689 931.705 565.043 936.416 560.332C941.127 555.621 943.773 549.232 943.773 542.57V476.403H979.308C984.995 476.403 990.449 474.144 994.47 470.122C998.492 466.101 1000.75 460.647 1000.75 454.96C1000.75 449.273 998.492 443.819 994.47 439.797C990.449 435.776 984.995 433.517 979.308 433.517Z" fill="#0275D8"/>
<path d="M331.114 421.264H295.58V316.624C295.58 313.872 295.038 311.147 293.984 308.605C292.931 306.062 291.388 303.752 289.442 301.806C287.496 299.86 285.186 298.317 282.643 297.263C280.101 296.21 277.376 295.668 274.624 295.668H266.297C260.74 295.668 255.409 297.876 251.479 301.806C247.549 305.736 245.342 311.066 245.342 316.624V421.264H145.111C143.05 421.264 141.023 420.731 139.227 419.716C137.432 418.702 135.929 417.241 134.865 415.475C133.801 413.709 133.211 411.698 133.153 409.637C133.095 407.576 133.571 405.535 134.534 403.712L240.616 202.931C241.939 200.428 242.74 197.683 242.973 194.861C243.205 192.04 242.863 189.2 241.968 186.514C241.073 183.828 239.642 181.352 237.763 179.234C235.884 177.116 233.596 175.401 231.036 174.192L224.774 171.235C219.911 168.939 214.352 168.6 209.246 170.288C204.141 171.976 199.879 175.563 197.344 180.305L67.9628 422.338C65.7596 426.459 64.6069 431.06 64.6069 435.734C64.6069 443.27 67.6007 450.498 72.9297 455.827C78.2587 461.156 85.4864 464.15 93.0228 464.15H245.342V530.317C245.342 533.616 245.991 536.882 247.254 539.93C248.516 542.977 250.366 545.746 252.699 548.079C255.031 550.411 257.8 552.262 260.848 553.524C263.895 554.786 267.162 555.436 270.461 555.436C277.123 555.436 283.512 552.789 288.222 548.079C292.933 543.368 295.58 536.979 295.58 530.317V464.15H331.114C333.93 464.15 336.718 463.595 339.32 462.517C341.921 461.44 344.285 459.86 346.276 457.869C348.268 455.878 349.847 453.514 350.925 450.913C352.002 448.311 352.557 445.523 352.557 442.707C352.557 439.891 352.002 437.102 350.925 434.501C349.847 431.899 348.268 429.535 346.276 427.544C344.285 425.553 341.921 423.973 339.32 422.896C336.718 421.818 333.93 421.264 331.114 421.264Z" stroke="#0275D8" stroke-miterlimit="10"/>
<path d="M997.688 421.264H962.153V316.624C962.153 311.066 959.946 305.736 956.016 301.806C952.086 297.876 946.755 295.668 941.198 295.668H932.871C930.119 295.668 927.394 296.21 924.852 297.263C922.309 298.317 919.999 299.86 918.053 301.806C916.107 303.752 914.564 306.062 913.51 308.605C912.457 311.147 911.915 313.872 911.915 316.624V421.264H811.685C809.623 421.264 807.596 420.731 805.801 419.716C804.006 418.702 802.503 417.241 801.439 415.475C800.374 413.709 799.785 411.698 799.727 409.637C799.669 407.576 800.144 405.535 801.108 403.712L907.19 202.931C908.513 200.428 909.314 197.683 909.547 194.861C909.779 192.04 909.437 189.2 908.542 186.514C907.646 183.828 906.216 181.352 904.337 179.234C902.458 177.116 900.17 175.401 897.61 174.192L891.347 171.235C886.485 168.939 880.925 168.6 875.82 170.288C870.714 171.976 866.453 175.563 863.918 180.305L734.536 422.338C732.333 426.459 731.181 431.06 731.181 435.734C731.181 443.27 734.174 450.498 739.503 455.827C744.832 461.156 752.06 464.15 759.596 464.15H911.915V530.317C911.915 536.979 914.562 543.368 919.272 548.079C923.983 552.789 930.372 555.436 937.034 555.436V555.436C943.696 555.436 950.085 552.789 954.796 548.079C959.507 543.368 962.153 536.979 962.153 530.317V464.15H997.688C1000.5 464.15 1003.29 463.595 1005.89 462.517C1008.5 461.44 1010.86 459.86 1012.85 457.869C1014.84 455.878 1016.42 453.514 1017.5 450.913C1018.58 448.311 1019.13 445.523 1019.13 442.707V442.707C1019.13 437.02 1016.87 431.565 1012.85 427.544C1008.83 423.523 1003.37 421.264 997.688 421.264V421.264Z" stroke="#3F3D56" stroke-miterlimit="10"/>
<path d="M540.031 155.982C454.087 155.982 392.38 211.121 392.38 339.78C392.38 485.593 454.087 524.19 540.031 524.19C625.975 524.19 691.358 481.917 691.358 339.78C691.358 187.84 625.975 155.982 540.031 155.982ZM540.596 475.79C481.069 475.79 449.97 440.867 449.97 339.874C449.97 250.762 482.342 203.769 541.869 203.769C601.396 203.769 633.768 234.637 633.768 339.874C633.768 438.321 600.123 475.79 540.596 475.79V475.79Z" stroke="#3F3D56" stroke-miterlimit="10"/>
<path d="M480.946 341.115C490.335 341.115 497.946 331.266 497.946 319.115C497.946 306.965 490.335 297.115 480.946 297.115C471.557 297.115 463.946 306.965 463.946 319.115C463.946 331.266 471.557 341.115 480.946 341.115Z" fill="#2F2E41"/>
<path d="M573.446 341.615C582.835 341.615 590.446 331.766 590.446 319.615C590.446 307.465 582.835 297.615 573.446 297.615C564.057 297.615 556.446 307.465 556.446 319.615C556.446 331.766 564.057 341.615 573.446 341.615Z" fill="#2F2E41"/>
<path d="M560.446 384.615C560.446 394.555 546.566 402.615 529.446 402.615C512.326 402.615 498.446 394.555 498.446 384.615C498.446 376.005 508.856 368.805 522.766 367.045C524.981 366.753 527.212 366.61 529.446 366.615C533.189 366.603 536.922 367.006 540.576 367.816C552.196 370.406 560.446 376.955 560.446 384.615Z" fill="#2F2E41"/>
<path d="M484.946 336.115C494.335 336.115 501.946 326.266 501.946 314.115C501.946 301.965 494.335 292.115 484.946 292.115C475.557 292.115 467.946 301.965 467.946 314.115C467.946 326.266 475.557 336.115 484.946 336.115Z" stroke="#3F3D56" stroke-miterlimit="10"/>
<path d="M577.446 336.615C586.835 336.615 594.446 326.766 594.446 314.615C594.446 302.465 586.835 292.615 577.446 292.615C568.057 292.615 560.446 302.465 560.446 314.615C560.446 326.766 568.057 336.615 577.446 336.615Z" stroke="#3F3D56" stroke-miterlimit="10"/>
<path d="M533.446 397.615C550.567 397.615 564.446 389.557 564.446 379.615C564.446 369.674 550.567 361.615 533.446 361.615C516.325 361.615 502.446 369.674 502.446 379.615C502.446 389.557 516.325 397.615 533.446 397.615Z" stroke="#3F3D56" stroke-miterlimit="10"/>
<path d="M540.946 369.316C540.954 370.573 540.482 371.786 539.626 372.707C539.222 373.149 538.73 373.502 538.183 373.744C537.636 373.986 537.044 374.113 536.446 374.115H526.446C525.214 374.073 524.049 373.544 523.205 372.644C522.362 371.745 521.909 370.548 521.946 369.316C521.941 368.341 522.226 367.386 522.766 366.574C524.979 366.263 527.211 366.109 529.446 366.115C533.193 366.103 536.929 366.533 540.576 367.396C540.823 368.005 540.948 368.658 540.946 369.316V369.316Z" fill="white"/>
<path d="M484.946 313.115C487.707 313.115 489.946 310.877 489.946 308.115C489.946 305.354 487.707 303.115 484.946 303.115C482.185 303.115 479.946 305.354 479.946 308.115C479.946 310.877 482.185 313.115 484.946 313.115Z" fill="white"/>
<path d="M577.946 313.115C580.707 313.115 582.946 310.877 582.946 308.115C582.946 305.354 580.707 303.115 577.946 303.115C575.185 303.115 572.946 305.354 572.946 308.115C572.946 310.877 575.185 313.115 577.946 313.115Z" fill="white"/>
<path opacity="0.3" d="M582.946 360.115C585.707 360.115 587.946 357.877 587.946 355.115C587.946 352.354 585.707 350.115 582.946 350.115C580.185 350.115 577.946 352.354 577.946 355.115C577.946 357.877 580.185 360.115 582.946 360.115Z" fill="#6C63FF"/>
<path opacity="0.3" d="M460.946 360.115C463.707 360.115 465.946 357.877 465.946 355.115C465.946 352.354 463.707 350.115 460.946 350.115C458.185 350.115 455.946 352.354 455.946 355.115C455.946 357.877 458.185 360.115 460.946 360.115Z" fill="#6C63FF"/>
<path opacity="0.1" d="M1029.5 767.868C1088.87 767.868 1137 761.932 1137 754.609C1137 747.287 1088.87 741.351 1029.5 741.351C970.129 741.351 922 747.287 922 754.609C922 761.932 970.129 767.868 1029.5 767.868Z" fill="#6C63FF"/>
<path opacity="0.1" d="M1043.46 402.611H1018.32V426.705H1043.46V402.611Z" fill="#6C63FF"/>
<path opacity="0.1" d="M1043.46 462.041H1018.32V486.135H1043.46V462.041Z" fill="#6C63FF"/>
<path opacity="0.1" d="M1043.46 521.463H1018.32V545.557H1043.46V521.463Z" fill="#6C63FF"/>
<path opacity="0.1" d="M1043.46 580.893H1018.32V604.987H1043.46V580.893Z" fill="#6C63FF"/>
<path d="M1096.22 734.649L1095.16 746.654L1098.69 745.976L1098.16 732.955L1096.22 734.649Z" fill="#1D2366"/>
<path d="M1015.73 677.65C1011.48 689.257 1012.68 704.921 1013.64 712.529C1013.99 715.341 1014.32 717.053 1014.32 717.053C1014.32 717.053 1007.96 730.93 1007.43 731.455C1006.9 731.98 988.724 742.612 988.724 742.612L976.02 749.72C976.02 749.72 963.129 744.307 969.309 742.443C970.572 741.957 971.709 741.214 972.642 740.266C978.831 734.632 986.603 720.628 986.603 720.628C986.603 720.628 987.133 713.52 989.078 710.14C991.023 706.759 990.316 671.237 990.316 671.237L990.466 613.332V605.783L1014.65 605.953C1014.8 608.515 1015.15 611.064 1015.69 613.577C1016.56 617.916 1017.68 622.204 1019.06 626.421C1023.32 639.628 1021.55 661.748 1015.73 677.65Z" fill="#FFB0B1"/>
<path opacity="0.1" d="M1014.32 717.053C1014.32 717.053 1007.96 730.93 1007.43 731.455C1006.9 731.98 988.724 742.613 988.724 742.613L976.02 749.72C976.02 749.72 963.129 744.307 969.309 742.443C970.572 741.958 971.709 741.215 972.642 740.266L973.19 743.968L977.425 743.799L1013.67 712.546C1013.99 715.342 1014.32 717.053 1014.32 717.053Z" fill="black"/>
<path d="M1013.88 713.333L977.426 744.798L973.191 744.967L972.307 739.037C972.307 739.037 964.898 748.17 948.435 747.662C948.435 747.662 938.551 753.922 953.201 754.261C967.851 754.6 986.559 753.753 986.559 753.753C986.559 753.753 999.626 734.268 1010.56 736.809V751.525H1013.92V736.673C1015.48 735.666 1016.82 734.366 1017.84 732.852C1018.87 731.338 1019.56 729.641 1019.88 727.863C1020.17 726.031 1019.97 724.159 1019.28 722.426C1018.6 720.693 1017.46 719.158 1015.98 717.968C1015.32 717.373 1014.79 716.656 1014.43 715.859C1014.07 715.062 1013.88 714.203 1013.88 713.333V713.333Z" fill="#1D2366"/>
<path d="M1099.58 695.746C1097.22 703.794 1098.51 708.327 1100.11 710.758V710.809C1102.18 713.811 1103.61 717.169 1104.34 720.696L1104.48 721.458L1087.9 744.629L1078.9 748.018C1078.9 748.018 1064.42 743.282 1067.07 741.926C1067.73 741.596 1068.76 739.834 1069.95 737.402C1073.49 730.074 1078.37 716.553 1078.37 716.553V716.443C1078.88 710.86 1079.69 705.294 1080.59 699.753C1082.21 689.782 1079.24 665.307 1079.24 665.307C1079.24 665.307 1078.18 635.545 1075.88 628.776C1074.84 625.334 1074.15 621.805 1073.82 618.237C1073.34 614.001 1073.24 610.511 1073.24 610.511C1073.24 610.511 1082.77 597.803 1100.24 611.527C1101.64 612.622 1102.86 613.9 1103.89 615.323C1115.96 631.775 1106.24 668.018 1106.24 668.018C1106.24 668.018 1103.81 681.2 1099.58 695.746Z" fill="#FFB0B1"/>
<path opacity="0.1" d="M1104.51 721.458L1087.92 744.629L1078.92 748.017C1078.92 748.017 1064.45 743.282 1067.09 741.926C1067.76 741.596 1068.79 739.833 1069.97 737.402C1076.1 737.351 1079.28 742.943 1079.28 742.943L1087.04 741.757C1087.04 741.757 1097.28 722.475 1099.58 721.297C1101.87 720.119 1099.93 712.495 1099.93 712.495V710.555C1099.99 710.622 1100.04 710.699 1100.11 710.766V710.817C1102.18 713.819 1103.61 717.177 1104.34 720.704L1104.51 721.458Z" fill="black"/>
<path d="M1079.81 743.442C1079.81 743.442 1075.39 735.665 1066.92 738.537C1066.92 738.537 1062.15 747.856 1057.39 749.364C1052.62 750.872 1054.21 755.955 1064.98 754.1C1075.75 752.245 1091.98 750.711 1091.98 750.711L1092.69 741.231L1103.63 727.871C1103.63 727.871 1110.16 722.203 1100.45 711.046V712.986C1100.45 712.986 1102.4 720.611 1100.1 721.788C1097.8 722.966 1087.6 742.256 1087.6 742.256L1079.81 743.442Z" fill="#1D2366"/>
<path opacity="0.1" d="M1014.67 605.936C1014.83 608.499 1015.17 611.047 1015.72 613.561C1005.76 612.163 996.522 612.858 990.466 613.315V605.767L1014.67 605.936Z" fill="black"/>
<path opacity="0.1" d="M1104.87 617.432C1104.87 617.432 1090.73 618.093 1073.86 618.228C1073.38 613.992 1073.27 610.502 1073.27 610.502C1073.27 610.502 1082.8 597.794 1100.27 611.519C1101.67 612.613 1102.9 613.891 1103.93 615.314C1104.2 616.036 1104.51 616.743 1104.87 617.432V617.432Z" fill="black"/>
<path d="M1104.87 615.907C1104.87 615.907 1042.91 618.779 1024.03 613.705C1005.14 608.63 986.426 613.027 983.605 611.849C980.785 610.672 983.075 592.228 985.55 587.662C988.026 583.096 1001.61 536.916 1001.61 536.916L1014.67 471.631L1028.44 467.997L1029.41 467.734L1053.4 461.397L1070.97 456.746C1070.97 456.746 1105.92 587.493 1102.93 597.134C1101.84 600.825 1101.66 604.709 1102.41 608.478C1102.87 611.051 1103.7 613.551 1104.87 615.907V615.907Z" fill="#0275D8"/>
<path d="M969.124 426.985C969.124 426.985 956.746 439.692 966.118 446.775C975.489 453.857 981.652 447.453 981.652 447.453L969.124 426.985Z" fill="#C7DAF5"/>
<path opacity="0.1" d="M969.124 426.985C969.124 426.985 956.746 439.692 966.118 446.775C975.489 453.857 981.652 447.453 981.652 447.453L969.124 426.985Z" fill="black"/>
<path d="M1069.13 343.435C1069.13 343.435 1067.68 344.757 1065.49 346.705C1062.38 349.493 1057.77 353.568 1053.69 356.982C1048.03 361.701 1043.36 365.166 1045.03 362.209C1046.7 359.252 1046.39 354.101 1045.56 349.281C1045.49 348.959 1045.44 348.637 1045.38 348.323C1044.69 344.783 1043.78 341.286 1042.65 337.852C1042.65 337.852 1051.79 326.534 1056.85 322.069C1058.73 320.375 1060.05 319.68 1060.13 320.858C1060.21 322.442 1061.45 325.941 1062.99 329.651C1063.03 329.77 1063.08 329.88 1063.13 329.999C1064.16 332.54 1065.32 335.15 1066.33 337.403C1067.89 340.86 1069.13 343.435 1069.13 343.435Z" fill="#FFB0B1"/>
<path opacity="0.1" d="M1063.13 329.999C1062.27 334.426 1060.19 338.552 1057.1 341.944C1054 345.335 1050.02 347.869 1045.56 349.281C1044.85 345.413 1043.88 341.595 1042.65 337.852C1042.65 337.852 1059.86 316.545 1060.13 320.857C1060.19 322.493 1061.53 326.118 1063.13 329.999Z" fill="black"/>
<path opacity="0.1" d="M1043.84 354.974L1046.07 351.966C1046.07 351.966 1047.54 360.59 1052.97 356.787C1058.4 352.983 1058.67 385.413 1058.67 385.413L1052.84 468.886L1010.74 466.472L1011.93 426.137L1016.7 405.805L1028.48 376.246L1035.49 366.478L1043.84 354.974Z" fill="black"/>
<path d="M1058.67 385.93L1053.36 461.406L1052.81 469.403L1029.33 468.056L1028.45 468.005L1010.77 466.989L1011.96 426.646L1016.72 406.313L1028.51 376.755L1035.52 366.987L1043.87 355.439L1046.09 352.44C1046.09 352.44 1047.57 361.065 1053 357.261L1053.11 357.185C1058.42 353.965 1058.67 385.93 1058.67 385.93Z" fill="#1D2366"/>
<path d="M1017.32 399.248C1017.32 399.248 1015.2 403.483 1010.96 402.797C1006.72 402.111 1006.73 418.047 1006.73 418.047C1006.73 418.047 1003.9 420.588 1001.96 418.386C1000.01 416.183 994.887 423.63 994.887 423.63L962.758 424.985C962.758 424.985 977.054 431.246 974.252 450.189C974.252 450.189 1022.79 447.308 1024.38 442.912C1025.97 438.515 1017.32 399.248 1017.32 399.248Z" fill="white"/>
<path opacity="0.03" d="M1017.32 399.248C1017.32 399.248 1015.2 403.483 1010.96 402.797C1006.72 402.111 1006.73 418.047 1006.73 418.047C1006.73 418.047 1003.9 420.588 1001.96 418.386C1000.01 416.183 994.887 423.63 994.887 423.63L962.758 424.985C962.758 424.985 977.054 431.246 974.252 450.189C974.252 450.189 1022.79 447.308 1024.38 442.912C1025.97 438.515 1017.32 399.248 1017.32 399.248Z" fill="black"/>
<path d="M923.945 434.939L932.415 441.869L1002.14 455.907L993.49 447.452L923.945 434.939Z" fill="white"/>
<path d="M1043.97 357.642C1042.81 359.337 1039.5 368.012 1036.73 375.586C1034.42 381.897 1032.5 387.446 1032.5 387.446C1032.5 387.446 1028 415.522 1025.7 420.597C1023.4 425.671 1024.65 445.462 1024.65 445.462L1016.08 494.336C1016.08 494.336 1012.2 519.54 1006.2 534.594C1000.29 549.411 993.702 556.358 993.499 556.579C996.151 553.139 1010.61 485.415 1010.61 485.415L1015.38 400.001C1015.38 400.001 1016.08 391.885 1016.79 384.947C1017.49 378.009 1031.82 368.537 1031.82 368.537L1045.63 349.721C1047.01 351.5 1046.09 354.601 1043.97 357.642Z" fill="white"/>
<path d="M1007.96 467.412C1007.96 467.412 987.628 466.565 977.779 455.23C967.93 443.894 1000.55 450.706 1000.55 450.706L1009.02 452.57L1007.96 467.412Z" fill="#FFB0B1"/>
<path opacity="0.1" d="M1102.93 597.142C1101.84 600.834 1101.66 604.718 1102.41 608.486C1080.23 609.994 1056.5 604.25 1056.5 604.25C1052.08 608.147 1040.44 613.891 1040.44 613.891L1034.09 538.491C1030.03 528.325 1028.44 475.062 1028.44 475.062C1028.44 475.062 1028.8 472.275 1029.32 468.099C1029.32 467.997 1029.32 467.887 1029.37 467.785C1030.95 456.119 1034.09 434.22 1035.63 431.263C1037.75 427.196 1029.1 416.378 1029.1 416.378L1033.04 384.227L1033.51 380.347C1041.81 376.797 1048.16 365.462 1048.16 365.462L1053.04 357.27C1058.35 354.008 1058.62 385.972 1058.62 385.972L1053.32 461.448L1070.89 456.797C1070.89 456.797 1105.92 587.501 1102.93 597.142Z" fill="black"/>
<path d="M1125.69 602.352C1101.51 613.857 1057.56 603.2 1057.56 603.2C1053.14 607.097 1041.5 612.841 1041.5 612.841L1035.14 537.441C1031.09 527.275 1029.5 474.012 1029.5 474.012C1029.5 474.012 1034.61 434.27 1036.73 430.212C1037.35 429.026 1037.05 427.264 1036.32 425.367C1032.71 416.334 1031.38 406.612 1032.44 396.994L1034.14 383.177L1034.61 379.305C1042.91 375.747 1049.27 364.411 1049.27 364.411L1053.69 356.99L1061.82 343.316L1065.68 336.844L1066.33 337.412L1071.33 341.749C1071.33 341.749 1073.45 343.444 1076.63 345.985C1083.56 351.577 1095.52 361.421 1101.69 367.444C1107.12 372.748 1108.83 393.377 1109.33 408.906C1109.65 419.131 1109.46 427.146 1109.46 427.146C1103.99 435.778 1118.3 505.087 1118.3 505.087C1121.63 518.481 1125.69 602.352 1125.69 602.352Z" fill="white"/>
<path opacity="0.03" d="M1079.28 364.242C1079.28 364.242 1062.68 394.512 1064.61 406.017C1066.54 417.521 1072.02 430.543 1069.37 433.584C1068.47 434.736 1067.29 435.672 1065.94 436.317C1064.6 436.962 1063.11 437.3 1061.6 437.303C1058.95 437.473 1051.88 442.208 1051.88 442.717C1051.88 443.225 1045.34 443.225 1039.5 445.597C1033.66 447.969 1025.03 449.316 1025.03 449.316C1025.03 449.316 1008.23 448.808 1006.66 450.333C1005.1 451.858 1003.49 460.982 1006.84 468.259C1010.19 475.537 1013.91 480.967 1016.72 481.958C1019.54 482.95 1037.38 477.223 1051.85 475.867C1066.32 474.512 1082.03 463.524 1082.03 463.524C1082.03 463.524 1099.34 457.593 1102.37 447.622C1105.4 437.651 1098.66 382.846 1098.66 382.846C1098.66 382.846 1093.57 357.303 1079.28 364.242Z" fill="black"/>
<path opacity="0.03" d="M1077.15 361.7C1077.15 361.7 1060.56 391.979 1062.5 403.475C1064.45 414.972 1069.91 428.001 1067.26 431.051C1066.36 432.205 1065.18 433.141 1063.84 433.786C1062.49 434.432 1061 434.769 1059.5 434.77C1056.85 434.94 1049.77 439.675 1049.77 440.184C1049.77 440.692 1043.24 440.692 1037.4 443.056C1031.55 445.419 1022.92 446.775 1022.92 446.775C1022.92 446.775 1006.12 446.267 1004.57 447.792C1003.01 449.316 1001.39 458.449 1004.74 465.718C1008.1 472.987 1011.82 478.426 1014.63 479.417C1017.44 480.408 1035.28 474.681 1049.76 473.334C1064.23 471.987 1079.94 460.982 1079.94 460.982C1079.94 460.982 1097.23 455.052 1100.23 445.089C1103.23 435.126 1096.53 380.305 1096.53 380.305C1096.53 380.305 1091.45 354.77 1077.15 361.7Z" fill="black"/>
<path d="M1078.75 362.717C1078.75 362.717 1062.16 392.995 1064.1 404.492C1066.05 415.988 1071.51 429.018 1068.87 432.059C1067.96 433.215 1066.79 434.154 1065.44 434.801C1064.09 435.448 1062.61 435.785 1061.1 435.787C1058.45 435.956 1051.37 440.692 1051.37 441.192C1051.37 441.692 1044.85 441.7 1039 444.072C1033.14 446.444 1024.52 447.791 1024.52 447.791C1024.52 447.791 1007.72 447.283 1006.16 448.808C1004.59 450.333 1002.99 459.466 1006.34 466.734C1009.69 474.003 1013.41 479.442 1016.22 480.433C1019.03 481.425 1036.87 475.698 1051.35 474.342C1065.82 472.987 1081.53 461.999 1081.53 461.999C1081.53 461.999 1098.83 456.068 1101.87 446.097C1104.9 436.126 1098.2 381.321 1098.2 381.321C1098.2 381.321 1093.04 355.821 1078.75 362.717Z" fill="white"/>
<path opacity="0.1" d="M1078.39 443.928C1078.39 443.928 1065.13 441.387 1069.75 445.623C1074.36 449.859 1074.33 453.569 1079.98 453.4C1085.63 453.23 1078.39 443.928 1078.39 443.928Z" fill="black"/>
<path opacity="0.1" d="M1100.8 535.069C1100.8 535.069 1094.81 538.957 1106.28 547.921C1117.74 556.884 1100.8 535.069 1100.8 535.069Z" fill="black"/>
<path opacity="0.1" d="M1089.36 567.033C1089.36 567.542 1087.24 585.671 1095.18 590.204C1103.12 594.736 1089.36 567.033 1089.36 567.033Z" fill="black"/>
<path d="M963.306 424.943C956.905 425.155 943.077 427.027 950.248 439.845C956.587 451.189 967.24 443.606 973.235 437.854C971.772 432.491 968.219 427.87 963.306 424.943V424.943Z" fill="#FFB0B1"/>
<path d="M973.314 437.753L973.579 437.49L973.314 437.753Z" fill="#FFB0B1"/>
<path opacity="0.1" d="M1076.63 346.502C1069.84 350.95 1064.15 354.703 1063.03 355.482C1059.99 357.642 1054.19 370.325 1050.45 376.797C1047.47 382.007 1037.79 383.346 1034.14 383.676L1034.61 379.805C1042.91 376.247 1049.27 364.911 1049.27 364.911L1065.68 337.344L1071.33 342.266C1071.33 342.266 1073.45 343.96 1076.63 346.502Z" fill="black"/>
<path d="M1076.63 345.994C1069.84 350.441 1064.15 354.194 1063.03 354.982C1059.99 357.134 1054.19 369.816 1050.45 376.289C1047.47 381.499 1037.79 382.838 1034.14 383.168L1034.61 379.296C1042.91 375.738 1049.27 364.403 1049.27 364.403L1065.68 336.835L1071.33 341.741C1071.33 341.741 1073.45 343.418 1076.63 345.994Z" fill="#DCE7FF"/>
<path d="M1063.57 324.407C1063.57 329.493 1061.96 334.459 1058.95 338.648C1055.4 343.601 1050.11 347.169 1044.04 348.705C1037.98 350.241 1031.54 349.643 1025.9 347.019C1020.25 344.395 1015.78 339.92 1013.28 334.404C1010.79 328.889 1010.44 322.7 1012.3 316.96C1014.16 311.219 1018.11 306.308 1023.42 303.117C1028.74 299.926 1035.07 298.667 1041.27 299.568C1047.47 300.469 1053.13 303.47 1057.22 308.028C1061.31 312.585 1063.56 318.396 1063.57 324.407V324.407Z" fill="#FFB0B1"/>
<path opacity="0.1" d="M1109.33 408.914C1105.74 406.798 1102.81 403.788 1100.87 400.205C1099.39 397.409 1098.41 394.182 1095.89 392.199C1093.62 390.42 1090.58 389.988 1087.75 389.192C1078.45 386.557 1070.66 378.424 1070.36 369.139C1070.22 364.767 1071.65 360.404 1071 356.075C1070.63 353.625 1069.62 351.306 1068.05 349.34C1067.27 348.4 1066.41 347.519 1065.49 346.705C1064.25 345.587 1062.96 344.503 1061.82 343.316C1061.11 342.582 1060.49 341.772 1059.97 340.902C1059.55 340.19 1059.21 339.438 1058.95 338.657C1057.18 333.472 1058.79 327.322 1056.85 322.078L1056.74 321.789C1056.01 319.926 1054.51 318.062 1052.43 317.918C1050.36 317.774 1048.58 319.426 1046.6 320.163C1042.45 321.705 1037.98 319.078 1034.52 316.401C1031.07 313.724 1027.17 310.666 1022.77 311.259C1019.86 311.657 1017.56 313.555 1014.89 314.538C1014.28 314.762 1013.66 314.935 1013.02 315.054C1015.29 309.637 1019.45 305.145 1024.8 302.35C1030.15 299.555 1036.35 298.633 1042.33 299.74C1048.31 300.848 1053.7 303.917 1057.57 308.42C1061.45 312.923 1063.57 318.579 1063.57 324.416C1063.57 326.178 1063.38 327.936 1062.99 329.66C1063.03 329.778 1063.08 329.889 1063.13 330.007C1064.16 332.549 1065.32 335.158 1066.33 337.412L1071.33 341.749C1071.33 341.749 1073.45 343.444 1076.63 345.985C1083.56 351.577 1095.52 361.421 1101.69 367.444C1107.12 372.765 1108.81 393.385 1109.33 408.914Z" fill="black"/>
<path d="M1014.58 299.059C1015.84 296.594 1016.47 293.832 1017.98 291.494C1020.2 288.105 1024.07 285.936 1028.05 284.623C1038.44 281.192 1060.39 276.211 1066.95 284.623C1068.24 286.318 1069.31 288.198 1071.1 289.367C1072.46 290.257 1074.1 290.638 1075.6 291.308C1079.78 293.188 1082.45 297.289 1083.87 301.474C1085.3 305.659 1085.72 310.149 1086.76 314.461C1088.1 319.993 1090.44 325.237 1092.78 330.448C1095.53 336.598 1098.44 342.977 1103.75 347.324C1110.99 353.254 1112.59 361.649 1119.31 368.156C1127.27 375.882 1127.01 388.632 1122.91 398.756C1122.37 400.086 1121.76 401.476 1121.97 402.89C1122.18 404.305 1123.28 405.593 1124.31 406.72L1128.66 411.422C1118.37 413.802 1106.73 408.651 1101.94 399.612C1100.46 396.816 1099.48 393.597 1096.95 391.606C1094.69 389.827 1091.64 389.403 1088.82 388.607C1079.52 385.964 1071.73 377.822 1071.43 368.537C1071.29 364.174 1072.72 359.811 1072.07 355.49C1071.71 353.024 1070.69 350.689 1069.11 348.713C1066.68 345.671 1063.01 343.63 1061.03 340.241C1057.68 334.573 1060.22 327.211 1057.81 321.128C1057.07 319.265 1055.58 317.401 1053.5 317.257C1051.43 317.113 1049.65 318.765 1047.66 319.502C1043.52 321.044 1039.05 318.426 1035.59 315.74C1032.13 313.055 1028.24 310.005 1023.83 310.606C1020.92 310.996 1018.63 312.894 1015.96 313.885C1013.97 314.614 1009.96 315.266 1008.23 313.665C1004.57 310.437 1013.05 302.075 1014.58 299.059Z" fill="#591D4B"/>
<path opacity="0.1" d="M1104.39 396.816C1102.91 394.02 1101.94 390.801 1099.41 388.819C1097.14 387.04 1094.1 386.608 1091.27 385.811C1081.98 383.176 1074.18 375.035 1073.88 365.75C1073.74 361.387 1075.16 357.015 1074.53 352.695C1074.16 350.244 1073.14 347.925 1071.57 345.96C1069.13 342.918 1065.46 340.876 1063.49 337.488C1060.13 331.828 1062.68 324.466 1060.26 318.375C1059.52 316.52 1058.03 314.656 1055.96 314.504C1053.89 314.351 1052.1 316.02 1050.12 316.757C1045.98 318.299 1041.5 315.673 1038.05 312.996C1034.6 310.318 1030.68 307.26 1026.29 307.853C1023.38 308.251 1021.08 310.149 1018.41 311.132C1016.43 311.86 1012.41 312.521 1010.68 310.92C1007.03 307.531 1015.51 299.186 1017.03 296.187C1018.3 293.714 1018.93 290.96 1020.45 288.622C1020.53 288.495 1020.61 288.368 1020.7 288.241C1019.57 289.144 1018.58 290.213 1017.79 291.409C1016.28 293.747 1015.65 296.492 1014.39 298.975C1012.86 301.974 1004.38 310.344 1008.03 313.707C1009.8 315.317 1013.78 314.656 1015.76 313.927C1018.41 312.936 1020.73 311.039 1023.64 310.649C1028.06 310.047 1031.95 313.106 1035.4 315.783C1038.85 318.46 1043.35 321.086 1047.47 319.544C1049.45 318.807 1051.19 317.147 1053.31 317.299C1055.43 317.452 1056.85 319.307 1057.62 321.171C1060.03 327.254 1057.48 334.616 1060.83 340.283C1062.81 343.613 1066.48 345.697 1068.91 348.755C1070.5 350.731 1071.52 353.066 1071.88 355.533C1072.52 359.853 1071.1 364.216 1071.24 368.579C1071.53 377.899 1079.33 386.006 1088.63 388.649C1091.43 389.446 1094.49 389.869 1096.75 391.648C1099.29 393.639 1100.29 396.859 1101.74 399.654C1106.53 408.694 1118.18 413.845 1128.47 411.464L1126.42 409.244C1117.5 409.372 1108.47 404.509 1104.39 396.816Z" fill="black"/>
<path opacity="0.1" d="M1043.44 358.15C1042.28 359.845 1038.97 368.52 1036.2 376.094C1033.61 375.128 1031.26 368.969 1031.26 368.969L1045.07 350.145C1046.48 352.008 1045.56 355.101 1043.44 358.15Z" fill="black"/>
<path d="M1043.97 357.642C1042.81 359.337 1039.5 368.012 1036.73 375.586C1034.14 374.629 1031.79 368.461 1031.79 368.461L1045.6 349.645C1047.01 351.5 1046.09 354.601 1043.97 357.642Z" fill="#DCE7FF"/>
<path d="M963.677 444.191L956.021 421.054C955.93 420.783 955.896 420.498 955.921 420.214C955.946 419.931 956.029 419.655 956.165 419.402C956.302 419.15 956.489 418.925 956.716 418.742C956.943 418.559 957.206 418.42 957.489 418.335V418.335C958.058 418.164 958.675 418.216 959.205 418.48C959.735 418.743 960.135 419.196 960.318 419.741L967.974 442.852L967.214 447.69L963.677 444.191Z" fill="#BE8B87"/>
<path opacity="0.1" d="M956.746 419.021C957.317 418.848 957.936 418.899 958.468 419.162C959 419.426 959.401 419.881 959.584 420.427L967.24 443.539L966.666 447.164L967.223 447.724L967.983 442.886L960.282 419.775C960.1 419.23 959.7 418.777 959.17 418.514C958.64 418.25 958.023 418.198 957.453 418.369V418.369C956.974 418.518 956.56 418.816 956.277 419.216C956.428 419.138 956.584 419.073 956.746 419.021V419.021Z" fill="white"/>
<path d="M963.677 444.191L967.974 442.886L967.347 446.851L967.214 447.724L965.959 446.47L963.677 444.191Z" fill="#EFC8C4"/>
<path d="M965.958 446.47C966.033 446.379 966.126 446.304 966.232 446.249C966.295 446.212 966.367 446.192 966.44 446.192C966.514 446.192 966.586 446.212 966.648 446.249C966.708 446.319 966.759 446.396 966.798 446.478C966.857 446.572 966.936 446.651 967.031 446.712C967.126 446.772 967.234 446.811 967.346 446.826L967.214 447.673L965.958 446.47Z" fill="#727A9C"/>
<path d="M955.977 429.272C955.977 429.272 971.334 429.187 967.718 435.448C964.102 441.708 958.452 442.462 958.452 442.462L955.977 429.272Z" fill="#FFB0B1"/>
</svg>
