<svg width="300" height="175" viewBox="0 0 300 175" fill="none" xmlns="http://www.w3.org/2000/svg">
<path d="M142.65 133.149C219.518 133.149 281.832 129.585 281.832 125.19C281.832 120.794 219.518 117.231 142.65 117.231C65.7819 117.231 3.46802 120.794 3.46802 125.19C3.46802 129.585 65.7819 133.149 142.65 133.149Z" fill="#F2F2F2"/>
<path d="M137.315 38.0623C114.639 38.0623 98.3574 50.6287 98.3574 79.9505C98.3574 113.182 114.639 121.978 137.315 121.978C159.992 121.978 177.243 112.344 177.243 79.9505C177.243 45.3229 159.992 38.0623 137.315 38.0623ZM137.465 110.948C121.758 110.948 113.553 102.989 113.553 79.972C113.553 59.6631 122.094 48.9532 137.8 48.9532C153.507 48.9532 162.048 55.9881 162.048 79.972C162.048 102.409 153.171 110.948 137.465 110.948Z" fill="#2F2E41"/>
<path d="M84.7787 98.8001H75.4028V74.9524C75.4028 73.6858 74.8203 72.471 73.7834 71.5753C72.7464 70.6797 71.3401 70.1765 69.8736 70.1765H67.6767C66.9506 70.1765 66.2316 70.3 65.5607 70.54C64.8899 70.78 64.2803 71.1318 63.7669 71.5753C63.2535 72.0188 62.8462 72.5453 62.5683 73.1247C62.2904 73.7042 62.1474 74.3252 62.1474 74.9524V98.8001H35.7015C35.1575 98.8001 34.6226 98.6787 34.1489 98.4475C33.6753 98.2164 33.2788 97.8834 32.998 97.481C32.7171 97.0785 32.5615 96.6201 32.5462 96.1504C32.5309 95.6806 32.6564 95.2155 32.9106 94.8L60.9006 49.0413C61.2496 48.4708 61.4611 47.8452 61.5224 47.2021C61.5837 46.5591 61.4935 45.912 61.2573 45.2998C61.021 44.6877 60.6436 44.1233 60.1479 43.6407C59.6521 43.158 59.0483 42.7671 58.3728 42.4916L56.7205 41.8177C55.4375 41.2943 53.9707 41.2171 52.6236 41.6018C51.2765 41.9866 50.1521 42.8039 49.4832 43.8848L15.3456 99.0449C14.7643 99.9842 14.4602 101.033 14.4602 102.098C14.4602 102.948 14.6541 103.791 15.0309 104.576C15.4077 105.362 15.96 106.076 16.6562 106.677C17.3524 107.279 18.1789 107.756 19.0886 108.081C19.9982 108.407 20.9732 108.574 21.9578 108.574H62.1474V123.654C62.1474 124.406 62.3189 125.15 62.6519 125.845C62.985 126.539 63.4732 127.17 64.0886 127.702C64.7041 128.233 65.4347 128.655 66.2388 128.943C67.0429 129.23 67.9048 129.379 68.7751 129.379C69.6455 129.379 70.5073 129.23 71.3115 128.943C72.1156 128.655 72.8462 128.233 73.4616 127.702C74.0771 127.17 74.5653 126.539 74.8983 125.845C75.2314 125.15 75.4028 124.406 75.4028 123.654V108.574H84.7786C86.2792 108.574 87.7183 108.059 88.7793 107.143C89.8404 106.226 90.4364 104.983 90.4364 103.687C90.4364 102.391 89.8404 101.148 88.7793 100.231C87.7183 99.315 86.2792 98.8001 84.7787 98.8001Z" fill="#0275D8"/>
<path d="M258.392 98.8001H249.016V74.9524C249.016 73.6857 248.434 72.471 247.397 71.5753C246.36 70.6797 244.954 70.1765 243.487 70.1765H241.29C240.564 70.1765 239.845 70.3 239.174 70.54C238.503 70.78 237.894 71.1318 237.38 71.5753C236.867 72.0188 236.46 72.5453 236.182 73.1247C235.904 73.7042 235.761 74.3252 235.761 74.9524V98.8001H209.315C208.771 98.8001 208.236 98.6787 207.762 98.4475C207.289 98.2164 206.892 97.8834 206.611 97.481C206.331 97.0785 206.175 96.6201 206.16 96.1504C206.144 95.6806 206.27 95.2155 206.524 94.8L234.514 49.0413C234.863 48.4708 235.075 47.8452 235.136 47.2021C235.197 46.5591 235.107 45.912 234.871 45.2998C234.635 44.6877 234.257 44.1233 233.761 43.6407C233.266 43.158 232.662 42.7671 231.986 42.4916L230.334 41.8177C229.051 41.2943 227.584 41.2171 226.237 41.6018C224.89 41.9866 223.766 42.8039 223.097 43.8848L188.959 99.0449C188.378 99.9842 188.074 101.033 188.074 102.098C188.074 103.816 188.864 105.463 190.27 106.677C191.676 107.892 193.583 108.574 195.571 108.574H235.761V123.654C235.761 125.172 236.459 126.628 237.702 127.702C238.945 128.775 240.631 129.379 242.389 129.379C244.146 129.379 245.832 128.775 247.075 127.702C248.318 126.628 249.016 125.172 249.016 123.654V108.574H258.392C259.893 108.574 261.332 108.059 262.393 107.143C263.454 106.226 264.05 104.983 264.05 103.687C264.05 102.391 263.454 101.148 262.393 100.231C261.332 99.315 259.893 98.8001 258.392 98.8001Z" fill="#0275D8"/>
<path d="M87.3651 96.0077H77.9893V72.1599C77.9893 71.5327 77.8463 70.9117 77.5684 70.3323C77.2905 69.7528 76.8832 69.2263 76.3698 68.7828C75.8564 68.3393 75.2468 67.9876 74.576 67.7475C73.9051 67.5075 73.1861 67.384 72.46 67.384H70.2631C68.7967 67.384 67.3903 67.8872 66.3533 68.7828C65.3164 69.6785 64.7338 70.8933 64.7338 72.1599V96.0077H38.2879C37.7439 96.0077 37.2091 95.8862 36.7354 95.6551C36.2617 95.4239 35.8652 95.091 35.5844 94.6885C35.3036 94.286 35.1479 93.8276 35.1326 93.3579C35.1173 92.8882 35.2428 92.423 35.497 92.0075L63.4871 46.2489C63.836 45.6784 64.0475 45.0527 64.1088 44.4096C64.1701 43.7666 64.0799 43.1195 63.8437 42.5074C63.6075 41.8953 63.2301 41.3308 62.7343 40.8482C62.2386 40.3655 61.6347 39.9746 60.9593 39.6991L59.3069 39.0252C58.0239 38.5019 56.5571 38.4246 55.21 38.8093C53.8629 39.1941 52.7386 40.0114 52.0697 41.0923L17.9321 96.2525C17.3508 97.1918 17.0466 98.2404 17.0466 99.3055C17.0466 101.023 17.8366 102.67 19.2426 103.885C20.6487 105.099 22.5557 105.782 24.5442 105.782H64.7338V120.861C64.7338 121.613 64.9053 122.358 65.2384 123.052C65.5714 123.747 66.0596 124.378 66.6751 124.909C67.2905 125.441 68.0211 125.863 68.8252 126.15C69.6294 126.438 70.4912 126.586 71.3616 126.586C73.1193 126.586 74.8051 125.983 76.0481 124.909C77.291 123.836 77.9893 122.38 77.9893 120.861V105.782H87.3651C88.1081 105.782 88.8438 105.655 89.5302 105.41C90.2167 105.164 90.8404 104.804 91.3657 104.35C91.8911 103.896 92.3079 103.358 92.5922 102.765C92.8765 102.172 93.0229 101.536 93.0229 100.895C93.0229 100.253 92.8765 99.6174 92.5922 99.0245C92.3079 98.4315 91.8911 97.8928 91.3657 97.439C90.8404 96.9852 90.2167 96.6252 89.5302 96.3797C88.8438 96.1341 88.1081 96.0077 87.3651 96.0077Z" stroke="#0275D8" stroke-miterlimit="10"/>
<path d="M263.242 96.0077H253.866V72.1599C253.866 70.8933 253.284 69.6785 252.247 68.7828C251.21 67.8872 249.803 67.384 248.337 67.384H246.14C245.414 67.384 244.695 67.5075 244.024 67.7475C243.353 67.9876 242.744 68.3393 242.23 68.7828C241.717 69.2263 241.31 69.7528 241.032 70.3323C240.754 70.9117 240.611 71.5327 240.611 72.1599V96.0077H214.165C213.621 96.0077 213.086 95.8862 212.612 95.6551C212.139 95.4239 211.742 95.091 211.461 94.6885C211.181 94.286 211.025 93.8276 211.01 93.3579C210.994 92.8882 211.12 92.423 211.374 92.0075L239.364 46.2489C239.713 45.6784 239.925 45.0527 239.986 44.4096C240.047 43.7666 239.957 43.1195 239.721 42.5074C239.484 41.8953 239.107 41.3308 238.611 40.8482C238.116 40.3655 237.512 39.9746 236.836 39.6991L235.184 39.0252C233.901 38.5019 232.434 38.4246 231.087 38.8093C229.74 39.1941 228.616 40.0114 227.947 41.0923L193.809 96.2525C193.228 97.1918 192.924 98.2404 192.924 99.3055C192.924 101.023 193.714 102.67 195.12 103.885C196.526 105.099 198.433 105.782 200.421 105.782H240.611V120.861C240.611 122.38 241.309 123.836 242.552 124.909C243.795 125.983 245.481 126.586 247.239 126.586V126.586C248.996 126.586 250.682 125.983 251.925 124.909C253.168 123.836 253.866 122.38 253.866 120.861V105.782H263.242C263.985 105.782 264.721 105.655 265.407 105.41C266.094 105.164 266.717 104.804 267.243 104.35C267.768 103.896 268.185 103.358 268.469 102.765C268.753 102.172 268.9 101.536 268.9 100.895V100.895C268.9 99.5985 268.304 98.3555 267.243 97.439C266.182 96.5225 264.743 96.0077 263.242 96.0077V96.0077Z" stroke="#3F3D56" stroke-miterlimit="10"/>
<path d="M142.488 35.5488C119.812 35.5488 103.53 48.1153 103.53 77.4371C103.53 110.668 119.812 119.465 142.488 119.465C165.165 119.465 182.416 109.831 182.416 77.4371C182.416 42.8095 165.165 35.5488 142.488 35.5488ZM142.637 108.434C126.931 108.434 118.726 100.475 118.726 77.4586C118.726 57.1496 127.267 46.4398 142.973 46.4398C158.68 46.4398 167.221 53.4747 167.221 77.4586C167.221 99.8951 158.344 108.434 142.637 108.434V108.434Z" stroke="#3F3D56" stroke-miterlimit="10"/>
<path d="M126.899 77.7416C129.376 77.7416 131.384 75.4968 131.384 72.7278C131.384 69.9587 129.376 67.7139 126.899 67.7139C124.421 67.7139 122.413 69.9587 122.413 72.7278C122.413 75.4968 124.421 77.7416 126.899 77.7416Z" fill="#2F2E41"/>
<path d="M151.305 77.8554C153.782 77.8554 155.791 75.6106 155.791 72.8415C155.791 70.0724 153.782 67.8276 151.305 67.8276C148.828 67.8276 146.82 70.0724 146.82 72.8415C146.82 75.6106 148.828 77.8554 151.305 77.8554Z" fill="#2F2E41"/>
<path d="M147.875 87.6556C147.875 89.9209 144.213 91.7578 139.696 91.7578C135.178 91.7578 131.516 89.9209 131.516 87.6556C131.516 85.6933 134.263 84.0524 137.933 83.6513C138.517 83.5847 139.106 83.552 139.696 83.5533C140.683 83.5505 141.668 83.6423 142.632 83.8268C145.698 84.417 147.875 85.9098 147.875 87.6556Z" fill="#2F2E41"/>
<path d="M127.954 76.6018C130.431 76.6018 132.439 74.357 132.439 71.5879C132.439 68.8188 130.431 66.574 127.954 66.574C125.477 66.574 123.469 68.8188 123.469 71.5879C123.469 74.357 125.477 76.6018 127.954 76.6018Z" stroke="#3F3D56" stroke-miterlimit="10"/>
<path d="M152.36 76.716C154.838 76.716 156.846 74.4712 156.846 71.7021C156.846 68.933 154.838 66.6882 152.36 66.6882C149.883 66.6882 147.875 68.933 147.875 71.7021C147.875 74.4712 149.883 76.716 152.36 76.716Z" stroke="#3F3D56" stroke-miterlimit="10"/>
<path d="M140.751 90.6181C145.268 90.6181 148.93 88.7815 148.93 86.5158C148.93 84.2502 145.268 82.4136 140.751 82.4136C136.234 82.4136 132.572 84.2502 132.572 86.5158C132.572 88.7815 136.234 90.6181 140.751 90.6181Z" stroke="#3F3D56" stroke-miterlimit="10"/>
<path d="M142.73 84.1683C142.732 84.4549 142.607 84.7314 142.382 84.9414C142.275 85.0419 142.145 85.1224 142.001 85.1776C141.856 85.2328 141.7 85.2616 141.542 85.2623H138.904C138.579 85.2525 138.271 85.1319 138.049 84.9269C137.826 84.7219 137.707 84.4492 137.717 84.1683C137.715 83.9461 137.791 83.7286 137.933 83.5436C138.517 83.4726 139.106 83.4376 139.695 83.439C140.684 83.4362 141.67 83.5341 142.632 83.7307C142.697 83.8697 142.73 84.0184 142.73 84.1683V84.1683Z" fill="white"/>
<path d="M127.954 71.3601C128.683 71.3601 129.273 70.8499 129.273 70.2206C129.273 69.5912 128.683 69.0811 127.954 69.0811C127.225 69.0811 126.635 69.5912 126.635 70.2206C126.635 70.8499 127.225 71.3601 127.954 71.3601Z" fill="white"/>
<path d="M152.492 71.3601C153.221 71.3601 153.812 70.8499 153.812 70.2206C153.812 69.5912 153.221 69.0811 152.492 69.0811C151.764 69.0811 151.173 69.5912 151.173 70.2206C151.173 70.8499 151.764 71.3601 152.492 71.3601Z" fill="white"/>
<path opacity="0.3" d="M153.811 82.0718C154.54 82.0718 155.131 81.5616 155.131 80.9322C155.131 80.3029 154.54 79.7927 153.811 79.7927C153.083 79.7927 152.492 80.3029 152.492 80.9322C152.492 81.5616 153.083 82.0718 153.811 82.0718Z" fill="#6C63FF"/>
<path opacity="0.3" d="M121.622 82.0718C122.35 82.0718 122.941 81.5616 122.941 80.9322C122.941 80.3029 122.35 79.7927 121.622 79.7927C120.893 79.7927 120.302 80.3029 120.302 80.9322C120.302 81.5616 120.893 82.0718 121.622 82.0718Z" fill="#6C63FF"/>
<path opacity="0.1" d="M271.636 175C287.301 175 300 173.647 300 171.978C300 170.31 287.301 168.957 271.636 168.957C255.971 168.957 243.272 170.31 243.272 171.978C243.272 173.647 255.971 175 271.636 175Z" fill="#6C63FF"/>
<path opacity="0.1" d="M275.319 91.7566H268.685V97.2477H275.319V91.7566Z" fill="#6C63FF"/>
<path opacity="0.1" d="M275.319 105.301H268.685V110.792H275.319V105.301Z" fill="#6C63FF"/>
<path opacity="0.1" d="M275.319 118.844H268.685V124.335H275.319V118.844Z" fill="#6C63FF"/>
<path opacity="0.1" d="M275.319 132.388H268.685V137.879H275.319V132.388Z" fill="#6C63FF"/>
<path d="M289.239 167.429L288.961 170.165L289.892 170.011L289.752 167.043L289.239 167.429Z" fill="#1D2366"/>
<path d="M268.004 154.439C266.882 157.084 267.199 160.654 267.451 162.388C267.544 163.029 267.631 163.419 267.631 163.419C267.631 163.419 265.953 166.582 265.813 166.701C265.673 166.821 260.877 169.244 260.877 169.244L257.525 170.864C257.525 170.864 254.124 169.63 255.754 169.206C256.088 169.095 256.388 168.926 256.634 168.709C258.267 167.425 260.317 164.234 260.317 164.234C260.317 164.234 260.457 162.614 260.971 161.844C261.484 161.073 261.297 152.977 261.297 152.977L261.337 139.781V138.06L267.717 138.099C267.757 138.683 267.849 139.264 267.992 139.837C268.221 140.825 268.518 141.803 268.881 142.764C270.005 145.774 269.539 150.815 268.004 154.439Z" fill="#FFB0B1"/>
<path opacity="0.1" d="M267.631 163.419C267.631 163.419 265.953 166.582 265.813 166.702C265.673 166.821 260.877 169.244 260.877 169.244L257.525 170.864C257.525 170.864 254.124 169.631 255.754 169.206C256.088 169.095 256.388 168.926 256.634 168.71L256.779 169.553L257.896 169.515L267.46 162.392C267.544 163.029 267.631 163.419 267.631 163.419Z" fill="black"/>
<path d="M267.514 162.572L257.896 169.742L256.779 169.781L256.545 168.43C256.545 168.43 254.59 170.511 250.247 170.395C250.247 170.395 247.639 171.822 251.504 171.899C255.37 171.976 260.306 171.783 260.306 171.783C260.306 171.783 263.754 167.342 266.639 167.922V171.275H267.526V167.891C267.938 167.661 268.29 167.365 268.56 167.02C268.83 166.675 269.013 166.288 269.098 165.883C269.175 165.465 269.12 165.039 268.94 164.644C268.76 164.249 268.46 163.899 268.069 163.628C267.895 163.492 267.755 163.329 267.66 163.147C267.564 162.965 267.515 162.77 267.514 162.572V162.572Z" fill="#1D2366"/>
<path d="M290.125 158.563C289.505 160.397 289.843 161.43 290.267 161.985V161.996C290.812 162.68 291.191 163.446 291.382 164.249L291.42 164.423L287.044 169.704L284.669 170.476C284.669 170.476 280.85 169.397 281.548 169.088C281.722 169.013 281.995 168.611 282.308 168.057C283.241 166.387 284.529 163.305 284.529 163.305V163.28C284.664 162.008 284.879 160.739 285.117 159.476C285.544 157.204 284.76 151.626 284.76 151.626C284.76 151.626 284.48 144.843 283.873 143.3C283.599 142.516 283.417 141.712 283.33 140.899C283.204 139.933 283.176 139.138 283.176 139.138C283.176 139.138 285.691 136.242 290.3 139.369C290.669 139.619 290.993 139.91 291.263 140.234C294.448 143.984 291.884 152.244 291.884 152.244C291.884 152.244 291.242 155.248 290.125 158.563Z" fill="#FFB0B1"/>
<path opacity="0.1" d="M291.427 164.423L287.051 169.704L284.676 170.476C284.676 170.476 280.857 169.397 281.555 169.088C281.73 169.013 282.003 168.611 282.315 168.057C283.932 168.045 284.769 169.32 284.769 169.32L286.818 169.049C286.818 169.049 289.519 164.655 290.125 164.386C290.732 164.118 290.219 162.38 290.219 162.38V161.938C290.235 161.954 290.249 161.971 290.268 161.987V161.998C290.812 162.682 291.191 163.448 291.383 164.251L291.427 164.423Z" fill="black"/>
<path d="M284.909 169.434C284.909 169.434 283.743 167.661 281.508 168.316C281.508 168.316 280.251 170.44 278.993 170.783C277.736 171.127 278.156 172.285 280.997 171.862C283.838 171.44 288.121 171.09 288.121 171.09L288.308 168.93L291.196 165.885C291.196 165.885 292.918 164.593 290.356 162.05V162.492C290.356 162.492 290.869 164.23 290.263 164.499C289.656 164.767 286.964 169.163 286.964 169.163L284.909 169.434Z" fill="#1D2366"/>
<path opacity="0.1" d="M267.724 138.095C267.764 138.679 267.856 139.26 267.999 139.833C265.372 139.514 262.935 139.672 261.337 139.777V138.056L267.724 138.095Z" fill="black"/>
<path opacity="0.1" d="M291.523 140.715C291.523 140.715 287.79 140.866 283.339 140.897C283.213 139.931 283.185 139.136 283.185 139.136C283.185 139.136 285.7 136.24 290.31 139.367C290.678 139.617 291.003 139.908 291.273 140.232C291.345 140.397 291.429 140.558 291.523 140.715V140.715Z" fill="black"/>
<path d="M291.523 140.368C291.523 140.368 275.175 141.022 270.192 139.866C265.209 138.709 260.271 139.711 259.527 139.443C258.782 139.174 259.387 134.971 260.04 133.93C260.693 132.89 264.276 122.365 264.276 122.365L267.724 107.487L271.356 106.658L271.613 106.598L277.941 105.154L282.579 104.094C282.579 104.094 291.8 133.892 291.01 136.089C290.722 136.93 290.676 137.816 290.874 138.674C290.995 139.261 291.213 139.831 291.523 140.368V140.368Z" fill="#0275D8"/>
<path d="M255.705 97.3115C255.705 97.3115 252.439 100.208 254.912 101.822C257.385 103.436 259.011 101.976 259.011 101.976L255.705 97.3115Z" fill="#C7DAF5"/>
<path opacity="0.1" d="M255.705 97.3115C255.705 97.3115 252.439 100.208 254.912 101.822C257.385 103.436 259.011 101.976 259.011 101.976L255.705 97.3115Z" fill="black"/>
<path d="M282.091 78.2703C282.091 78.2703 281.709 78.5715 281.133 79.0156C280.311 79.6508 279.096 80.5795 278.018 81.3576C276.525 82.433 275.294 83.2227 275.735 82.5489C276.175 81.8751 276.092 80.7011 275.872 79.6025C275.856 79.5292 275.842 79.4558 275.826 79.3844C275.644 78.5775 275.403 77.7806 275.105 76.9979C275.105 76.9979 277.517 74.4184 278.851 73.4009C279.348 73.0147 279.696 72.8564 279.717 73.1248C279.74 73.4859 280.067 74.2833 280.472 75.1289C280.484 75.156 280.496 75.1811 280.51 75.2081C280.78 75.7873 281.086 76.382 281.354 76.8956C281.765 77.6834 282.091 78.2703 282.091 78.2703Z" fill="#FFB0B1"/>
<path opacity="0.1" d="M280.51 75.208C280.283 76.2171 279.733 77.1573 278.917 77.9303C278.102 78.7034 277.05 79.2809 275.872 79.6025C275.687 78.7211 275.43 77.8509 275.105 76.9979C275.105 76.9979 279.647 72.142 279.717 73.1247C279.733 73.4974 280.088 74.3237 280.51 75.208Z" fill="black"/>
<path opacity="0.1" d="M275.419 80.8998L276.007 80.2144C276.007 80.2144 276.397 82.1799 277.829 81.313C279.261 80.446 279.331 87.837 279.331 87.837L277.794 106.861L266.686 106.311L267 97.1183L268.258 92.4844L271.367 85.7479L273.217 83.5218L275.419 80.8998Z" fill="black"/>
<path d="M279.332 87.9549L277.932 105.156L277.785 106.979L271.591 106.672L271.358 106.66L266.693 106.428L267.008 97.2341L268.265 92.6003L271.374 85.8638L273.224 83.6376L275.427 81.006L276.014 80.3225C276.014 80.3225 276.404 82.288 277.836 81.4211L277.867 81.4037C279.266 80.67 279.332 87.9549 279.332 87.9549Z" fill="#1D2366"/>
<path d="M268.421 90.9902C268.421 90.9902 267.864 91.9556 266.744 91.7992C265.624 91.6428 265.627 95.2746 265.627 95.2746C265.627 95.2746 264.883 95.8539 264.369 95.3519C263.856 94.8498 262.503 96.547 262.503 96.547L254.026 96.8559C254.026 96.8559 257.798 98.2828 257.058 102.6C257.058 102.6 269.865 101.944 270.285 100.941C270.705 99.9394 268.421 90.9902 268.421 90.9902Z" fill="white"/>
<path opacity="0.03" d="M268.421 90.9902C268.421 90.9902 267.864 91.9556 266.744 91.7992C265.624 91.6428 265.627 95.2746 265.627 95.2746C265.627 95.2746 264.883 95.8539 264.369 95.3519C263.856 94.8498 262.503 96.547 262.503 96.547L254.026 96.8559C254.026 96.8559 257.798 98.2828 257.058 102.6C257.058 102.6 269.865 101.944 270.285 100.941C270.705 99.9394 268.421 90.9902 268.421 90.9902Z" fill="black"/>
<path d="M243.785 99.1243L246.02 100.704L264.416 103.903L262.134 101.976L243.785 99.1243Z" fill="white"/>
<path d="M275.454 81.5082C275.149 81.8943 274.274 83.8714 273.544 85.5975C272.935 87.036 272.427 88.3006 272.427 88.3006C272.427 88.3006 271.239 94.6992 270.633 95.8557C270.026 97.0123 270.355 101.523 270.355 101.523L268.095 112.661C268.095 112.661 267.071 118.405 265.489 121.836C263.928 125.213 262.19 126.796 262.137 126.847C262.837 126.063 266.651 110.628 266.651 110.628L267.91 91.162C267.91 91.162 268.095 89.3123 268.281 87.731C268.468 86.1497 272.247 83.9911 272.247 83.9911L275.891 79.7029C276.257 80.1083 276.012 80.815 275.454 81.5082Z" fill="white"/>
<path d="M265.953 106.525C265.953 106.525 260.588 106.332 257.989 103.749C255.391 101.165 263.996 102.718 263.996 102.718L266.233 103.142L265.953 106.525Z" fill="#FFB0B1"/>
<path opacity="0.1" d="M291.01 136.091C290.722 136.932 290.676 137.818 290.874 138.676C285.021 139.02 278.76 137.711 278.76 137.711C277.594 138.599 274.522 139.908 274.522 139.908L272.847 122.724C271.776 120.407 271.356 108.269 271.356 108.269C271.356 108.269 271.452 107.633 271.589 106.681C271.589 106.658 271.589 106.633 271.601 106.61C272.018 103.951 272.847 98.9603 273.252 98.2865C273.812 97.3597 271.531 94.8941 271.531 94.8941L272.569 87.5668L272.695 86.6826C274.883 85.8736 276.56 83.2902 276.56 83.2902L277.848 81.4231C279.248 80.6798 279.32 87.9646 279.32 87.9646L277.92 105.166L282.558 104.106C282.558 104.106 291.8 133.894 291.01 136.091Z" fill="black"/>
<path d="M297.016 137.278C290.636 139.9 279.04 137.472 279.04 137.472C277.874 138.36 274.802 139.669 274.802 139.669L273.124 122.485C272.056 120.168 271.636 108.029 271.636 108.029C271.636 108.029 272.984 98.972 273.544 98.0471C273.707 97.7768 273.628 97.3752 273.435 96.9427C272.483 94.8842 272.133 92.6685 272.413 90.4766L272.861 87.3275L272.984 86.4451C275.175 85.6342 276.852 83.0508 276.852 83.0508L278.018 81.3594L280.165 78.2432L281.182 76.7681L281.354 76.8974L282.672 77.886C282.672 77.886 283.232 78.2721 284.072 78.8514C285.899 80.1257 289.055 82.3692 290.683 83.742C292.115 84.9507 292.568 89.6521 292.699 93.1912C292.785 95.5217 292.734 97.3482 292.734 97.3482C291.29 99.3156 295.066 115.111 295.066 115.111C295.946 118.164 297.016 137.278 297.016 137.278Z" fill="white"/>
<path opacity="0.03" d="M284.769 83.0123C284.769 83.0123 280.391 89.911 280.899 92.533C281.408 95.155 282.854 98.1226 282.157 98.8157C281.917 99.0783 281.607 99.2915 281.252 99.4385C280.896 99.5856 280.504 99.6625 280.106 99.6633C279.406 99.7019 277.54 100.781 277.54 100.897C277.54 101.013 275.816 101.013 274.274 101.554C272.732 102.094 270.456 102.401 270.456 102.401C270.456 102.401 266.023 102.285 265.61 102.633C265.197 102.98 264.773 105.06 265.657 106.718C266.541 108.377 267.523 109.615 268.265 109.84C269.007 110.066 273.714 108.761 277.533 108.452C281.352 108.143 285.497 105.639 285.497 105.639C285.497 105.639 290.062 104.288 290.863 102.015C291.663 99.7425 289.885 87.2523 289.885 87.2523C289.885 87.2523 288.541 81.431 284.769 83.0123Z" fill="black"/>
<path opacity="0.03" d="M284.209 82.4329C284.209 82.4329 279.831 89.3335 280.344 91.9536C280.857 94.5736 282.299 97.5432 281.599 98.2382C281.36 98.5011 281.051 98.7145 280.696 98.8616C280.34 99.0087 279.948 99.0855 279.551 99.0858C278.851 99.1245 276.985 100.204 276.985 100.32C276.985 100.435 275.261 100.435 273.719 100.974C272.177 101.513 269.9 101.822 269.9 101.822C269.9 101.822 265.468 101.706 265.057 102.053C264.647 102.401 264.218 104.482 265.104 106.139C265.99 107.796 266.97 109.035 267.712 109.261C268.454 109.487 273.161 108.182 276.98 107.875C280.799 107.568 284.944 105.06 284.944 105.06C284.944 105.06 289.507 103.708 290.298 101.438C291.089 99.1669 289.32 86.6729 289.32 86.6729C289.32 86.6729 287.981 80.8536 284.209 82.4329Z" fill="black"/>
<path d="M284.632 82.6644C284.632 82.6644 280.253 89.565 280.766 92.1851C281.279 94.8051 282.721 97.7747 282.024 98.4678C281.785 98.7313 281.475 98.9453 281.119 99.0927C280.764 99.2401 280.371 99.317 279.973 99.3173C279.273 99.356 277.407 100.435 277.407 100.549C277.407 100.663 275.686 100.665 274.141 101.206C272.597 101.746 270.322 102.053 270.322 102.053C270.322 102.053 265.89 101.937 265.477 102.285C265.064 102.632 264.64 104.714 265.524 106.37C266.408 108.027 267.39 109.267 268.132 109.493C268.874 109.718 273.581 108.413 277.4 108.104C281.219 107.795 285.364 105.291 285.364 105.291C285.364 105.291 289.929 103.94 290.73 101.667C291.53 99.3946 289.764 86.9044 289.764 86.9044C289.764 86.9044 288.401 81.0928 284.632 82.6644Z" fill="white"/>
<path opacity="0.1" d="M284.536 101.173C284.536 101.173 281.037 100.594 282.255 101.559C283.472 102.525 283.465 103.37 284.956 103.332C286.447 103.293 284.536 101.173 284.536 101.173Z" fill="black"/>
<path opacity="0.1" d="M290.45 121.944C290.45 121.944 288.868 122.831 291.894 124.873C294.919 126.916 290.45 121.944 290.45 121.944Z" fill="black"/>
<path opacity="0.1" d="M287.431 129.229C287.431 129.345 286.871 133.477 288.966 134.51C291.061 135.543 287.431 129.229 287.431 129.229Z" fill="black"/>
<path d="M254.17 96.8462C252.481 96.8945 248.833 97.3212 250.725 100.242C252.397 102.828 255.208 101.1 256.79 99.7887C256.404 98.5664 255.466 97.5132 254.17 96.8462V96.8462Z" fill="#FFB0B1"/>
<path d="M256.811 99.7655L256.881 99.7056L256.811 99.7655Z" fill="#FFB0B1"/>
<path opacity="0.1" d="M284.072 78.969C282.28 79.9827 280.778 80.838 280.484 81.0156C279.681 81.508 278.151 84.3983 277.164 85.8734C276.378 87.0609 273.824 87.3659 272.86 87.4412L272.984 86.5589C275.174 85.7479 276.852 83.1646 276.852 83.1646L281.181 76.8818L282.672 78.0036C282.672 78.0036 283.232 78.3898 284.072 78.969Z" fill="black"/>
<path d="M284.072 78.8533C282.28 79.8669 280.778 80.7223 280.484 80.9018C279.681 81.3922 278.151 84.2826 277.164 85.7577C276.378 86.9452 273.824 87.2502 272.86 87.3255L272.984 86.4431C275.174 85.6322 276.852 83.0489 276.852 83.0489L281.181 76.7661L282.672 77.884C282.672 77.884 283.232 78.2663 284.072 78.8533Z" fill="#DCE7FF"/>
<path d="M280.624 73.9335C280.625 75.0925 280.2 76.2244 279.406 77.1791C278.469 78.3079 277.073 79.1211 275.473 79.4711C273.873 79.8211 272.174 79.6847 270.685 79.0867C269.196 78.4887 268.015 77.4688 267.357 76.2119C266.699 74.955 266.607 73.5444 267.097 72.2361C267.588 70.9279 268.629 69.8086 270.032 69.0814C271.435 68.3541 273.106 68.0671 274.742 68.2725C276.379 68.4778 277.872 69.1619 278.951 70.2005C280.03 71.2391 280.624 72.5636 280.624 73.9335V73.9335Z" fill="#FFB0B1"/>
<path opacity="0.1" d="M292.698 93.1929C291.751 92.7106 290.98 92.0246 290.466 91.2081C290.076 90.5709 289.817 89.8353 289.153 89.3835C288.553 88.9781 287.753 88.8796 287.006 88.6981C284.552 88.0976 282.495 86.2441 282.418 84.128C282.381 83.1317 282.756 82.1373 282.586 81.1507C282.489 80.5923 282.221 80.0638 281.807 79.6157C281.601 79.4014 281.376 79.2007 281.133 79.0153C280.806 78.7604 280.463 78.5133 280.164 78.243C279.976 78.0756 279.812 77.891 279.675 77.6927C279.564 77.5304 279.474 77.3589 279.406 77.181C278.94 75.9994 279.364 74.5977 278.851 73.4025L278.823 73.3369C278.629 72.9121 278.235 72.4873 277.687 72.4545C277.139 72.4217 276.67 72.7982 276.147 72.9662C275.053 73.3176 273.873 72.719 272.961 72.1089C272.049 71.4988 271.02 70.8018 269.861 70.9369C269.093 71.0277 268.487 71.4602 267.78 71.6841C267.62 71.7353 267.456 71.7747 267.288 71.8019C267.886 70.5672 268.985 69.5434 270.396 68.9065C271.807 68.2696 273.442 68.0594 275.02 68.3118C276.598 68.5642 278.021 69.2637 279.043 70.2899C280.066 71.3161 280.625 72.6051 280.624 73.9354C280.625 74.3371 280.574 74.7377 280.472 75.1306C280.484 75.1576 280.496 75.1827 280.51 75.2097C280.78 75.7889 281.086 76.3836 281.354 76.8972L282.672 77.8858C282.672 77.8858 283.232 78.2719 284.072 78.8512C285.898 80.1255 289.055 82.369 290.683 83.7418C292.115 84.9543 292.563 89.6538 292.698 93.1929Z" fill="black"/>
<path d="M267.698 68.1567C268.032 67.5948 268.197 66.9654 268.596 66.4325C269.182 65.6602 270.204 65.1659 271.253 64.8666C273.994 64.0847 279.787 62.9494 281.517 64.8666C281.858 65.2528 282.14 65.6814 282.612 65.9479C282.971 66.1506 283.405 66.2375 283.799 66.39C284.902 66.8186 285.607 67.7531 285.982 68.7069C286.358 69.6607 286.47 70.684 286.745 71.6668C287.097 72.9276 287.716 74.1228 288.331 75.3102C289.057 76.7119 289.827 78.1658 291.226 79.1563C293.137 80.5078 293.559 82.4212 295.332 83.9041C297.432 85.6649 297.364 88.5707 296.282 90.878C296.139 91.1811 295.978 91.4978 296.034 91.8202C296.09 92.1427 296.38 92.4361 296.652 92.6929L297.8 93.7645C295.085 94.3071 292.013 93.1331 290.748 91.073C290.359 90.4359 290.1 89.7022 289.433 89.2484C288.835 88.843 288.033 88.7464 287.289 88.5649C284.835 87.9625 282.777 86.1071 282.7 83.9909C282.663 82.9966 283.038 82.0022 282.868 81.0175C282.773 80.4554 282.504 79.9232 282.087 79.4729C281.445 78.7798 280.477 78.3145 279.954 77.5422C279.07 76.2505 279.742 74.5726 279.105 73.1863C278.909 72.7616 278.518 72.3368 277.969 72.304C277.421 72.2711 276.952 72.6476 276.427 72.8156C275.336 73.167 274.155 72.5704 273.243 71.9584C272.331 71.3463 271.302 70.6512 270.141 70.7883C269.373 70.8771 268.769 71.3096 268.062 71.5355C267.539 71.7016 266.48 71.8502 266.023 71.4853C265.057 70.7497 267.295 68.844 267.698 68.1567Z" fill="#591D4B"/>
<path opacity="0.1" d="M291.396 90.436C291.005 89.7988 290.748 89.0651 290.081 88.6133C289.484 88.2078 288.681 88.1094 287.935 87.9279C285.483 87.3274 283.425 85.4719 283.346 83.3558C283.309 82.3615 283.684 81.3652 283.516 80.3805C283.419 79.822 283.15 79.2935 282.735 78.8455C282.091 78.1524 281.123 77.6871 280.603 76.9147C279.719 75.625 280.39 73.9471 279.751 72.5589C279.558 72.1361 279.163 71.7113 278.618 71.6766C278.072 71.6418 277.598 72.0222 277.076 72.1901C275.984 72.5415 274.801 71.943 273.891 71.3329C272.982 70.7228 271.948 70.0257 270.789 70.1609C270.021 70.2516 269.415 70.6841 268.71 70.9081C268.188 71.0742 267.126 71.2248 266.669 70.8598C265.708 70.0875 267.945 68.1857 268.346 67.5022C268.68 66.9384 268.846 66.3109 269.247 65.778C269.268 65.7491 269.291 65.7201 269.315 65.6912C269.014 65.897 268.755 66.1406 268.547 66.4133C268.148 66.9462 267.982 67.5717 267.649 68.1374C267.245 68.8209 265.008 70.7285 265.972 71.4951C266.438 71.8619 267.488 71.7113 268.01 71.5453C268.71 71.3194 269.321 70.8869 270.089 70.7981C271.255 70.661 272.282 71.358 273.192 71.9681C274.101 72.5782 275.291 73.1768 276.378 72.8254C276.901 72.6574 277.358 72.279 277.918 72.3137C278.478 72.3485 278.851 72.7713 279.054 73.1961C279.691 74.5824 279.019 76.2602 279.903 77.5519C280.425 78.3107 281.394 78.7857 282.035 79.4827C282.453 79.933 282.722 80.4652 282.817 81.0273C282.987 82.012 282.611 83.0063 282.649 84.0007C282.726 86.1245 284.783 87.9723 287.237 88.5747C287.977 88.7562 288.784 88.8527 289.381 89.2582C290.05 89.7119 290.314 90.4456 290.697 91.0828C291.961 93.1429 295.033 94.3168 297.749 93.7743L297.207 93.2684C294.854 93.2974 292.472 92.1891 291.396 90.436Z" fill="black"/>
<path opacity="0.1" d="M275.315 81.6239C275.009 82.0101 274.134 83.9872 273.404 85.7133C272.721 85.4932 272.1 84.0895 272.1 84.0895L275.744 79.7993C276.117 80.2241 275.872 80.9288 275.315 81.6239Z" fill="black"/>
<path d="M275.455 81.508C275.149 81.8941 274.274 83.8712 273.544 85.5973C272.861 85.3792 272.24 83.9736 272.24 83.9736L275.884 79.6853C276.257 80.1081 276.012 80.8148 275.455 81.508Z" fill="#DCE7FF"/>
<path d="M254.269 101.233L252.248 95.9601C252.224 95.8984 252.216 95.8333 252.222 95.7687C252.229 95.7041 252.25 95.6412 252.286 95.5836C252.322 95.5261 252.372 95.4749 252.432 95.4332C252.492 95.3914 252.561 95.3599 252.636 95.3403V95.3403C252.786 95.3015 252.949 95.3134 253.089 95.3734C253.228 95.4334 253.334 95.5367 253.382 95.6608L255.402 100.928L255.202 102.03L254.269 101.233Z" fill="#BE8B87"/>
<path opacity="0.1" d="M252.44 95.4966C252.59 95.4571 252.754 95.4687 252.894 95.5288C253.034 95.5889 253.14 95.6925 253.188 95.8171L255.209 101.084L255.057 101.911L255.204 102.038L255.405 100.936L253.373 95.6684C253.324 95.5443 253.219 95.441 253.079 95.381C252.939 95.3209 252.777 95.309 252.626 95.3479V95.3479C252.5 95.3819 252.39 95.4498 252.316 95.541C252.356 95.5234 252.397 95.5085 252.44 95.4966V95.4966Z" fill="white"/>
<path d="M254.269 101.233L255.402 100.936L255.237 101.839L255.202 102.038L254.87 101.752L254.269 101.233Z" fill="#EFC8C4"/>
<path d="M254.87 101.752C254.89 101.732 254.915 101.715 254.943 101.702C254.959 101.694 254.978 101.689 254.998 101.689C255.017 101.689 255.036 101.694 255.052 101.702C255.068 101.718 255.082 101.736 255.092 101.754C255.107 101.776 255.128 101.794 255.153 101.807C255.178 101.821 255.207 101.83 255.237 101.833L255.202 102.026L254.87 101.752Z" fill="#727A9C"/>
<path d="M252.237 97.8328C252.237 97.8328 256.289 97.8135 255.334 99.2403C254.38 100.667 252.89 100.839 252.89 100.839L252.237 97.8328Z" fill="#FFB0B1"/>
</svg>
