<svg width="100" height="300" viewBox="0 0 100 300" fill="none" xmlns="http://www.w3.org/2000/svg">
<path d="M44.3994 221.345C44.1062 222.146 43.8831 222.976 43.7332 223.824C43.3677 226.146 43.2661 228.509 43.4308 230.859C43.5929 234.241 43.4308 256.907 43.4308 256.907C43.4308 256.907 39.964 262.951 38.0268 265.082C36.0896 267.213 41.9713 271.04 41.9713 271.04C42.8479 276.553 37.5359 282.776 37.5359 282.776C32.1362 275.577 25.6058 284.549 25.6058 284.549C25.6058 284.549 22.0557 277.785 21.1704 275.369C20.2851 272.953 24.6372 271.286 26.1668 270.3C27.6964 269.315 26.0879 263.536 26.0879 263.536C26.0879 263.536 24.7994 258.468 23.2654 253.844C21.7314 249.22 24.9572 226.206 24.9572 226.206C24.9572 226.206 25.1237 222.113 25.5225 220.688C25.7216 219.659 25.7616 218.601 25.6409 217.557C25.6146 217.204 25.5839 216.914 25.562 216.712C25.5401 216.509 25.5225 216.422 25.5225 216.422L25.5839 216.306L27.7753 211.802C27.7753 211.802 45.4513 218.509 44.3994 221.345Z" fill="#0275D8"/>
<path opacity="0.1" d="M56.1404 300C80.3634 300 100 296.541 100 292.275C100 288.008 80.3634 284.549 56.1404 284.549C31.9174 284.549 12.2808 288.008 12.2808 292.275C12.2808 296.541 31.9174 300 56.1404 300Z" fill="#0275D8"/>
<path d="M95.8766 107.061C95.8766 107.061 94.104 106.793 94.104 104.006C94.104 101.218 92.8353 95.9976 92.8353 95.9976C92.8353 95.9976 91.7376 86.9143 90.2215 85.4742C88.7053 84.0341 86.7573 75.5785 86.7573 75.5785C86.7573 75.5785 86.4244 70.9906 85.7451 70.003C85.0657 69.0154 84.1479 66.5974 82.7938 63.148C81.4396 59.6986 75.8069 57.3341 75.8069 57.3341C75.8069 57.3341 65.5989 50.9315 62.706 48.8444C62.4415 48.6714 62.1942 48.4693 61.9682 48.2411C61.4643 47.5308 59.2689 47.5162 59.2689 47.5162C59.0394 45.9448 58.819 44.1447 58.747 42.5148C58.747 42.3397 58.747 42.1645 58.747 41.9894C61.9727 39.9274 64.4023 36.6764 65.5898 32.8331C65.6438 32.6483 65.6888 32.4585 65.7383 32.2688C65.9357 32.2029 66.118 32.0925 66.2731 31.9449C66.4282 31.7973 66.5526 31.6159 66.6381 31.4125C66.8945 30.7849 66.9035 30.0551 67.2275 29.4664C67.6054 28.7756 68.3252 28.4058 68.8921 27.8901C70.3227 26.5717 70.6916 24.358 70.6241 22.3487C70.5792 20.714 70.3362 19.0696 70.4307 17.4495C70.4307 17.3133 70.4307 17.177 70.4577 17.0408C70.4847 16.8024 70.5162 16.5543 70.5567 16.3208C70.7771 15.1142 71.2585 13.9758 71.5284 12.7789C71.7984 11.5821 71.8254 10.2345 71.1955 9.20304C70.2732 7.68997 68.3522 7.38833 66.6651 7.25697C64.753 7.08182 63.0659 7.30563 61.8197 5.58822C61.2481 4.69124 60.6037 3.85111 59.8942 3.0778C59.6423 2.82481 57.1949 1.20471 57.1949 1.10254C54.8002 -0.101464 52.0836 -0.327858 49.5467 0.465189C48.2735 0.864132 47.0813 1.51607 45.7901 1.84204C43.0188 2.55235 39.8245 1.78366 37.4671 3.50106C36.1534 4.4741 35.366 6.02608 34.6282 7.52942C34.0284 8.76841 33.4195 10.009 32.8017 11.2513C31.8029 13.2898 30.7952 15.3623 30.3768 17.6198C30.2892 18.1128 30.2336 18.6119 30.2103 19.1134V19.1134C30.2103 19.2934 30.2103 19.4734 30.2103 19.6534C30.2103 19.7312 30.2103 19.8091 30.2103 19.8869C30.2103 20.0524 30.2103 20.2178 30.2373 20.3735C30.2643 20.5291 30.2373 20.5729 30.2688 20.6751C30.3003 20.7773 30.3093 21.0059 30.3363 21.1616C30.3633 21.3173 30.4172 21.5946 30.4712 21.8038C30.4712 21.8962 30.5252 21.9838 30.5522 22.0763C30.5792 22.1687 30.6512 22.4022 30.7097 22.5628C30.7682 22.7233 30.7726 22.7331 30.8086 22.8158C30.8761 22.986 30.9571 23.1515 31.0381 23.3023C31.0741 23.3655 31.1011 23.4288 31.1371 23.492C31.2605 23.7198 31.3988 23.9376 31.551 24.144C32.5092 25.443 33.9309 26.27 34.9792 27.4863C34.9792 27.535 34.9792 27.5836 34.9792 27.6323C34.9792 27.7636 34.9792 27.895 34.9792 28.0312C35.0433 30.7441 35.7195 33.3989 36.949 35.7646C38.1785 38.1303 39.9239 40.1353 42.0335 41.605C42.0335 41.7899 42.056 41.9796 42.065 42.1694C42.1527 43.6119 42.1362 45.0597 42.0155 46.4994C41.8319 46.2666 41.6024 46.0811 41.344 45.9565C41.0856 45.832 40.8047 45.7714 40.5218 45.7793C40.3285 45.769 40.1348 45.787 39.946 45.8329L39.9055 45.7988V45.8426C38.9157 46.1053 37.6965 47.2194 36.5313 50.3867C36.5313 50.3867 32.9861 54.7069 30.2868 54.5269C27.5874 54.3469 20.7536 59.0272 20.7536 59.0272C20.7536 59.0272 14.0861 63.7026 12.6555 68.4705C11.8557 71.1748 10.8954 73.8204 9.78066 76.391L1.51614 94.7424L0 109.338C0 109.338 0.841299 115.813 0.674839 116.806C0.508379 117.798 4.13451 126.702 4.13451 126.702C4.13451 126.702 16.1152 149.461 21.01 150.629L21.3609 150.366C21.5713 150.481 21.7932 150.569 22.0223 150.629L23.03 149.865C23.0924 150.72 23.0652 151.58 22.949 152.429C22.2787 154.681 23.2055 169.345 24.3842 172.22C25.5629 175.095 25.1445 212.8 25.1445 212.8L24.978 216.123C24.978 216.123 24.978 216.23 25.0185 216.415L24.978 217.203L25.0995 217.272C25.2255 218.329 25.1845 219.401 24.978 220.444C24.5552 221.903 24.3842 226.024 24.3842 226.024C24.3842 226.024 21.01 249.318 22.6116 253.999C24.2132 258.679 25.5674 263.807 25.5674 263.807C25.5674 263.807 27.2545 269.645 25.6484 270.618C24.0423 271.591 19.4939 273.318 20.4206 275.746C21.2754 277.994 24.5192 284.017 25.0005 284.897L24.96 285.384L24.2987 293.134C24.4058 294.157 24.6624 295.156 25.059 296.092C25.7834 297.785 27.187 299.532 29.8684 299.342C30.3183 299.308 30.8356 299.254 31.344 299.181C36.2433 298.466 42.2719 296.102 42.2719 296.102C41.9593 295.888 41.6736 295.631 41.4216 295.338V295.338C41.1808 295.086 40.99 294.783 40.8608 294.449C40.7317 294.114 40.6668 293.754 40.6703 293.392C40.7423 291.976 38.2994 285.257 37.6875 283.598L37.5481 283.229C37.5481 283.229 43.1177 276.928 42.1909 271.353C42.1909 271.353 36.0274 267.461 38.0564 265.32C40.0854 263.179 43.7116 257.049 43.7116 257.049C43.7116 257.049 43.878 234.11 43.7116 230.69C43.538 228.311 43.6423 225.918 44.022 223.567C44.0895 223.217 44.1705 222.871 44.2559 222.526C47.0645 222.984 49.9006 223.217 52.7409 223.222C53.7787 223.222 54.8284 223.199 55.8902 223.154C55.8902 223.478 55.9037 223.828 55.9307 224.204C56.1646 229.887 56.601 239.856 56.9564 243.558C57.4603 248.861 60.2451 263.17 60.2451 263.17C60.2451 263.17 54.9319 266.852 61.1719 275.945C61.1719 275.945 61.1719 279.234 60.758 279.716C60.3158 281.276 59.9597 282.863 59.6918 284.469C59.4308 286.177 59.3228 287.914 59.7457 288.809C60.758 290.959 66.8316 290.784 66.8316 290.784C66.8804 290.772 66.93 290.764 66.98 290.76C68.1264 290.629 69.2855 290.746 70.3894 291.106C71.4933 291.465 72.5198 292.059 73.409 292.852C75.7169 294.856 84.4718 293.981 89.2182 293.338C91.0763 293.081 92.318 292.852 92.318 292.852C92.3777 292.624 92.399 292.387 92.381 292.151V292.151C92.3315 290.891 91.4182 288.128 85.2277 285.661C85.2277 285.661 79.4061 281.429 79.487 277.741H79.3566H78.6862C79.1091 277.726 79.4061 277.726 79.4061 277.726C79.4061 277.726 77.1251 268.73 78.0564 267.996C78.9877 267.261 76.1983 257.292 76.1983 257.292C76.1983 257.292 74.6012 240.556 74.5112 239.389C74.5172 238.382 74.6597 237.382 74.9341 236.421L74.5112 227.24C74.5112 227.24 74.4302 224.19 74.5112 223.197C74.5022 222.336 74.4391 221.476 74.3223 220.624C74.2818 220.283 74.2413 219.928 74.1963 219.578C76.3783 218.979 77.7954 218.429 77.7954 218.429L77.5435 186.49C79.3971 182.598 79.739 174.054 79.73 168.002C79.73 164.11 79.568 161.23 79.568 161.23L82.1009 156.759C82.1009 156.759 82.6858 151.407 81.759 150.234C81.3496 149.704 81.534 149.154 81.8715 148.702C82.049 148.545 82.237 148.401 82.4338 148.274C82.4117 148.24 82.3921 148.204 82.3753 148.167C82.5522 148.007 82.7402 147.862 82.9377 147.734C82.9377 147.734 82.0379 146.226 82.8432 145.588C83.5991 146.143 84.2739 146.586 84.7868 146.902C84.7508 147.257 84.7148 147.461 84.7148 147.461L84.9308 146.975C85.4256 147.276 85.727 147.461 85.727 147.461C85.727 147.461 89.6951 138.913 89.6096 137.658C89.5241 136.403 92.309 131.09 92.309 131.09C92.309 131.09 92.6464 128.297 94.167 127.13C95.6877 125.962 95.3458 117.502 95.3458 117.502C95.3458 117.502 95.7687 113.094 96.7809 111.299C97.7932 109.503 95.8766 107.061 95.8766 107.061ZM19.9527 103.31L20.0292 105.348C19.5793 104.565 19.2554 104.006 19.2554 104.006L19.9527 103.31Z" fill="url(#paint0_linear)"/>
<path d="M85.9648 143.567L84.9875 148.069C84.9875 148.069 77.1604 143.738 75.7534 138.257C74.3463 132.776 78.1106 130.687 78.1106 130.687L85.4083 134.024L85.9648 143.567Z" fill="white"/>
<path opacity="0.1" d="M85.9648 143.567L84.9875 148.069C84.9875 148.069 77.1604 143.738 75.7534 138.257C74.3463 132.776 78.1106 130.687 78.1106 130.687L85.4083 134.024L85.9648 143.567Z" fill="black"/>
<path d="M42.1051 295.529C42.1051 295.529 35.1741 298.344 30.4091 298.698C27.8794 298.885 26.5495 297.171 25.8651 295.519C25.4932 294.608 25.2506 293.64 25.146 292.647L25.7741 285.058L26.1033 281.022L36.2268 278.112L37.6606 282.961L37.7949 283.325C38.3667 284.948 40.6799 291.527 40.6106 292.901C40.605 293.256 40.6647 293.609 40.7861 293.938C40.9074 294.267 41.0879 294.566 41.3167 294.816C41.5511 295.089 41.816 295.329 42.1051 295.529V295.529Z" fill="#E4E4E4"/>
<path d="M91.8064 291.647C91.8252 291.881 91.8036 292.116 91.7426 292.341C91.7426 292.341 76.1344 295.088 72.9416 292.341C72.0441 291.539 70.998 290.943 69.8702 290.592C68.7424 290.241 67.5577 290.142 66.3918 290.302C66.3918 290.302 60.3529 290.476 59.3449 288.375C58.9252 287.493 59.0347 285.782 59.2947 284.1C59.5603 282.517 59.9136 280.953 60.3529 279.415L60.5946 279.212L62.0314 277.993L78.8528 277.468H78.9805C78.8984 281.102 84.6865 285.271 84.6865 285.271C90.8486 287.681 91.7562 290.404 91.8064 291.647Z" fill="#E4E4E4"/>
<path opacity="0.1" d="M91.808 291.739C91.8241 291.962 91.801 292.185 91.7396 292.4C91.7396 292.4 76.1342 295.015 72.9465 292.4C72.0486 291.635 71.002 291.068 69.8735 290.733C68.7451 290.399 67.5597 290.306 66.3933 290.459C66.3933 290.459 60.3509 290.624 59.343 288.624C58.9281 287.784 59.0329 286.155 59.2929 284.549C61.6187 284.783 65.2897 285.366 66.7308 286.761C68.9106 288.871 72.6045 290.982 74.8664 291.152C76.6541 291.262 87.2842 291.601 91.808 291.739Z" fill="black"/>
<path opacity="0.1" d="M42.1051 295.572C42.1051 295.572 34.8673 298.349 29.8913 298.699C27.2495 298.883 25.8607 297.192 25.146 295.563C26.9916 296.21 29.5475 296.885 30.891 296.267C32.4833 295.525 38.1288 295.053 41.2953 294.85C41.5341 295.126 41.8063 295.369 42.1051 295.572V295.572Z" fill="black"/>
<path d="M53.1407 65.095C47.3749 62.6122 39.958 54.4088 41.81 50.5757C42.2194 49.6076 42.4637 48.564 42.5308 47.4976C42.6499 46.0493 42.6675 44.593 42.5832 43.1418C42.4531 40.7634 42.195 38.3958 41.81 36.0515C41.81 36.0515 59.8108 36.5016 58.7625 39.4394C58.4567 40.3057 58.4043 41.8012 58.4916 43.4709C58.579 45.1406 58.793 47.0426 59.0202 48.6446C59.3303 50.837 59.6492 52.5164 59.6492 52.5164C59.6492 52.5164 58.544 54.2248 57.9019 54.3168C57.2598 54.4088 61.4138 68.6522 53.1407 65.095Z" fill="#E1B79F"/>
<path opacity="0.1" d="M38.0115 283.284L37.8678 283.445C32.156 276.368 25.248 285.193 25.248 285.193L25.146 285.003L25.4984 280.999L36.3332 278.112L37.8678 282.923L38.0115 283.284Z" fill="black"/>
<path opacity="0.1" d="M78.3625 278.048C78.3625 278.048 74.3666 277.952 72.2355 280.21C70.1044 282.468 59.8038 280.695 60.2478 280.21C60.3773 279.964 60.4564 279.685 60.4787 279.396L61.8772 278.048L78.2515 277.468C78.3137 277.841 78.3625 278.048 78.3625 278.048Z" fill="black"/>
<path d="M44.3994 221.345C44.1062 222.146 43.8831 222.976 43.7332 223.824C43.3677 226.146 43.2661 228.509 43.4308 230.859C43.5929 234.241 43.4308 256.907 43.4308 256.907C43.4308 256.907 39.964 262.951 38.0268 265.082C36.0896 267.213 41.9713 271.04 41.9713 271.04C42.8479 276.553 37.5359 282.776 37.5359 282.776C32.1362 275.577 25.6058 284.549 25.6058 284.549C25.6058 284.549 22.0557 277.785 21.1704 275.369C20.2851 272.953 24.6372 271.286 26.1668 270.3C27.6964 269.315 26.0879 263.536 26.0879 263.536C26.0879 263.536 24.7994 258.468 23.2654 253.844C21.7314 249.22 24.9572 226.206 24.9572 226.206C24.9572 226.206 25.1237 222.113 25.5225 220.688C25.7216 219.659 25.7616 218.601 25.6409 217.557C25.6146 217.204 25.5839 216.914 25.562 216.712C25.5401 216.509 25.5225 216.422 25.5225 216.422L25.5839 216.306L27.7753 211.802C27.7753 211.802 45.4513 218.509 44.3994 221.345Z" fill="#0275D8"/>
<path d="M78.3627 277.718C78.3627 277.718 74.3878 277.625 72.2679 279.67C70.1479 281.715 59.9016 280.119 60.3432 279.67C60.7849 279.221 60.7451 275.902 60.7451 275.902C54.7342 266.83 59.8618 263.15 59.8618 263.15C59.8618 263.15 57.181 248.875 56.6951 243.58C56.3551 239.886 55.9355 229.915 55.7103 224.269C55.6131 221.829 55.5557 220.145 55.5557 220.145L60.4227 219.076L61.0543 218.94L72.8994 216.309C72.8994 216.309 73.2262 218.749 73.4471 220.745C73.5588 221.597 73.6193 222.456 73.6282 223.317C73.5531 224.293 73.6282 227.353 73.6282 227.353L74.0345 236.509C73.7723 237.47 73.6355 238.467 73.6282 239.471C73.7121 240.642 75.2534 257.338 75.2534 257.338C75.2534 257.338 77.9343 267.303 77.0201 268.02C76.1058 268.738 78.3627 277.718 78.3627 277.718Z" fill="#0275D8"/>
<path opacity="0.1" d="M58.4356 39.3914C58.1305 40.2455 58.0782 41.7198 58.1653 43.3659C55.7595 44.9518 52.9938 45.7627 50.186 45.7053C47.3781 45.6479 44.642 44.7246 42.2919 43.0414C42.1622 40.6967 41.9046 38.3626 41.5205 36.0515C41.5205 36.0515 59.4816 36.4952 58.4356 39.3914Z" fill="black"/>
<path d="M66.073 28.872C66.1222 33.284 64.5372 37.5363 61.6666 40.6935C58.796 43.8506 54.875 45.654 50.7661 45.7069C46.6572 45.7598 42.6971 44.0578 39.7568 40.9755C36.8166 37.8931 35.1371 33.6828 35.0879 29.2708C35.0879 29.1346 35.0879 29.0082 35.0879 28.872C35.0879 24.4587 36.7206 20.2262 39.6269 17.1055C42.5331 13.9849 46.4749 12.2317 50.585 12.2317C54.695 12.2317 58.6368 13.9849 61.543 17.1055C64.4493 20.2262 66.082 24.4587 66.082 28.872H66.073Z" fill="#F7C4A7"/>
<path opacity="0.1" d="M53.1407 65.0988C47.3749 62.6355 39.958 54.4964 41.81 50.6934C42.2194 49.7329 42.4637 48.6975 42.5308 47.6394L50.4238 54.7749L55.3073 59.1782L59.0202 48.7918C59.3303 50.9671 59.6492 52.6333 59.6492 52.6333C59.6492 52.6333 58.544 54.3283 57.9019 54.4196C57.2598 54.5108 61.4138 68.6282 53.1407 65.0988Z" fill="black"/>
<path d="M74.2689 97.421L67.476 220.831L58.6169 221.459L35.6724 149.901L39.4357 64.9448L40.2325 46.9956L50.433 56.0554L55.4658 60.5196L59.4047 49.678L66.7287 56.5812L74.2689 97.421Z" fill="#0275D8"/>
<path opacity="0.1" d="M44.3983 220.993C44.0994 221.768 43.872 222.571 43.7192 223.39C37.3149 222.359 31.0949 220.329 25.2666 217.368L25.146 217.302L25.1862 216.55V216.157L27.4202 211.802C27.4202 211.802 45.4706 218.251 44.3983 220.993Z" fill="black"/>
<path opacity="0.1" d="M60.234 223.422C58.7331 223.724 57.2192 223.928 55.6992 224.034C55.609 221.625 55.5557 219.963 55.5557 219.963L60.0987 218.884L60.234 223.422Z" fill="black"/>
<path opacity="0.1" d="M74.2691 220.653C70.861 221.537 65.5931 222.53 60.886 221.909L60.8188 218.885L73.6747 216.309C73.6747 216.309 74.0151 218.679 74.2691 220.653Z" fill="black"/>
<path opacity="0.1" d="M60.8186 222.67C42.5158 226.073 25.7532 216.317 25.7532 216.317L25.9139 213.011C25.9139 213.011 26.329 175.537 25.1773 172.665C24.0256 169.792 23.1283 155.243 23.7801 153.021C24.4318 150.8 21.4007 117.259 21.4007 117.259L20.9096 103.648L2.92383 95.6901L10.9592 77.4467C12.0443 74.8894 12.9777 72.2591 13.7537 69.5718C15.151 64.8323 21.6373 60.1803 21.6373 60.1803C21.6373 60.1803 28.2888 55.5331 30.9181 55.7081C33.5475 55.8831 36.9937 51.5957 36.9937 51.5957C39.5383 44.5326 41.8417 47.7069 41.8417 47.7069C41.8417 48.0471 41.8417 47.7069 41.7167 48.752C40.8239 56.5053 56.1536 81.0049 56.3723 81.4424L57.85 120.165L59.3276 169.169L60.8186 222.67Z" fill="black"/>
<path d="M60.2341 222.67C41.9356 226.073 25.1724 216.317 25.1724 216.317L25.3375 213.011C25.3375 213.011 25.7481 175.537 24.5966 172.665C23.4451 169.792 22.5481 155.228 23.2041 152.987C23.8602 150.746 20.8119 117.239 20.8119 117.239L20.3165 103.628L2.33936 95.6707L10.3729 77.4272C11.4551 74.8705 12.3883 72.2419 13.1667 69.5572C14.5637 64.8323 21.0708 60.1754 21.0708 60.1754C21.0708 60.1754 27.7207 55.5283 30.345 55.7033C32.9693 55.8782 36.4326 51.5957 36.4326 51.5957C38.981 44.5326 41.7883 47.7069 41.7883 47.7069C41.7883 48.0471 41.5205 48.193 41.6633 48.752C43.6271 56.272 55.6059 81.0049 55.8246 81.4424L57.3019 120.165L58.7479 169.194L60.2341 222.67Z" fill="white"/>
<path opacity="0.1" d="M56.1405 82.4034C54.0921 81.5003 43.2416 68.4104 43.2416 68.4104V65.4312C42.8468 64.4496 40.4965 65.0484 38.5967 65.7355L39.4142 47.6394L40.3432 48.4541C42.373 56.042 55.9176 81.9665 56.1405 82.4034Z" fill="black"/>
<path d="M56.1402 81.1158C54.1561 80.2242 43.67 67.3762 43.67 67.3762V64.446C43.2885 63.4822 41.0216 64.0701 39.1812 64.7448L39.9578 46.9956L40.8555 47.7908C42.8351 55.2317 55.9203 80.682 56.1402 81.1158Z" fill="white"/>
<path opacity="0.1" d="M26.1336 146.26C26.375 146.26 38.6472 144.85 38.6472 144.85C38.6472 144.85 46.0781 160.817 45.5909 164.696C45.1037 168.575 44.2215 172.018 41.2324 171.409C38.2434 170.8 25.146 171.888 25.146 171.888L26.1336 146.26Z" fill="black"/>
<path d="M25.5489 144.973C25.7946 144.973 38.0644 143.562 38.0644 143.562C38.0644 143.562 45.4895 159.565 45.0068 163.403C44.5241 167.242 43.6333 170.73 40.6492 170.121C37.6651 169.512 24.5615 170.601 24.5615 170.601L25.5489 144.973Z" fill="white"/>
<path d="M34.3773 137.125C34.3773 137.125 45.9436 143.968 46.1915 146.051C46.4394 148.133 40.3047 145.138 38.9795 144.771C38.1067 144.543 37.219 144.391 36.3246 144.315L27.4854 144.578L34.3773 137.125Z" fill="#F7C4A7"/>
<path opacity="0.1" d="M52.6315 83.0473C53.2774 83.0473 53.8011 82.4708 53.8011 81.7597C53.8011 81.0486 53.2774 80.4722 52.6315 80.4722C51.9855 80.4722 51.4619 81.0486 51.4619 81.7597C51.4619 82.4708 51.9855 83.0473 52.6315 83.0473Z" fill="black"/>
<path d="M52.6315 82.4035C53.2774 82.4035 53.8011 81.827 53.8011 81.1159C53.8011 80.4048 53.2774 79.8284 52.6315 79.8284C51.9855 79.8284 51.4619 80.4048 51.4619 81.1159C51.4619 81.827 51.9855 82.4035 52.6315 82.4035Z" fill="#3F3D56"/>
<path opacity="0.1" d="M54.9709 140.343C55.6168 140.343 56.1405 139.623 56.1405 138.734C56.1405 137.845 55.6168 137.125 54.9709 137.125C54.3249 137.125 53.8013 137.845 53.8013 138.734C53.8013 139.623 54.3249 140.343 54.9709 140.343Z" fill="black"/>
<path d="M54.9709 139.7C55.6168 139.7 56.1405 139.123 56.1405 138.412C56.1405 137.701 55.6168 137.125 54.9709 137.125C54.3249 137.125 53.8013 137.701 53.8013 138.412C53.8013 139.123 54.3249 139.7 54.9709 139.7Z" fill="#3F3D56"/>
<path opacity="0.1" d="M53.8009 111.373C54.4469 111.373 54.9705 110.797 54.9705 110.086C54.9705 109.375 54.4469 108.798 53.8009 108.798C53.155 108.798 52.6313 109.375 52.6313 110.086C52.6313 110.797 53.155 111.373 53.8009 111.373Z" fill="black"/>
<path d="M53.8009 111.373C54.4469 111.373 54.9705 110.653 54.9705 109.764C54.9705 108.875 54.4469 108.155 53.8009 108.155C53.155 108.155 52.6313 108.875 52.6313 109.764C52.6313 110.653 53.155 111.373 53.8009 111.373Z" fill="#3F3D56"/>
<path d="M81.7902 144.383C81.7902 144.383 82.6412 145.726 81.7902 146.33C80.9391 146.933 81.8734 148.481 81.8734 148.481C81.8734 148.481 79.7505 149.785 80.6847 150.968C81.619 152.15 81.027 157.46 81.027 157.46L78.4739 161.932C78.4739 161.932 78.6266 164.798 78.6358 168.672C78.6358 174.716 78.2982 183.213 76.4296 187.087L76.6794 218.87C76.6794 218.87 67.739 222.311 60.2555 221.259L59.1455 170.258C59.1455 170.258 60.7643 141.337 61.3609 135.789C61.7102 132.909 61.8524 130.005 61.7864 127.102C61.7864 127.102 61.5321 118.42 60.6764 114.396C60.6764 114.396 59.7514 96.9348 59.6589 92.1023C59.6173 89.7907 59.7329 83.0458 59.8624 76.6317C60.0058 69.6191 60.1676 63.0055 60.1676 63.0055L58.4795 48.9461C58.4795 48.9461 60.1677 48.7709 60.6764 49.4814C60.9043 49.7054 61.1521 49.9059 61.4164 50.08C64.3349 52.1531 74.6305 58.5283 74.6305 58.5283C74.6305 58.5283 80.3286 60.9129 81.6931 64.3292C83.0575 67.7454 84.0056 70.169 84.667 71.1423C85.3284 72.1156 85.6891 76.6901 85.6891 76.6901C85.6891 76.6901 87.6502 85.1092 89.1811 86.535C90.7121 87.9609 91.8128 97.0126 91.8128 97.0126L78.2843 108.206C78.2843 108.206 77.0956 126.825 76.8413 127.545C76.5869 128.265 81.7902 144.383 81.7902 144.383Z" fill="white"/>
<path d="M81.927 144.172C81.927 144.172 82.7595 145.519 81.927 146.124C81.0945 146.729 82.0044 148.281 82.0044 148.281C82.0044 148.281 79.9162 149.589 80.8352 150.774C81.7541 151.96 81.1718 157.284 81.1718 157.284L78.6697 161.769C78.6697 161.769 78.8198 164.643 78.8334 168.527C78.8334 174.588 78.5013 183.108 76.6634 186.993L76.9136 218.863C76.9136 218.863 68.1196 222.313 60.7587 221.259L59.6714 170.118C59.6714 170.118 61.2592 141.117 61.8506 135.554C62.1945 132.666 62.3329 129.754 62.2646 126.844C62.2646 126.844 62.0144 118.138 61.1773 114.102C61.1773 114.102 60.2674 96.5936 60.1719 91.7479C60.1309 89.43 60.2447 82.6666 60.3721 76.2349C60.5131 69.2031 60.6723 62.5714 60.6723 62.5714L58.4795 48.2832C58.4795 48.2832 60.6723 48.2832 61.1773 49.0103C61.3993 49.2376 61.6434 49.4388 61.9052 49.6105V49.6105C64.7713 51.6893 74.8982 58.0819 74.8982 58.0819C74.8982 58.0819 80.4894 60.473 81.8542 63.8987C83.219 67.3243 84.1289 69.7545 84.7795 70.7305C85.43 71.7064 85.7849 76.2935 85.7849 76.2935C85.7849 76.2935 87.7138 84.7356 89.2197 86.1654C90.7255 87.5952 91.8128 96.6717 91.8128 96.6717L78.5059 107.895C78.5059 107.895 77.3367 126.566 77.0819 127.288C76.8272 128.01 81.927 144.172 81.927 144.172Z" fill="white"/>
<path opacity="0.1" d="M66.5208 66.7641L67.8022 70.4861L61.076 77.2532C61.2259 70.2879 61.3952 63.7189 61.3952 63.7189L59.0645 49.5708C59.0645 49.5708 61.3952 49.5708 61.9319 50.291C62.1679 50.5161 62.4273 50.7154 62.7056 50.8855V50.8855L68.4212 67.3635L66.5208 66.7641Z" fill="black"/>
<path d="M65.909 65.8832L67.1858 69.6861L60.4886 76.6094C60.6332 69.4833 60.8066 62.7628 60.8066 62.7628L58.4795 48.2832C58.4795 48.2832 60.8066 48.2832 61.3366 49.02C61.5729 49.249 61.8312 49.4527 62.1075 49.6283V49.6283L67.8362 66.5014L65.909 65.8832Z" fill="white"/>
<path opacity="0.1" d="M66.073 28.8099C66.0747 30.5555 65.818 32.2904 65.3122 33.95C65.2269 33.9652 65.1397 33.9619 65.0556 33.9403C64.9716 33.9186 64.8925 33.8791 64.8231 33.824C64.7008 29.4639 62.6991 25.3654 60.231 21.8821C59.5368 20.8315 58.6969 19.9003 57.7402 19.1207C56.7718 18.3432 55.5676 17.9788 54.3619 18.0985C53.0033 18.2971 51.8032 19.2854 50.431 19.4114C48.6195 19.5712 46.9982 18.2293 45.2004 18.1663C44.4693 18.1728 43.748 18.3465 43.0849 18.6757C42.4218 19.0049 41.8321 19.482 41.3555 20.0751C40.4101 21.2679 39.7083 22.659 39.295 24.1591C38.583 26.4353 38.1952 28.8131 38.1447 31.2128C38.1221 32.5693 37.9998 34.2697 36.8223 34.7639C36.9115 33.767 36.8057 32.7612 36.5118 31.8103C36.2178 30.8595 35.7422 29.9846 35.1151 29.241L35.0879 29.2071C35.0879 29.0715 35.0879 28.9455 35.0879 28.8099C35.0879 24.4131 36.7206 20.1963 39.6269 17.0873C42.5331 13.9783 46.4749 12.2317 50.585 12.2317C54.695 12.2317 58.6368 13.9783 61.543 17.0873C64.4493 20.1963 66.082 24.4131 66.082 28.8099H66.073Z" fill="black"/>
<path d="M57.031 2.3734C54.6796 1.18901 52.0051 0.965006 49.5103 1.7435C48.2568 2.14082 47.0758 2.78525 45.8042 3.10989C43.0892 3.81247 39.9216 3.05175 37.5912 4.75248C36.297 5.72155 35.5187 7.25268 34.7947 8.74505L32.9846 12.4324C31.9981 14.4529 31.0026 16.5073 30.5908 18.7313C30.1791 20.9554 30.4279 23.4459 31.7447 25.2387C32.6995 26.5372 34.1204 27.3561 35.1612 28.582C35.7865 29.3293 36.2604 30.2072 36.5533 31.1604C36.8461 32.1136 36.9514 33.1213 36.8626 34.1202C38.0392 33.6357 38.1568 31.9253 38.1839 30.5686C38.2348 28.1686 38.6223 25.7904 39.3333 23.5137C39.7463 22.0134 40.4476 20.6221 41.3923 19.4291C41.8682 18.8353 42.4573 18.3574 43.1199 18.0273C43.7824 17.6972 44.5033 17.5226 45.2341 17.5152C47.0441 17.583 48.6686 18.9252 50.4605 18.7604C51.8181 18.6393 53.0217 17.6508 54.3883 17.4522C55.5933 17.3301 56.7973 17.6947 57.7641 18.4745C58.7207 19.2518 59.5588 20.1836 60.2483 21.2364C62.719 24.7251 64.7237 28.8049 64.8413 33.1802C65.3527 33.5775 66.0903 33.0542 66.3437 32.434C66.5971 31.8138 66.6061 31.087 66.9274 30.4959C67.2984 29.8127 68.0089 29.4444 68.5655 28.9308C69.9773 27.6274 70.3303 25.4325 70.276 23.441C70.2217 21.4496 69.8597 19.4291 70.2126 17.4716C70.4253 16.2748 70.9049 15.1458 71.1674 13.9587C71.4299 12.7716 71.4615 11.4391 70.8416 10.4167C69.9366 8.91948 68.0315 8.61906 66.3708 8.47855C64.4838 8.30411 62.796 8.52701 61.5923 6.82629C61.0259 5.93992 60.3901 5.10674 59.6918 4.33577C59.4429 4.07896 57.031 2.48 57.031 2.3734Z" fill="black"/>
<path opacity="0.1" d="M7.94653 104.746L3.24501 95.2791L1.75439 109.889C1.75439 109.889 2.583 116.38 2.41638 117.376C2.24975 118.371 5.81191 127.294 5.81191 127.294C5.81191 127.294 17.5793 150.116 22.3844 151.288L38.5965 138.658L34.2913 132.706C34.2913 132.706 32.8007 132.074 32.4269 132.706C32.4269 132.706 24.4289 117.733 23.6047 116.655C22.7806 115.576 22.9383 113.404 22.9383 113.404C22.9383 113.404 21.6953 111.963 22.1096 110.61C22.5239 109.257 19.7319 104.57 19.7319 104.57L22.2988 101.957L7.94653 104.746Z" fill="black"/>
<path d="M3.35987 94.6353L2.09813 95.7104L0.584961 110.208C0.584961 110.208 1.4261 116.649 1.25696 117.637C1.08781 118.624 4.70847 127.479 4.70847 127.479C4.70847 127.479 16.6492 150.125 21.527 151.288L38.0119 138.756L33.6369 132.849C33.6369 132.849 32.1238 132.222 31.7443 132.849C31.7443 132.849 23.6299 117.992 22.7888 116.922C21.9476 115.851 22.1167 113.696 22.1167 113.696C22.1167 113.696 20.855 112.266 21.2756 110.923C21.6962 109.58 18.8344 104.929 18.8344 104.929L21.4402 102.336L3.35987 94.6353Z" fill="white"/>
<path opacity="0.1" d="M80.7175 151.076C81.6156 152.277 81.0498 157.676 81.0498 157.676L78.5712 162.19C78.5712 162.19 78.7194 165.108 78.7284 169.043L74.5614 170.477C74.1842 170.607 73.7844 170.635 73.3953 170.56C73.0061 170.485 72.6389 170.308 72.3244 170.045C72.0098 169.782 71.7569 169.439 71.5867 169.047C71.4166 168.654 71.3342 168.222 71.3464 167.787L72.0693 142.275L81.7907 146.364C80.9645 146.997 81.8715 148.549 81.8715 148.549C81.8715 148.549 79.8105 149.874 80.7175 151.076Z" fill="black"/>
<path d="M81.301 150.873C82.1998 152.042 81.6336 157.314 81.6336 157.314L79.1618 161.727C79.1618 161.727 79.3101 164.57 79.3236 168.414L75.0767 169.838C74.7079 169.962 74.3168 169.99 73.9361 169.918C73.5553 169.847 73.196 169.679 72.8881 169.428C72.5801 169.177 72.3326 168.851 72.1661 168.476C71.9995 168.101 71.9189 167.689 71.9308 167.274L72.6544 142.275L82.3796 146.277C81.5482 146.895 82.456 148.411 82.456 148.411C82.456 148.411 80.3932 149.7 81.301 150.873Z" fill="white"/>
<path d="M84.2106 138.514C84.2106 138.514 83.5158 143.138 81.7767 143.409C80.0376 143.68 79.2578 150.888 77.5234 150.637C75.7889 150.386 76.9373 143.931 76.9988 142.68C77.0602 141.429 75.1084 136.249 76.564 135.072C78.0196 133.896 82.651 135.072 82.651 135.072L84.2106 138.514Z" fill="#F7C4A7"/>
<path opacity="0.1" d="M87.6012 103.418L90.652 96.5664C90.652 96.5664 91.8714 101.789 91.8714 104.578C91.8714 107.368 93.5708 107.642 93.5708 107.642C93.5708 107.642 95.4329 110.089 94.4512 111.876C93.4695 113.662 93.0777 118.086 93.0777 118.086C93.0777 118.086 93.3991 126.549 91.9419 127.718C90.4847 128.888 90.1589 131.683 90.1589 131.683C90.1589 131.683 87.4867 136.993 87.5704 138.256C87.654 139.518 83.846 148.069 83.846 148.069C83.846 148.069 85.7082 137.443 74.8565 132.852C74.8565 132.852 74.7728 129.25 75.5828 128.262C76.3929 127.273 77.6563 126.793 76.8639 121.821C76.0715 116.848 76.635 110.853 76.635 109.654C76.635 108.455 79.0651 100.981 79.0651 100.981L87.6012 103.418Z" fill="black"/>
<path d="M88.9486 95.9229L91.6973 96.8955C91.6973 96.8955 92.9538 102.084 92.9538 104.856C92.9538 107.628 94.7046 107.9 94.7046 107.9C94.7046 107.9 96.6233 110.332 95.6118 112.107C94.6003 113.882 94.1921 118.278 94.1921 118.278C94.1921 118.278 94.5277 126.686 93.0263 127.848C91.525 129.011 91.212 131.787 91.212 131.787C91.212 131.787 88.4587 137.064 88.5449 138.318C88.631 139.573 84.703 148.069 84.703 148.069C84.703 148.069 86.6217 137.511 75.4407 132.95C75.4407 132.95 75.359 129.371 76.1936 128.388C77.0282 127.406 78.33 126.929 77.5136 121.989C76.6971 117.048 77.2777 111.091 77.2777 109.899C77.2777 108.708 79.7815 101.282 79.7815 101.282L88.9486 95.9229Z" fill="white"/>
<path opacity="0.1" d="M28.6548 272.431C28.6548 272.431 33.2709 268.631 36.3006 271.392C39.3302 274.153 28.6548 272.431 28.6548 272.431Z" fill="black"/>
<path opacity="0.1" d="M62.5732 263.332C62.5732 263.332 66.6613 262.779 70.0943 266.663C73.5273 270.547 62.5732 263.332 62.5732 263.332Z" fill="black"/>
<g opacity="0.1">
<path opacity="0.1" d="M68.365 27.9204C67.8117 28.4409 67.101 28.8057 66.7322 29.4916C66.4173 30.0801 66.4083 30.8098 66.1565 31.4373C65.9046 32.0648 65.1714 32.5852 64.6586 32.1864C64.5417 27.8085 62.549 23.6982 60.0976 20.1959C59.4121 19.1404 58.5791 18.2067 57.6282 17.4281C56.6661 16.6436 55.4679 16.2759 54.2682 16.3969C52.9188 16.5963 51.7313 17.5886 50.3684 17.7151C48.5692 17.8756 46.9544 16.5282 45.1687 16.465C44.4431 16.4709 43.7272 16.6451 43.0692 16.9757C42.4112 17.3063 41.8265 17.7857 41.3544 18.3815C40.4154 19.5792 39.7183 20.9759 39.3078 22.4821C38.6009 24.7677 38.2158 27.1551 38.1652 29.5645C38.1383 30.9217 38.0213 32.6144 36.8608 33.1203C36.8878 33.4813 36.8878 33.8441 36.8608 34.2051C38.0348 33.7186 38.1518 32.0015 38.1788 30.6395C38.2293 28.2302 38.6144 25.8427 39.3212 23.5571C39.7317 22.0509 40.4288 20.6542 41.3678 19.4565C41.8403 18.8608 42.4251 18.3812 43.0829 18.0498C43.7408 17.7184 44.4565 17.5429 45.1822 17.5351C46.9814 17.6032 48.6007 18.9506 50.3819 18.7852C51.7313 18.6636 52.9278 17.6713 54.2817 17.4719C55.4808 17.3495 56.679 17.7155 57.6417 18.4982C58.5927 19.2786 59.4257 20.214 60.1111 21.2709C62.5625 24.7732 64.5552 28.8689 64.6721 33.2614C65.1849 33.6603 65.9181 33.1349 66.1699 32.5123C66.4218 31.8897 66.4308 31.16 66.7457 30.5666C67.1145 29.8807 67.8252 29.511 68.3785 28.9954C69.7819 27.6869 70.1327 25.4834 70.0787 23.4842C70.0787 23.4209 70.0787 23.3625 70.0787 23.2993C69.9888 25.0407 69.5615 26.8065 68.365 27.9204Z" fill="black"/>
<path opacity="0.1" d="M35.1564 27.58C34.1263 26.3493 32.7139 25.5224 31.7649 24.2188C30.9632 23.068 30.5065 21.6795 30.4559 20.2397C30.3148 22.0399 30.7796 23.8347 31.7649 25.2938C32.7139 26.5974 34.1263 27.4195 35.1564 28.6501C36.1513 29.8533 36.7493 31.3792 36.8566 32.9891C36.9243 32.0101 36.8085 31.0265 36.5164 30.0971C36.2242 29.1677 35.7617 28.3115 35.1564 27.58Z" fill="black"/>
<path opacity="0.1" d="M70.9515 12.8897C70.6861 14.0815 70.2138 15.2149 69.9979 16.4163C69.8682 17.2288 69.8215 18.0542 69.8584 18.8777C69.8733 18.4125 69.9199 17.9491 69.9979 17.4914C70.2138 16.2899 70.6861 15.1565 70.9515 13.9647C71.1039 13.307 71.1541 12.6265 71.0999 11.9509C71.0709 12.2672 71.0213 12.581 70.9515 12.8897V12.8897Z" fill="black"/>
</g>
<defs>
<linearGradient id="paint0_linear" x1="85265.8" y1="263257" x2="85265.8" y2="79051" gradientUnits="userSpaceOnUse">
<stop stop-color="#808080" stop-opacity="0.25"/>
<stop offset="0.54" stop-color="#808080" stop-opacity="0.12"/>
<stop offset="1" stop-color="#808080" stop-opacity="0.1"/>
</linearGradient>
</defs>
</svg>
